<svg width="255" height="46" viewBox="0 0 255 46" fill="none" xmlns="http://www.w3.org/2000/svg">
<rect x="52" y="40" width="203" height="3" rx="1.5" fill="white"/>
<path d="M17.8206 41.5805C29.3877 45.4357 41.8948 45.4357 53.4619 41.5805V14.8495H17.8206V41.5805Z" fill="#5D9EA6"/>
<path d="M35.6415 28.215L4.45535 14.8495L35.6415 1.48401L66.8276 14.8495L35.6415 28.215Z" fill="#5D9EA6"/>
<path d="M4.45518 32.6701C2.81484 32.6701 1.48508 31.3403 1.48508 29.7C1.48508 28.0596 2.81484 26.7299 4.45518 26.7299C6.09553 26.7299 7.42529 28.0596 7.42529 29.7C7.42529 31.3403 6.09553 32.6701 4.45518 32.6701Z" fill="#A8BBBF"/>
<path d="M67.4126 16.2142L54.947 21.5559V41.5804C54.947 42.2205 54.5386 42.7878 53.9312 42.9882C48.0341 44.9544 41.837 45.9376 35.6413 45.9376C29.4442 45.9376 23.2485 44.9544 17.3514 42.9882C16.744 42.7878 16.3356 42.2205 16.3356 41.5804V26.5175C16.3356 25.6963 16.9994 25.0324 17.8207 25.0324C18.6419 25.0324 19.3057 25.6963 19.3057 26.5175V40.4978C29.8808 43.7931 41.4003 43.7931 51.9769 40.4978V22.8301L36.2264 29.5797C36.0393 29.6599 35.8403 29.7 35.6413 29.7C35.4423 29.7 35.2433 29.6599 35.0562 29.5797L5.94022 17.1008V25.5181C7.66437 26.1329 8.91033 27.7664 8.91033 29.7C8.91033 32.1562 6.91144 34.1551 4.45516 34.1551C1.99888 34.1551 1.89245e-06 32.1562 1.89245e-06 29.7C1.89245e-06 27.7664 1.24596 26.1329 2.97011 25.5181V14.8494C2.97011 14.2554 3.32355 13.7178 3.87005 13.4847L35.0562 0.119176C35.4304 -0.0397252 35.8522 -0.0397252 36.2264 0.119176L48.8583 5.53368C49.6112 5.85743 49.9617 6.73064 49.6379 7.48356C49.3157 8.23945 48.4425 8.59141 47.6881 8.26321L35.6413 3.09968L8.22572 14.8494L35.6413 26.5992L63.0569 14.8494L52.8768 10.4863C52.1239 10.1626 51.7734 9.28938 52.0972 8.53646C52.418 7.78205 53.2927 7.42861 54.0471 7.75681L67.4126 13.4847C67.9591 13.7178 68.3125 14.2554 68.3125 14.8494C68.3125 15.4434 67.9591 15.981 67.4126 16.2142ZM4.45516 31.185C5.27491 31.185 5.94022 30.5197 5.94022 29.7C5.94022 28.8802 5.27491 28.2149 4.45516 28.2149C3.63541 28.2149 2.97011 28.8802 2.97011 29.7C2.97011 30.5197 3.63541 31.185 4.45516 31.185Z" fill="white"/>
<path d="M72.8 35H78.02C82.42 35 85.46 31.94 85.46 28V27.96C85.46 24.02 82.42 21 78.02 21H72.8V35ZM78.02 23.24C80.96 23.24 82.88 25.26 82.88 28V28.04C82.88 30.78 80.96 32.76 78.02 32.76H75.26V23.24H78.02ZM94.2445 19.64H96.1245L98.6845 17.7L96.4845 16.74L94.2445 19.64ZM95.2245 35.24C99.5245 35.24 102.565 31.94 102.565 28V27.96C102.565 24.02 99.5645 20.76 95.2645 20.76C90.9645 20.76 87.9245 24.06 87.9245 28V28.04C87.9245 31.98 90.9245 35.24 95.2245 35.24ZM95.2645 32.96C92.4845 32.96 90.5045 30.72 90.5045 28V27.96C90.5045 25.24 92.4445 23.04 95.2245 23.04C98.0045 23.04 99.9845 25.28 99.9845 28V28.04C99.9845 30.76 98.0445 32.96 95.2645 32.96ZM105.637 35H108.057V25.04L115.777 35H117.837V21H115.417V30.68L107.917 21H105.637V35ZM121.537 35H126.757C131.158 35 134.198 31.94 134.198 28V27.96C134.198 24.02 131.158 21 126.757 21H121.537V35ZM126.757 23.24C129.697 23.24 131.618 25.26 131.618 28V28.04C131.618 30.78 129.697 32.76 126.757 32.76H123.997V23.24H126.757ZM137.282 35H147.762V32.8H139.742V29.06H146.762V26.84H139.742V23.2H147.662V21H137.282V35ZM156.877 35H167.357V32.8H159.337V29.06H166.357V26.84H159.337V23.2H167.257V21H156.877V35ZM175.275 35.2C178.215 35.2 180.275 33.64 180.275 31.02V30.98C180.275 28.66 178.755 27.6 175.795 26.88C173.095 26.24 172.455 25.76 172.455 24.68V24.64C172.455 23.72 173.295 22.98 174.735 22.98C176.015 22.98 177.275 23.48 178.535 24.42L179.855 22.56C178.435 21.42 176.815 20.8 174.775 20.8C171.995 20.8 169.995 22.46 169.995 24.86V24.9C169.995 27.48 171.675 28.36 174.655 29.08C177.255 29.68 177.815 30.22 177.815 31.22V31.26C177.815 32.3 176.855 33.02 175.335 33.02C173.615 33.02 172.255 32.36 170.915 31.2L169.435 32.96C171.115 34.46 173.135 35.2 175.275 35.2ZM186.415 35H188.875V23.28H193.335V21H181.955V23.28H186.415V35ZM201.725 35.22C205.385 35.22 207.745 33.12 207.745 28.94V21H205.285V29.06C205.285 31.64 203.945 32.94 201.765 32.94C199.565 32.94 198.225 31.56 198.225 28.96V21H195.765V29.06C195.765 33.12 198.085 35.22 201.725 35.22ZM211.222 35H216.442C220.842 35 223.882 31.94 223.882 28V27.96C223.882 24.02 220.842 21 216.442 21H211.222V35ZM216.442 23.24C219.382 23.24 221.302 25.26 221.302 28V28.04C221.302 30.78 219.382 32.76 216.442 32.76H213.682V23.24H216.442ZM227.106 35H229.566V21H227.106V35ZM240.094 35.24C244.394 35.24 247.434 31.94 247.434 28V27.96C247.434 24.02 244.434 20.76 240.134 20.76C235.834 20.76 232.794 24.06 232.794 28V28.04C232.794 31.98 235.794 35.24 240.094 35.24ZM240.134 32.96C237.354 32.96 235.374 30.72 235.374 28V27.96C235.374 25.24 237.314 23.04 240.094 23.04C242.874 23.04 244.854 25.28 244.854 28V28.04C244.854 30.76 242.914 32.96 240.134 32.96Z" fill="white"/>
</svg>
