<svg width="22" height="17" viewBox="0 0 22 17" fill="none" xmlns="http://www.w3.org/2000/svg">
<path d="M18.995 2.6881C19.8914 2.15218 20.5622 1.30833 20.882 0.314095C20.0397 0.813916 19.1181 1.16599 18.157 1.3551C17.5088 0.669445 16.6532 0.216014 15.7219 0.0646971C14.7905 -0.0866199 13.8353 0.0725781 13.0034 0.517751C12.1715 0.962924 11.5091 1.66936 11.1184 2.52816C10.7276 3.38695 10.6301 4.35044 10.841 5.2701C9.1349 5.18444 7.46586 4.74097 5.94223 3.96848C4.41861 3.19599 3.07445 2.11173 1.99702 0.786095C1.44908 1.7312 1.28141 2.84943 1.52806 3.91367C1.77472 4.97792 2.41719 5.90838 3.32502 6.5161C2.64373 6.49419 1.97754 6.30973 1.38202 5.9781V6.03209C1.38221 7.02307 1.72515 7.98347 2.35268 8.75043C2.98021 9.5174 3.8537 10.0437 4.82502 10.2401C4.19308 10.412 3.53022 10.4373 2.88702 10.3141C3.16175 11.1664 3.69572 11.9117 4.41442 12.4459C5.13312 12.9802 6.00068 13.2767 6.89602 13.2941C5.37585 14.4872 3.49849 15.1343 1.56602 15.1311C1.22302 15.1311 0.881016 15.1111 0.541016 15.0721C2.50343 16.3331 4.78739 17.0024 7.12002 17.0001C8.72662 17.0111 10.3194 16.7028 11.8058 16.093C13.2923 15.4833 14.6427 14.5842 15.7787 13.4481C16.9148 12.312 17.8137 10.9615 18.4233 9.47499C19.033 7.98851 19.3412 6.3957 19.33 4.78909C19.33 4.6031 19.326 4.4181 19.317 4.2341C20.1575 3.62671 20.8828 2.87426 21.459 2.0121C20.676 2.35914 19.8455 2.587 18.995 2.6881Z" fill="white"/>
</svg>
