<svg width="30" height="38" viewBox="0 0 30 38" fill="none" xmlns="http://www.w3.org/2000/svg">
<path d="M17.6236 32.8055C24.0467 32.8055 29.2472 25.4667 29.2472 16.4027C29.2472 7.33874 24.0467 0 17.6236 0C11.2005 0 6 7.33874 6 16.4027C6.01825 25.4667 11.2188 32.8055 17.6236 32.8055Z" fill="#F7AE38"/>
<path d="M11.9899 37.7945C9.61777 37.7945 7.30035 36.816 5.32963 34.9363C3.3589 33.0823 1.82611 30.4557 0.913743 27.3657C0.00137094 24.2757 -0.235848 20.8767 0.238585 17.6065C0.694771 14.3362 1.84436 11.3235 3.52312 8.9545C5.20189 6.5855 7.33683 4.989 9.65426 4.3195C11.9717 3.67575 14.3804 4.01049 16.57 5.27224C18.7597 6.55974 20.621 8.72276 21.9348 11.5038C23.2486 14.2848 23.9603 17.555 23.9603 20.9025C23.9603 25.383 22.7012 29.6833 20.4567 32.8505C18.2123 36.0178 15.165 37.7945 11.9899 37.7945ZM11.9899 5.01474C9.76375 5.01474 7.5923 5.94174 5.73106 7.69274C3.86982 9.44374 2.42828 11.9158 1.5889 14.8255C0.731271 17.7353 0.512301 20.9282 0.95024 24.0182C1.38818 27.1082 2.46477 29.9407 4.03405 32.1552C5.60333 34.3697 7.61055 35.889 9.80025 36.507C11.9899 37.125 14.2526 36.816 16.3146 35.6057C18.3765 34.3955 20.1283 32.3613 21.3691 29.7605C22.6099 27.1598 23.2669 24.0697 23.2669 20.9282C23.2669 16.7052 22.0808 12.6625 19.9641 9.67551C17.8474 6.68851 14.9825 5.01474 11.9899 5.01474Z" fill="#011826"/>
</svg>
