<svg width="530" height="332" viewBox="0 0 530 332" fill="none" xmlns="http://www.w3.org/2000/svg">
<path d="M193.977 92.2359C196.879 89.1708 200.982 87.2601 205.532 87.2601H330.287C340.687 87.2601 349.118 95.7057 349.118 106.123V171.445C349.118 175.165 347.846 178.587 345.715 181.301" stroke="#011826" stroke-width="2" stroke-miterlimit="10"/>
<path d="M198.943 87.2602C201.846 84.1951 205.949 82.2844 210.499 82.2844H331.174C343.827 82.2844 354.083 92.5594 354.083 105.233V166.468C354.083 170.188 352.811 173.61 350.68 176.323" stroke="#011826" stroke-width="2" stroke-miterlimit="10"/>
<path d="M328.39 192.373H200.728C191.933 192.373 184.804 185.231 184.804 176.421V108.188C184.804 99.3779 191.933 92.236 200.728 92.236H328.39C337.185 92.236 344.314 99.3779 344.314 108.188V176.421C344.314 185.231 337.185 192.373 328.39 192.373Z" stroke="#011826" stroke-width="2" stroke-miterlimit="10"/>
<path d="M322.409 101.211L328.166 106.976" stroke="#5D9EA6" stroke-width="2" stroke-miterlimit="10"/>
<path d="M322.409 106.976L328.166 101.211" stroke="#5D9EA6" stroke-width="2" stroke-miterlimit="10"/>
<path d="M219.129 140.972C229.195 140.972 237.355 132.798 237.355 122.714C237.355 112.631 229.195 104.456 219.129 104.456C209.062 104.456 200.902 112.631 200.902 122.714C200.902 132.798 209.062 140.972 219.129 140.972Z" fill="white"/>
<path d="M226.86 118.138C227.993 113.864 225.454 109.48 221.187 108.345C216.921 107.21 212.545 109.754 211.411 114.028C210.278 118.301 212.818 122.686 217.084 123.821C221.35 124.956 225.727 122.411 226.86 118.138Z" fill="#A8BBBF"/>
<path d="M219.128 140.972C227.252 140.972 233.838 137.624 233.838 133.495C233.838 129.366 227.252 126.018 219.128 126.018C211.005 126.018 204.419 129.366 204.419 133.495C204.419 137.624 211.005 140.972 219.128 140.972Z" fill="#A8BBBF"/>
<path d="M205.214 149.192H200.902V153.511H205.214V149.192Z" stroke="white" stroke-width="5" stroke-miterlimit="10"/>
<path d="M205.214 161.195H200.902V165.514H205.214V161.195Z" stroke="white" stroke-width="5" stroke-miterlimit="10"/>
<path d="M205.214 173.2H200.902V177.519H205.214V173.2Z" stroke="white" stroke-width="5" stroke-miterlimit="10"/>
<path d="M259.316 149.192H210.785V153.511H259.316V149.192Z" fill="#F7AE38"/>
<path d="M259.316 161.195H210.785V165.514H259.316V161.195Z" fill="#F7AE38"/>
<path d="M235.492 173.2H210.785V177.519H235.492V173.2Z" fill="#F7AE38"/>
<path d="M363.502 46.4556H173.159C165.374 46.4556 159.062 52.7781 159.062 60.5768V74.3298H377.598V60.5768C377.599 52.7765 371.288 46.4556 363.502 46.4556Z" fill="#011826"/>
<path d="M377.599 272.626H159.063V60.5751C159.063 52.7764 165.375 46.4539 173.16 46.4539H363.504C371.289 46.4539 377.601 52.7764 377.601 60.5751V272.626H377.599Z" stroke="#011826" stroke-width="5" stroke-miterlimit="10"/>
<path d="M407.04 108.215C407.04 108.79 406.574 109.256 406 109.256C405.425 109.256 404.96 108.79 404.96 108.215C404.96 107.639 405.425 107.173 406 107.173C406.574 107.173 407.04 107.639 407.04 108.215Z" fill="white"/>
<path d="M392.855 93.2467C394.02 93.218 394.941 92.249 394.912 91.0823C394.883 89.9156 393.916 88.9932 392.751 89.0219C391.587 89.0506 390.666 90.0196 390.694 91.1863C390.723 92.3529 391.69 93.2754 392.855 93.2467Z" fill="#F7AE38"/>
<path d="M415.08 90.1245C416.019 90.1245 416.78 89.3619 416.78 88.4211C416.78 87.4804 416.019 86.7178 415.08 86.7178C414.141 86.7178 413.379 87.4804 413.379 88.4211C413.379 89.3619 414.141 90.1245 415.08 90.1245Z" fill="white"/>
<path d="M319.086 239.758L316.455 272.644H297.055L294.422 239.758H319.086Z" fill="#F7AE38"/>
<path d="M306.754 242.451C313.565 242.451 319.086 241.29 319.086 239.859C319.086 238.427 313.565 237.266 306.754 237.266C299.944 237.266 294.422 238.427 294.422 239.859C294.422 241.29 299.944 242.451 306.754 242.451Z" fill="#E0E4F0"/>
<path d="M306.754 242.451C313.565 242.451 319.086 241.29 319.086 239.859C319.086 238.427 313.565 237.266 306.754 237.266C299.944 237.266 294.422 238.427 294.422 239.859C294.422 241.29 299.944 242.451 306.754 242.451Z" stroke="#040A2E" stroke-width="5" stroke-miterlimit="10"/>
<path d="M306.754 239.777C311.258 239.777 314.908 239.01 314.908 238.064C314.908 237.118 311.258 236.351 306.754 236.351C302.25 236.351 298.6 237.118 298.6 238.064C298.6 239.01 302.25 239.777 306.754 239.777Z" fill="white"/>
<path d="M306.754 239.777C311.258 239.777 314.908 239.01 314.908 238.064C314.908 237.118 311.258 236.351 306.754 236.351C302.25 236.351 298.6 237.118 298.6 238.064C298.6 239.01 302.25 239.777 306.754 239.777Z" stroke="#040A2E" stroke-width="5" stroke-miterlimit="10"/>
<path d="M314.91 238.064V239.758" stroke="#040A2E" stroke-width="5" stroke-miterlimit="10"/>
<path d="M298.6 238.064V239.758" stroke="#040A2E" stroke-width="5" stroke-miterlimit="10"/>
<path d="M296.204 262.009C299.328 262.376 302.925 262.583 306.754 262.583C310.584 262.583 314.182 262.374 317.304 262.009L318.197 250.87C314.874 251.305 310.955 251.555 306.754 251.555C302.554 251.555 298.635 251.305 295.312 250.87L296.204 262.009Z" fill="white"/>
<path d="M306.754 260.437C308.786 260.437 310.433 258.787 310.433 256.752C310.433 254.716 308.786 253.066 306.754 253.066C304.722 253.066 303.075 254.716 303.075 256.752C303.075 258.787 304.722 260.437 306.754 260.437Z" fill="#885A34"/>
<path d="M320.41 126.015L298.058 163.305L277.64 132.052C277.64 132.052 280.683 116.552 278.401 111.471C276.118 106.389 271.514 122.411 271.514 122.411C271.514 122.411 259.831 109.328 254.508 109.153C253.688 109.127 253.028 109.809 253.125 110.625C253.2 111.24 253.586 112.073 254.685 113.122C254.685 113.122 250.075 109.142 248.723 110.666C248.723 110.666 246.653 113.164 251.895 116.425C251.895 116.425 247.588 113.511 246.146 115.768C244.794 117.886 249.507 120.321 249.507 120.321L256.897 125.207C256.909 125.215 256.9 125.232 256.887 125.229C255.98 124.947 247.728 122.444 245.901 124.364C244.491 125.849 249.855 128.078 252.854 129.173C254.016 129.597 254.98 130.438 255.554 131.534C256.869 134.042 256.061 137.043 263.753 143.903L274.751 187.839C279.133 205.35 301.908 209.812 312.552 195.244L348.589 145.933L320.41 126.015Z" fill="#83655D"/>
<path d="M347.014 147.748C353.752 140.999 353.752 130.055 347.014 123.305C340.276 116.555 329.351 116.555 322.613 123.305C315.875 130.055 315.875 140.999 322.613 147.748C329.351 154.498 340.276 154.498 347.014 147.748Z" fill="#FC7318"/>
<path d="M320.411 126.015L330.017 212.596H423.233L426.766 131.229L411.739 118.163L379.765 111.925L358.933 112.738L329.792 118.987L320.411 126.015Z" fill="#FC7318"/>
<path d="M319.637 127.303L301.166 157.724L319.068 186.333L348.591 145.936L319.637 127.303Z" fill="#FC7318"/>
<path d="M408.775 212.596H423.232L424.626 180.202L406 158.453L408.775 212.596Z" fill="#040A2E"/>
<path d="M329.904 212.596L337.756 272.626H437.266L423.333 212.596H329.904Z" fill="#68E1FD"/>
<path d="M437.266 272.626L423.333 212.596H329.904L337.756 272.626" stroke="white" stroke-width="5" stroke-miterlimit="10"/>
<path d="M378.503 242.612L376.998 272.626H388.754L378.503 242.612Z" fill="#040A2E"/>
<path d="M388.754 272.626L378.503 242.612L367.348 238.202L362.234 224.961" stroke="white" stroke-width="5" stroke-miterlimit="10"/>
<path d="M406.803 243.871L415.419 272.015" stroke="white" stroke-width="5" stroke-miterlimit="10"/>
<path d="M395.794 148.147L428.178 191.244L403.786 234.039L407.258 237.819L411.682 240.008H424.776L460.102 203.614C466.06 197.477 466.872 187.985 462.046 180.921L423.191 124.054L395.794 148.147Z" fill="#83655D"/>
<path d="M422.258 147.591C428.996 140.841 428.996 129.897 422.258 123.147C415.52 116.397 404.595 116.397 397.857 123.147C391.119 129.897 391.119 140.841 397.857 147.591C404.595 154.34 415.52 154.34 422.258 147.591Z" fill="#FC7318"/>
<path d="M394.633 147.256L421.299 182.032L448.487 160.975L423.19 124.054L394.633 147.256Z" fill="#FC7318"/>
<path d="M327.229 187.469L327.401 189.021H407.566L407.435 187.469H327.229Z" fill="#FD8F46"/>
<path d="M332.616 118.382C331.649 118.505 330.707 118.71 329.798 118.986L329.792 118.987L329.79 118.989C329.154 119.183 328.535 119.414 327.932 119.676H417.29C415.54 118.868 413.662 118.355 411.738 118.165L411.737 118.163L411.526 118.121H333.823L332.616 118.382Z" fill="#FD8F46"/>
<path d="M303.393 161.283H448.09L448.487 160.974L447.634 159.73H302.421L303.393 161.283Z" fill="#FD8F46"/>
<path d="M408.276 202.89L408.197 201.338H328.767L328.94 202.89H408.276Z" fill="#FD8F46"/>
<path d="M316.791 131.992L315.847 133.545H429.691L428.628 131.992H316.791Z" fill="#FD8F46"/>
<path d="M311.1 173.6L312.07 175.152H406.836V173.6H311.1Z" fill="#FD8F46"/>
<path d="M415.08 173.6L416.05 175.152H430.181L432.187 173.6H415.08Z" fill="#FD8F46"/>
<path d="M308.368 145.861L307.426 147.414H439.195L438.131 145.861H308.368Z" fill="#FD8F46"/>
<path d="M421.298 182.032L404.415 159.993" stroke="#F7AE38" stroke-width="5" stroke-miterlimit="10"/>
<path d="M396.597 216.239L402.991 232.403C404.807 236.994 409.236 240.008 414.166 240.008H426.764" stroke="white" stroke-width="5" stroke-miterlimit="10"/>
<path d="M412.204 219.247L412.675 219.63C413.695 220.634 414.344 221.954 414.52 223.374L414.563 223.731L421.595 216.343L421.166 216.302C419.744 216.162 418.411 215.545 417.383 214.55L415.71 212.913L412.204 219.247Z" fill="#F7AE38"/>
<path d="M429.451 235.19L428.819 234.623C427.743 233.68 426.38 233.13 424.953 233.062L424.595 233.045L431.418 225.465L431.493 225.892C431.738 227.302 432.453 228.587 433.521 229.539L434.256 230.206L429.451 235.19Z" fill="#F7AE38"/>
<path d="M423.537 217.108L430.488 223.417C431.728 224.543 431.824 226.481 430.7 227.724L426.776 232.063C425.652 233.306 423.718 233.402 422.476 232.276L415.525 225.966C414.285 224.84 414.189 222.903 415.313 221.659L419.237 217.32C420.362 216.078 422.295 215.982 423.537 217.108Z" fill="#E0E4F0"/>
<path d="M430.41 226.645C430.315 226.845 430.193 227.029 430.044 227.195L426.186 231.461C425.784 231.906 425.231 232.166 424.628 232.196C424.025 232.226 423.449 232.02 423.005 231.619L416.127 225.377C415.401 224.717 415.185 223.634 415.604 222.74C415.699 222.54 415.821 222.356 415.97 222.19L419.828 217.924C420.663 217.002 422.088 216.932 423.009 217.766L429.887 224.008C430.613 224.668 430.827 225.752 430.41 226.645Z" fill="#040A2E"/>
<path d="M389.835 113.506L366.099 159.993L346.997 115.297" stroke="white" stroke-width="2" stroke-miterlimit="10"/>
<path d="M376.838 177.111H355.611C354.49 177.111 353.583 176.2 353.583 175.079V160.417C353.583 159.294 354.492 158.385 355.611 158.385H376.838C377.959 158.385 378.866 159.296 378.866 160.417V175.079C378.866 176.2 377.959 177.111 376.838 177.111Z" fill="white"/>
<path d="M361.562 166.921H357.445C356.954 166.921 356.555 166.521 356.555 166.028V161.905C356.555 161.412 356.954 161.013 357.445 161.013H361.562C362.053 161.013 362.452 161.412 362.452 161.905V166.028C362.452 166.523 362.053 166.921 361.562 166.921Z" fill="#FFD500"/>
<path d="M378.866 168.599H353.583V172.792H378.866V168.599Z" fill="#00509D"/>
<path d="M326.449 176.232L325.12 162.668L319.068 186.333L326.449 176.232Z" fill="#040A2E"/>
<path d="M324.877 160.21L330.017 212.596" stroke="#F7AE38" stroke-width="5" stroke-miterlimit="10"/>
<path d="M354.742 87.4508C354.742 87.4508 359.148 109.367 357.729 119.314C356.31 129.261 366.807 128.977 366.807 128.977C366.807 128.977 387.235 128.693 378.44 111.925C378.44 111.925 372.763 97.9663 373.115 87.4508H354.742Z" fill="#83655D"/>
<path d="M356.411 97.1652L357.596 106.747C363.136 105.385 367.582 101.257 369.358 95.8267L370.897 91.1279L356.411 97.1652Z" fill="#040A2E"/>
<path d="M359.303 98.3843C353.937 99.8471 347.932 98.371 348.483 92.4946C349.329 83.4769 350.538 72.9846 351.899 68.3323C354.522 59.3659 366.989 65.715 366.989 65.715C366.989 65.715 375.241 82.5315 373.115 87.4508C369.403 96.044 359.303 98.3843 359.303 98.3843Z" fill="#83655D"/>
<path d="M357.282 71.6727C357.373 72.3195 357.118 72.8901 356.712 72.9465C356.307 73.0029 355.904 72.5252 355.813 71.88C355.722 71.2332 355.977 70.6626 356.383 70.6062C356.789 70.5482 357.191 71.0258 357.282 71.6727Z" fill="#040A2E"/>
<path d="M351.979 72.0774C351.861 71.7224 351.384 71.666 351.185 71.9828C351.185 71.9828 349.763 74.0163 347.879 78.3701C347.556 79.1148 348.149 79.9042 348.916 79.6356L352.035 78.5409C353.136 78.1544 353.724 76.9536 353.354 75.844L351.979 72.0774Z" fill="#FC7318"/>
<path d="M373.245 87.0877C373.264 87.0213 373.284 86.9533 373.301 86.8837C373.309 86.8472 373.317 86.8107 373.326 86.7742C373.341 86.7045 373.356 86.6316 373.367 86.5586C373.374 86.5221 373.38 86.4873 373.385 86.4508C373.399 86.3629 373.41 86.2716 373.42 86.1788C373.422 86.1572 373.425 86.1356 373.428 86.1124C373.44 85.9947 373.448 85.8736 373.455 85.7492C373.457 85.7276 373.457 85.7061 373.457 85.6845C373.46 85.5817 373.463 85.4755 373.463 85.3694C373.463 85.3329 373.463 85.2964 373.463 85.2616C373.462 85.1637 373.46 85.0642 373.457 84.9647C373.455 84.9282 373.453 84.8917 373.452 84.8552C373.447 84.7424 373.44 84.6296 373.432 84.5135C373.43 84.4903 373.428 84.4654 373.427 84.4422C373.404 84.1503 373.37 83.8484 373.327 83.5383C373.326 83.5234 373.322 83.5084 373.321 83.4935C373.301 83.3542 373.279 83.2115 373.256 83.0689C373.253 83.0457 373.248 83.0225 373.245 82.9992C373.221 82.8549 373.195 82.709 373.168 82.5614C373.165 82.5481 373.163 82.5348 373.162 82.5216C373.036 81.8482 372.875 81.1449 372.687 80.4235C372.39 80.3455 372.057 80.3505 371.754 80.4085C371.2 80.5163 370.672 80.7585 370.107 80.8016C369.158 80.8729 368.223 80.3422 367.675 79.5643C367.127 78.7864 366.935 77.7946 366.999 76.8442C366.999 76.8525 365.228 76.8011 364.969 76.9935C364.055 77.6785 363.911 79.9922 363.496 81.0305C363.274 81.5845 363.009 82.1517 362.539 82.5199C362.025 82.9229 361.342 83.0291 360.691 83.0606C359.711 83.1071 358.726 83.0175 357.77 82.7919C356.785 82.5597 355.836 82.1865 354.846 81.9759C353.31 81.6491 351.722 81.7205 350.152 81.7934C349.975 81.8017 349.793 81.8133 349.611 81.8299C349.189 85.3262 348.809 89.0199 348.482 92.4963C348.331 94.1002 348.67 95.374 349.349 96.3526C349.462 96.5035 349.578 96.6528 349.7 96.7987C351.483 98.8056 354.909 99.2999 358.267 98.6315C358.287 98.6281 358.305 98.6232 358.323 98.6198C358.383 98.6082 358.442 98.595 358.5 98.5817C358.548 98.5717 358.596 98.5601 358.643 98.5502C358.683 98.5419 358.722 98.5319 358.762 98.5236C358.827 98.5087 358.889 98.4938 358.952 98.4772C358.979 98.4706 359.005 98.4639 359.034 98.4573C359.123 98.4341 359.212 98.4109 359.3 98.3876H359.302C359.302 98.3876 365.969 96.8418 370.461 91.6538C371.498 90.4563 372.418 89.0647 373.114 87.4542C373.152 87.368 373.185 87.2767 373.216 87.1822C373.226 87.149 373.236 87.1175 373.245 87.0877Z" fill="#624C46"/>
<path d="M375.064 87.8904C375.66 87.6134 376.15 87.0478 376.447 86.4408C377.586 84.1055 376.67 81.2908 377.175 78.7416C377.526 76.9719 378.564 75.1822 377.975 73.4756C377.534 72.2034 376.269 71.3327 375.904 70.0356C375.634 69.0803 375.904 68.0669 376.053 67.085C376.202 66.1031 376.185 64.9803 375.495 64.2671C374.556 63.2951 372.807 63.5273 371.895 62.5305C371.016 61.5702 371.332 59.9232 370.479 58.9413C369.541 57.8616 367.795 58.1883 366.489 58.7705C365.183 59.3527 363.744 60.1123 362.404 59.6131C361.337 59.215 360.694 58.1253 359.734 57.5116C358.555 56.7586 356.902 56.8465 355.808 57.7189C354.798 58.525 354.268 59.8884 353.118 60.4755C351.937 61.0759 350.488 60.6663 349.21 61.0146C347.981 61.3496 347.011 62.4028 346.634 63.6202C345.768 66.405 348.319 71.1137 351.664 69.0869C352.795 68.4019 353.621 66.9656 354.942 67.0236C355.906 67.0651 356.613 67.9126 357.469 68.3571C358.439 68.8597 359.669 68.8166 360.601 68.2444C361.135 67.9176 361.793 67.4217 362.295 67.7965C362.507 67.9541 362.597 68.2245 362.673 68.4782C363.381 70.86 363.825 73.3196 363.992 75.7976C364.042 76.5307 364.073 77.2887 364.398 77.9471C364.722 78.6056 365.434 79.138 366.155 78.9987C367.122 78.8112 367.509 77.6054 367.43 76.6219C367.348 75.6234 366.988 74.6664 366.878 73.6696C366.769 72.6728 366.981 71.5416 367.787 70.9495C368.931 75.7843 370.077 80.6307 371.72 85.3195C372.153 86.5585 372.887 87.9915 374.195 88.0662C374.501 88.0828 374.794 88.0164 375.064 87.8904Z" fill="#040A2E"/>
<path d="M366.502 72.2632C366.502 72.2632 368.522 67.2094 371.335 70.4221C374.149 73.6348 376.304 77.4695 373.826 79.561C371.347 81.6541 367.655 80.5959 367.655 80.5959L366.502 72.2632Z" fill="#83655D"/>
<path d="M368.64 76.0679L370.99 74.7427" stroke="#040A2E" stroke-width="5" stroke-miterlimit="10"/>
<path d="M352.046 96.4089V94.3639" stroke="#040A2E" stroke-width="5" stroke-miterlimit="10"/>
<path d="M184.739 192.161L213.477 225.542L271.797 230.556V253.517L200.98 252.958C199.122 252.943 197.332 252.26 195.937 251.033L159.981 219.403L184.739 192.161Z" fill="#E3ABC6"/>
<path d="M171.525 223.624C181.793 223.624 190.117 215.286 190.117 205C190.117 194.714 181.793 186.376 171.525 186.376C161.257 186.376 152.933 194.714 152.933 205C152.933 215.286 161.257 223.624 171.525 223.624Z" fill="#024059"/>
<path d="M176.682 187.102L181.147 220.938V272.626H107.233L104.905 214.738L114.203 187.565L135.698 180.201H152.454L176.682 187.102Z" fill="#024059"/>
<path d="M106.142 250.711C106.118 250.129 127.338 226.414 127.338 226.414V250.799L106.142 250.711Z" fill="#040A2E"/>
<path d="M169.812 260.483C169.812 260.483 175.785 249.047 180.836 253.164C185.888 257.281 189.59 263.907 186.747 264.165C183.904 264.424 179.184 259.307 179.184 259.307L175.185 264.21L169.812 260.483Z" fill="#E3ABC6"/>
<path d="M104.994 195.12L66.815 244.803C58.0828 256.168 66.1693 272.627 80.4863 272.627H183.828C186.557 272.627 187.767 269.189 185.641 267.476L172.299 256.715L162.885 253.514C158.211 251.925 153.312 251.094 148.376 251.054L106.145 250.712L135.115 216.799L104.994 195.12Z" fill="#E3ABC6"/>
<path d="M216.688 272.626H166.046C164.821 272.626 163.826 271.631 163.826 270.402V265.628H216.688V272.626Z" fill="#131D48"/>
<path d="M272.098 272.626H193.958L210.199 229.542C211.674 225.628 215.416 223.037 219.592 223.037H282.917C286.723 223.037 289.354 226.85 288.01 230.416L272.098 272.626Z" fill="#192760"/>
<path d="M278.994 241.428L277.451 245.523" stroke="white" stroke-width="5" stroke-miterlimit="10"/>
<path d="M200.038 270.291L211.837 238.991L214.188 232.757C215.473 229.347 218.733 227.089 222.372 227.089H277.539C280.856 227.089 283.147 230.412 281.976 233.518L279.922 238.968" stroke="white" stroke-width="2" stroke-miterlimit="10"/>
<path d="M244.456 252.482C246.54 251.112 247.12 248.308 245.752 246.221C244.384 244.133 241.586 243.552 239.502 244.922C237.418 246.293 236.838 249.096 238.206 251.184C239.574 253.271 242.372 253.852 244.456 252.482Z" fill="white"/>
<path d="M120.755 223.624C131.023 223.624 139.347 215.286 139.347 205C139.347 194.714 131.023 186.376 120.755 186.376C110.487 186.376 102.163 194.714 102.163 205C102.163 215.286 110.487 223.624 120.755 223.624Z" fill="#024059"/>
<path d="M106.347 193.229L79.021 228.917L106.142 250.711L137.645 214.602L106.347 193.229Z" fill="#024059"/>
<path d="M106.142 250.711L128.514 225.067" stroke="#4481FF" stroke-width="2" stroke-miterlimit="10"/>
<path d="M113.218 250.797L101.158 250.6" stroke="#040A2E" stroke-width="5" stroke-miterlimit="10"/>
<path d="M184.352 191.517L210.045 221.555L190.804 246.518L165.038 225.067L184.352 191.517Z" fill="#024059"/>
<path d="M181.147 238.479L181.263 223.624L190.804 246.518L181.147 238.479Z" fill="#040A2E"/>
<path d="M181.147 251.761V220.938" stroke="#4481FF" stroke-width="2" stroke-miterlimit="10"/>
<path d="M186.749 264.167C186.749 264.167 185.218 265.27 179.186 259.309L177.73 261.094" stroke="#040A2E" stroke-width="5" stroke-miterlimit="10"/>
<path d="M177.73 257.732C177.73 257.732 178.779 258.977 179.962 260.06" stroke="#040A2E" stroke-width="5" stroke-miterlimit="10"/>
<path d="M184.587 266.623L177.045 260.54C173.75 257.881 170.015 255.819 166.008 254.463C162.928 253.419 159.446 252.338 157.372 252.011" stroke="#040A2E" stroke-width="5" stroke-miterlimit="10"/>
<path d="M178.775 266.623C178.775 266.623 176.79 264.55 175.227 264.422" stroke="#040A2E" stroke-width="5" stroke-miterlimit="10"/>
<path d="M163.825 183.873L156.954 221.971L128.514 182.662" stroke="white" stroke-width="2" stroke-miterlimit="10"/>
<path d="M167.566 237.29H146.339C145.218 237.29 144.311 236.379 144.311 235.258V220.596C144.311 219.473 145.22 218.564 146.339 218.564H167.566C168.687 218.564 169.594 219.475 169.594 220.596V235.258C169.596 236.381 168.687 237.29 167.566 237.29Z" fill="white"/>
<path d="M152.292 227.101H148.175C147.684 227.101 147.285 226.701 147.285 226.209V222.085C147.285 221.593 147.684 221.193 148.175 221.193H152.292C152.783 221.193 153.182 221.593 153.182 222.085V226.209C153.181 226.701 152.783 227.101 152.292 227.101Z" fill="#F7AE38"/>
<path d="M169.595 228.778H144.312V232.971H169.595V228.778Z" fill="#FC7318"/>
<path d="M117.72 129.251C115.531 127.196 112.145 126.028 109.485 127.42C107.387 128.516 106.251 130.962 106.15 133.331C105.999 136.865 107.98 140.406 111.066 142.125C114.003 143.76 119.025 145.228 120.866 141.408C122.742 137.517 120.654 132.006 117.72 129.251Z" fill="#040A2E"/>
<path d="M155.818 163.03C155.818 163.03 156.915 181.077 157.958 190.786C158.694 197.643 152.437 198.024 152.437 198.024C152.437 198.024 136.36 199.275 139.541 188.748C139.943 187.417 140.289 186.072 140.531 184.704C141.404 179.775 144.012 169.72 143.273 164.325L155.818 163.03Z" fill="#E3ABC6"/>
<path d="M149.247 170.037L156.272 170.463L156.954 179.625C156.954 179.627 150.308 176.029 149.247 170.037Z" fill="#040A2E"/>
<path d="M141.306 169.43C141.306 169.43 160.438 173.58 164.359 166.551C167.145 161.555 160.345 149.144 156.18 142.387C154.135 139.071 150.688 136.872 146.82 136.449C141.742 135.893 134.665 137.22 135.821 144.681C137.751 157.18 141.306 169.43 141.306 169.43Z" fill="#E3ABC6"/>
<path d="M159.246 148.185C160.527 149.6 162.254 150.708 166.127 152.665C166.963 153.088 166.958 154.284 166.118 154.697L162.521 155.684C161.504 155.962 160.441 155.431 160.05 154.451L158.072 149.479C157.782 148.092 158.726 147.61 159.246 148.185Z" fill="#FDC500"/>
<path d="M154.726 150.315C154.934 150.991 154.759 151.647 154.333 151.778C153.908 151.909 153.396 151.466 153.187 150.789C152.979 150.112 153.154 149.457 153.58 149.326C154.005 149.195 154.517 149.638 154.726 150.315Z" fill="#040A2E"/>
<path d="M158.683 125.068C156.472 122.26 153.507 119.929 150.043 119.064C146.579 118.199 142.604 118.994 140.134 121.575C138.642 123.134 137.786 125.192 136.451 126.887C133.481 130.654 128.588 132.168 124.255 134.221C119.924 136.273 115.49 139.796 115.402 144.596C115.301 150.199 121.222 154.7 120.714 160.281C120.288 164.955 115.674 167.881 112.738 171.54C108.009 177.433 107.686 186.339 111.599 192.805C115.511 199.27 123.234 203.073 130.772 202.696C138.311 202.32 145.437 197.973 149.646 191.695C150.652 190.194 151.51 188.573 151.984 186.829C153.383 181.665 151.227 176.154 148.144 171.785C147.02 170.193 145.97 168.573 144.367 167.45C142.963 166.466 141.374 165.652 140.337 164.237C139.309 162.832 139.023 160.933 139.509 159.269C140.006 157.569 141.188 156.259 140.485 154.343C139.943 152.872 138.882 151.686 138.122 150.335C137.832 149.82 137.585 149.257 137.594 148.666C137.602 148.076 137.928 147.457 138.486 147.265C138.951 147.105 139.458 147.263 139.923 147.421C141.473 147.945 143.031 147.812 144.66 147.824C147.127 147.84 149.601 147.669 151.994 147.039C156.128 145.951 160.067 143.306 161.683 139.34C163.605 134.62 161.833 129.07 158.683 125.068Z" fill="#040A2E"/>
<path d="M142.521 154.99C142.521 154.99 138.044 150.187 136.594 153.783C135.143 157.379 134.445 161.311 137.195 162.359C139.945 163.408 142.789 161.394 142.789 161.394L142.521 154.99Z" fill="#E3ABC6"/>
<path d="M140.591 157.812L138.182 157.382" stroke="#040A2E" stroke-width="5" stroke-miterlimit="10"/>
<path d="M143.453 162.763C143.829 161.762 143.323 160.645 142.324 160.268C141.324 159.891 140.209 160.397 139.833 161.398C139.456 162.4 139.962 163.517 140.961 163.894C141.961 164.271 143.076 163.765 143.453 162.763Z" fill="#FDC500"/>
<path d="M184.409 62.5661C185.608 61.3652 185.608 59.4182 184.409 58.2174C183.21 57.0165 181.266 57.0165 180.068 58.2174C178.869 59.4182 178.869 61.3652 180.068 62.5661C181.266 63.7669 183.21 63.7669 184.409 62.5661Z" fill="white"/>
<path d="M198.676 62.5661C199.875 61.3652 199.875 59.4182 198.676 58.2174C197.477 57.0165 195.533 57.0165 194.335 58.2174C193.136 59.4182 193.136 61.3652 194.335 62.5661C195.533 63.7669 197.477 63.7669 198.676 62.5661Z" fill="white"/>
<path d="M213.756 61.0838C214.142 59.4302 213.117 57.7759 211.466 57.3889C209.816 57.0018 208.164 58.0286 207.778 59.6822C207.391 61.3359 208.416 62.9901 210.067 63.3772C211.718 63.7642 213.369 62.7375 213.756 61.0838Z" fill="white"/>
<path d="M399.014 57.5249H426.37C431.364 57.5249 435.41 61.5802 435.41 66.5808C435.41 71.5831 431.362 75.6367 426.37 75.6367H406.323C399.849 82.0223 394.628 80.5942 394.628 80.5942C397.296 79.3039 398.559 77.365 399.143 75.6367H399.014C394.021 75.6367 389.974 71.5815 389.974 66.5808C389.974 61.5802 394.022 57.5249 399.014 57.5249Z" fill="#A8BBBF"/>
<path d="M399.971 65.2506H425.415C426.536 65.2506 427.445 64.34 427.445 63.2171C427.445 62.0943 426.536 61.1837 425.415 61.1837H399.971C398.85 61.1837 397.941 62.0943 397.941 63.2171C397.943 64.34 398.85 65.2506 399.971 65.2506Z" fill="white"/>
<path d="M413.63 71.885H425.415C426.536 71.885 427.445 70.9744 427.445 69.8515C427.445 68.7287 426.536 67.8181 425.415 67.8181H413.63C412.509 67.8181 411.6 68.7287 411.6 69.8515C411.601 70.9744 412.509 71.885 413.63 71.885Z" fill="white"/>
<path d="M463.94 120.571H430.323C428.745 120.571 427.465 119.289 427.465 117.709V99.3016C427.465 97.7209 428.745 96.4388 430.323 96.4388H463.94C465.518 96.4388 466.798 97.7209 466.798 99.3016V117.709C466.798 119.291 465.518 120.571 463.94 120.571Z" stroke="white" stroke-width="2" stroke-miterlimit="10"/>
<path d="M428.538 97.2316L443.923 108.6C445.83 110.009 448.433 110.009 450.34 108.6L465.725 97.2316" stroke="white" stroke-width="2" stroke-miterlimit="10"/>
<path d="M430.691 100.669C432.593 99.8059 433.437 97.5622 432.575 95.657C431.714 93.7519 429.474 92.9068 427.573 93.7695C425.671 94.6321 424.827 96.8758 425.688 98.781C426.549 100.686 428.789 101.531 430.691 100.669Z" fill="#FC7318"/>
<path d="M260.578 216.635H231.227C226.708 216.635 223.047 212.966 223.047 208.442C223.047 203.915 226.71 200.248 231.227 200.248H260.578C265.096 200.248 268.757 203.917 268.757 208.442C268.757 212.966 265.094 216.635 260.578 216.635Z" stroke="white" stroke-width="2" stroke-miterlimit="10"/>
<path d="M260.121 214.457C263.438 214.457 266.128 211.763 266.128 208.44C266.128 205.117 263.438 202.423 260.121 202.423C256.803 202.423 254.114 205.117 254.114 208.44C254.114 211.763 256.803 214.457 260.121 214.457Z" fill="#FC7318"/>
<path d="M457.687 272.626H402.308C400.909 272.626 399.774 271.49 399.774 270.088V268.048C399.774 266.647 400.909 265.51 402.308 265.51H457.687C459.086 265.51 460.22 266.647 460.22 268.048V270.088C460.22 271.49 459.086 272.626 457.687 272.626Z" fill="#FC7318"/>
<path d="M454.348 265.471H398.969C397.57 265.471 396.436 264.335 396.436 262.933V260.893C396.436 259.492 397.57 258.355 398.969 258.355H454.348C455.747 258.355 456.881 259.492 456.881 260.893V262.933C456.881 264.335 455.747 265.471 454.348 265.471Z" fill="#F7AE38"/>
<path d="M52.1157 272.626H470.364" stroke="white" stroke-width="5" stroke-miterlimit="10"/>
<path d="M475.077 272.626H486.922" stroke="white" stroke-width="5" stroke-miterlimit="10"/>
<path d="M48.8041 272.626H43.0786" stroke="white" stroke-width="5" stroke-miterlimit="10"/>
</svg>
