<svg width="397" height="343" viewBox="0 0 397 343" fill="none" xmlns="http://www.w3.org/2000/svg">
<path d="M333.731 249.981C333.731 249.981 381.65 124.981 356.824 105.918C331.999 86.8552 227.881 94.5531 222.177 101.363C216.472 108.174 182.887 258.639 182.887 258.639L333.731 249.981Z" fill="#5D9EA6"/>
<path d="M182.814 259.396C182.71 259.395 182.607 259.372 182.512 259.33C182.417 259.287 182.332 259.226 182.261 259.148C182.189 259.063 182.138 258.962 182.112 258.853C182.087 258.744 182.088 258.631 182.116 258.523C183.484 252.367 215.861 107.795 221.624 100.927C224.782 97.1579 252.576 93.6509 282.319 93.258C299.782 93.0252 342.113 93.7382 357.276 105.365C367.826 113.456 367.156 140.289 355.297 185.284C346.566 218.563 334.531 249.923 334.415 250.228C334.366 250.36 334.279 250.475 334.165 250.558C334.051 250.641 333.915 250.688 333.775 250.694L182.858 259.425L182.814 259.396ZM287.82 94.6695H282.349C251.79 95.077 225.233 98.8459 222.686 101.829C218.321 107.082 195.387 205.627 183.687 257.868L333.178 249.253C336.248 241.119 379.744 124.428 356.344 106.486C346.493 98.9332 321.653 94.6695 287.82 94.6695Z" fill="#231F20"/>
<path d="M139.159 141.977L117.564 214.46C117.564 214.46 162.107 220.208 162.107 218.564C162.107 216.919 170.839 138.805 170.839 138.805L139.159 141.977Z" fill="white"/>
<path d="M159.866 219.509C152.343 219.509 130.995 216.919 117.477 215.144C117.372 215.129 117.272 215.092 117.183 215.036C117.094 214.979 117.018 214.904 116.961 214.816C116.903 214.728 116.864 214.629 116.848 214.525C116.832 214.421 116.837 214.314 116.865 214.213L138.46 141.73C138.5 141.59 138.581 141.466 138.693 141.372C138.804 141.279 138.941 141.221 139.086 141.206L170.78 138.034C170.887 138.024 170.995 138.038 171.096 138.076C171.197 138.114 171.288 138.174 171.362 138.252C171.44 138.326 171.499 138.417 171.535 138.518C171.57 138.62 171.581 138.728 171.566 138.834C168.553 165.755 162.834 217.05 162.834 218.52C162.821 218.758 162.717 218.982 162.543 219.146C161.69 219.469 160.774 219.593 159.866 219.509ZM118.452 213.849C133.935 215.828 157.974 218.578 161.35 218.098C161.903 211.811 168.99 148.366 169.965 139.62L139.668 142.661L118.452 213.849Z" fill="#231F20"/>
<path d="M98.2247 123.977C98.4139 124.181 106.083 122.129 110.041 126.887C113.999 131.646 108.862 135.895 96.3621 133.436C83.8621 130.976 98.2247 123.977 98.2247 123.977Z" fill="white"/>
<path d="M102.954 134.876C100.69 134.853 98.4343 134.615 96.2163 134.163C92.6074 133.45 90.7448 132.286 90.5265 130.583C90.1045 127.295 96.5946 123.962 97.9043 123.307C98.0553 123.256 98.2189 123.256 98.3699 123.307H98.8501C100.887 123.06 107.086 122.274 110.608 126.494C112.18 128.357 112.514 130.263 111.583 131.864C110.375 133.77 107.247 134.876 102.954 134.876ZM98.3845 124.69C95.5469 126.145 91.8071 128.706 92.0108 130.321C92.0108 130.86 92.7675 131.878 96.5073 132.621C104.962 134.279 109.211 132.737 110.288 130.918C110.545 130.301 110.603 129.619 110.455 128.966C110.306 128.314 109.958 127.725 109.458 127.28C106.461 123.7 101.062 124.37 99.0393 124.632C98.7628 124.69 98.5591 124.69 98.3845 124.69V124.69Z" fill="#231F20"/>
<path d="M79.0014 108.77C79.0014 108.77 77.4298 106.966 78.4193 105.7C78.6419 105.443 78.9226 105.243 79.238 105.116C79.5535 104.989 79.8946 104.939 80.2332 104.97C80.5718 105.001 80.898 105.113 81.1849 105.296C81.4717 105.478 81.7109 105.726 81.8826 106.02C81.8826 106.02 79.4088 106.908 79.0014 108.77Z" fill="white"/>
<path d="M79.0017 109.512C78.895 109.513 78.7893 109.492 78.6915 109.449C78.5937 109.407 78.506 109.344 78.4342 109.265C77.7066 108.421 76.7462 106.617 77.8376 105.249C78.0816 104.928 78.3963 104.668 78.7572 104.489C79.1181 104.31 79.5155 104.216 79.9185 104.216C80.4145 104.224 80.9016 104.348 81.3412 104.578C81.7808 104.808 82.1606 105.137 82.4505 105.54C82.5302 105.632 82.5854 105.744 82.6108 105.863C82.6362 105.983 82.6312 106.107 82.596 106.224C82.5655 106.34 82.5071 106.447 82.426 106.536C82.3449 106.624 82.2434 106.692 82.1304 106.733C81.5483 106.937 79.9912 107.752 79.7293 108.93C79.7013 109.066 79.6361 109.19 79.541 109.291C79.4458 109.391 79.3246 109.463 79.1909 109.498L79.0017 109.512ZM79.9476 105.714C79.7709 105.717 79.597 105.759 79.4385 105.837C79.2799 105.915 79.1407 106.027 79.0308 106.165C78.9479 106.325 78.9046 106.502 78.9046 106.682C78.9046 106.862 78.9479 107.039 79.0308 107.199C79.4691 106.661 80.0017 106.207 80.6024 105.86C80.4013 105.772 80.1795 105.741 79.9621 105.773L79.9476 105.714Z" fill="#231F20"/>
<path d="M82.4359 105.947C81.5702 106.017 80.7523 106.373 80.1099 106.957C79.4674 107.542 79.0368 108.322 78.8853 109.178L110.099 149.792C110.291 147.845 111.132 146.02 112.485 144.609C113.839 143.197 115.627 142.281 117.564 142.007L82.4359 105.947Z" fill="white"/>
<path d="M110.084 150.534C109.972 150.533 109.861 150.506 109.76 150.456C109.659 150.405 109.571 150.332 109.502 150.243L78.2887 109.629C78.2182 109.537 78.1697 109.43 78.147 109.317C78.1243 109.203 78.128 109.086 78.1577 108.974C78.3631 107.964 78.8918 107.049 79.6636 106.366C80.4355 105.684 81.4087 105.271 82.4359 105.19C82.5366 105.192 82.6361 105.213 82.7286 105.253C82.821 105.293 82.9046 105.351 82.9743 105.423L118.102 141.483C118.2 141.579 118.268 141.702 118.299 141.836C118.33 141.97 118.322 142.11 118.277 142.239C118.236 142.37 118.16 142.486 118.058 142.576C117.955 142.666 117.829 142.725 117.695 142.749C115.921 142.991 114.281 143.824 113.037 145.112C111.794 146.4 111.021 148.069 110.841 149.85C110.829 150.001 110.771 150.145 110.675 150.262C110.578 150.379 110.448 150.464 110.303 150.505L110.084 150.534ZM79.7147 109.032L109.706 148.046C110.128 146.51 110.937 145.108 112.056 143.975C113.174 142.841 114.565 142.013 116.094 141.57L82.1594 106.733C81.5791 106.852 81.0433 107.131 80.6117 107.537C80.18 107.942 79.8695 108.46 79.7147 109.032V109.032Z" fill="#231F20"/>
<path d="M110.099 149.792L120.751 155.321L122.075 154.084L117.564 142.007C117.564 142.007 109.269 141.177 110.099 149.792Z" fill="white"/>
<path d="M120.751 156.064C120.629 156.065 120.509 156.035 120.402 155.976L109.75 150.447C109.637 150.39 109.54 150.306 109.469 150.201C109.397 150.097 109.354 149.976 109.342 149.85C109.14 148.692 109.204 147.503 109.529 146.374C109.854 145.244 110.432 144.204 111.22 143.331C112.098 142.576 113.117 142.003 114.219 141.645C115.321 141.288 116.483 141.154 117.637 141.25C117.78 141.263 117.915 141.317 118.029 141.404C118.142 141.492 118.228 141.61 118.277 141.745L122.774 153.823C122.828 153.962 122.839 154.114 122.805 154.259C122.771 154.405 122.694 154.536 122.584 154.637L121.26 155.874C121.119 155.997 120.938 156.064 120.751 156.064V156.064ZM110.812 149.312L120.62 154.405L121.202 153.881L117.04 142.734C115.3 142.685 113.602 143.275 112.267 144.393C111.683 145.058 111.25 145.843 110.999 146.692C110.747 147.541 110.684 148.435 110.812 149.312V149.312Z" fill="#231F20"/>
<path d="M120.75 155.321L122.788 157.504L123.748 156.413L122.075 154.085L120.75 155.321Z" fill="white"/>
<path d="M122.788 158.261C122.685 158.262 122.584 158.24 122.491 158.197C122.398 158.154 122.315 158.092 122.249 158.013L120.197 155.831C120.065 155.683 119.992 155.491 119.994 155.292C120.005 155.092 120.094 154.904 120.241 154.768L121.565 153.532C121.644 153.46 121.737 153.406 121.838 153.373C121.939 153.34 122.046 153.329 122.151 153.34C122.257 153.351 122.359 153.384 122.451 153.437C122.544 153.49 122.623 153.562 122.686 153.648L124.359 155.976C124.466 156.108 124.523 156.272 124.523 156.442C124.523 156.611 124.466 156.776 124.359 156.908L123.399 157.999C123.332 158.081 123.247 158.147 123.152 158.192C123.056 158.238 122.952 158.261 122.846 158.261H122.788ZM121.813 155.351L122.773 156.384L121.944 155.234L121.813 155.351Z" fill="#231F20"/>
<path d="M100.204 152.979C101.921 149.501 106.228 142.123 107.218 138.922C109.954 130.19 93.932 122.012 88.7516 122.012C83.5712 122.012 72.7446 140.115 72.7446 149.792C72.7446 159.469 108.615 233.566 108.615 233.566L143.03 217.821L100.204 152.979Z" fill="white"/>
<path d="M108.658 234.323C108.518 234.323 108.381 234.283 108.262 234.209C108.144 234.134 108.049 234.027 107.989 233.901C106.534 230.874 72.0312 159.512 72.0312 149.792C72.0312 140.071 82.9742 121.256 88.7513 121.256C92.7384 121.256 102.008 125.505 106.213 131.151C107.144 132.236 107.794 133.534 108.107 134.929C108.419 136.325 108.383 137.776 108.003 139.154C106.616 142.586 104.992 145.916 103.143 149.122C102.372 150.578 101.688 151.887 101.135 152.92L143.757 217.385C143.817 217.476 143.856 217.579 143.874 217.687C143.891 217.795 143.886 217.905 143.859 218.011C143.828 218.112 143.775 218.207 143.705 218.287C143.635 218.367 143.548 218.432 143.451 218.476L109.022 234.25C108.913 234.316 108.784 234.341 108.658 234.323ZM88.7513 122.754C84.1965 122.754 73.5446 140.217 73.5446 149.792C73.5446 158.697 105.457 225.185 109.007 232.591L141.967 217.487L99.5778 153.459C99.5141 153.343 99.4807 153.213 99.4807 153.08C99.4807 152.948 99.5141 152.818 99.5778 152.702C100.131 151.596 100.931 150.097 101.804 148.468C103.604 145.344 105.189 142.101 106.548 138.761C106.855 137.608 106.874 136.397 106.602 135.235C106.331 134.072 105.777 132.995 104.991 132.097C100.931 126.582 92.0982 122.754 88.7513 122.754Z" fill="#231F20"/>
<path d="M283.309 167.647L325.727 156.835C324.272 154.783 307.159 100.461 289.115 91.57C273.326 81.0927 235.884 74.1079 202.808 76.4798C202.808 76.4798 194.077 76.1597 178.769 82.2278C141.487 97.0415 134.298 148.628 134.298 148.628L163.402 158.683C163.402 158.683 157.843 225.403 152.59 260.284C152.59 260.284 216.938 272.871 310.622 257.373C310.695 257.344 283.483 177.513 283.309 167.647Z" fill="#8C4A3B"/>
<path d="M279.816 93.0688C274.199 98.8896 269.819 105.874 263.62 111.36C250.262 123.176 232.785 132.533 214.464 131.398C192.869 130.059 174.2 115.304 169.514 93.811C166.603 80.336 169.63 67.8215 180.049 58.3046C187.252 51.7272 196.478 47.7109 205.908 45.208C230.951 38.4996 259.051 42.0648 280.428 56.7621C283.92 58.912 286.869 61.8404 289.042 65.3186C294.383 74.9955 288.242 84.9489 281.315 91.5991C280.85 92.0502 280.355 92.5595 279.816 93.0688Z" fill="#8C4A3B"/>
<path d="M206.141 108.319C205.923 108.319 201.906 113.209 201.703 113.281C203.987 121.896 206.403 133.115 216.153 134.221C235.928 136.477 238.926 110.109 242.651 97.6672C228.958 101.509 219.296 103.051 206.141 108.319Z" fill="#231F20"/>
<path d="M218.466 135.094C217.669 135.088 216.872 135.04 216.08 134.949C206.344 133.843 203.594 123.307 201.368 114.882L200.989 113.427C200.954 113.284 200.963 113.134 201.015 112.996C201.067 112.858 201.16 112.74 201.28 112.656C201.513 112.437 202.575 111.2 203.347 110.298C205.602 107.708 205.631 107.693 205.864 107.592C213.919 104.478 222.186 101.944 230.602 100.01C234.313 99.0787 238.14 98.1183 242.389 96.9251C242.514 96.8902 242.646 96.8893 242.771 96.9226C242.897 96.9558 243.011 97.022 243.102 97.1142C243.189 97.2085 243.251 97.3234 243.282 97.4482C243.312 97.5729 243.311 97.7034 243.277 97.8273C242.724 99.6753 242.185 101.858 241.603 104.172C238.591 116.628 233.978 135.08 218.466 135.094ZM202.459 113.514L202.721 114.518C204.947 122.958 207.45 132.519 216.196 133.436C232.392 135.284 236.918 117.079 240.236 103.779C240.687 101.96 241.123 100.214 241.56 98.6422C237.791 99.6753 234.284 100.548 230.981 101.392C222.641 103.286 214.451 105.785 206.475 108.872C206.184 109.163 205.166 110.327 204.409 111.215C203.39 112.525 202.823 113.165 202.503 113.514H202.459Z" fill="#231F20"/>
<path d="M225.291 6.82037C222.381 6.70396 220.518 7.96996 218.015 8.87217C213.14 10.5893 210.87 6.51478 206.679 4.34657C200.081 0.916215 192.499 -0.124723 185.22 1.4005C177.941 2.92572 171.415 6.92308 166.749 12.7138C163.845 16.1528 161.965 20.3373 161.321 24.7918C160.71 29.8268 162.122 34.9781 161.248 39.9548C160.715 42.813 159.462 45.4883 157.609 47.7286C155.756 49.969 153.362 51.7006 150.655 52.7604C155.313 53.12 159.999 52.677 164.508 51.4507C163.212 52.9911 161.601 54.2361 159.784 55.102C157.967 55.968 155.985 56.4348 153.973 56.4711C158.613 60.0393 164.315 61.9503 170.169 61.8989L159.91 64.2999C168.641 69.9024 179.278 71.5758 189.566 71.1102C210.055 70.0479 244.368 61.6661 243.772 35.1236C243.437 24.9519 237.849 7.40244 225.291 6.82037Z" fill="white"/>
<path d="M186.045 71.9687C178.201 71.9687 168.161 70.5136 159.459 64.9548C159.339 64.8752 159.246 64.7628 159.189 64.6311C159.132 64.4994 159.115 64.3541 159.139 64.2126C159.168 64.0742 159.236 63.9467 159.333 63.844C159.431 63.7413 159.555 63.6675 159.692 63.6306L165.396 62.3064C161.054 61.5666 156.958 59.7784 153.463 57.0968C153.341 57.0052 153.251 56.8775 153.205 56.7317C153.16 56.5859 153.161 56.4295 153.21 56.2847C153.258 56.1398 153.351 56.0138 153.474 55.9245C153.598 55.8352 153.747 55.7872 153.9 55.7872C156.888 55.7382 159.773 54.6877 162.093 52.804C158.295 53.5915 154.405 53.8365 150.538 53.5316C150.375 53.5167 150.221 53.4467 150.102 53.3331C149.983 53.2194 149.906 53.0689 149.884 52.9059C149.857 52.7411 149.889 52.5722 149.974 52.4287C150.059 52.2851 150.192 52.1759 150.349 52.1201C152.951 51.1193 155.252 49.4692 157.035 47.327C158.818 45.1848 160.023 42.6218 160.536 39.8821C160.886 37.2664 160.915 34.6178 160.623 31.995C160.395 29.575 160.395 27.139 160.623 24.7191C161.285 20.1263 163.221 15.811 166.211 12.2627C170.982 6.34125 177.657 2.25466 185.101 0.697482C192.545 -0.859695 200.298 0.20861 207.043 3.72084C208.283 4.39783 209.461 5.18175 210.565 6.06368C212.922 7.85355 214.785 9.26508 217.841 8.2028C218.495 7.96997 219.107 7.70803 219.703 7.46065C221.479 6.55869 223.445 6.09467 225.437 6.10734V6.10734C238.038 6.66031 244.354 23.7441 244.558 35.1236C244.82 47.1871 238.228 56.6894 224.956 63.3395C211.685 69.9897 195.853 71.5322 189.668 71.8523C188.446 71.9396 187.267 71.9687 186.045 71.9687ZM161.743 64.6928C171.144 70.1498 181.927 70.8774 189.479 70.5136C195.533 70.1934 211.016 68.7528 224.185 62.1463C236.918 55.7726 243.233 46.7359 242.986 35.2691C242.739 24.4426 236.932 8.18824 225.262 7.62072C223.487 7.63312 221.738 8.05648 220.154 8.85763C219.529 9.11956 218.888 9.39605 218.204 9.62887C214.435 10.9531 212.078 9.16322 209.59 7.27149C208.556 6.44301 207.45 5.7077 206.286 5.07416C199.841 1.71136 192.429 0.686989 185.312 2.1755C178.196 3.66401 171.816 7.57335 167.258 13.2377C164.451 16.5522 162.622 20.5834 161.976 24.8792C161.758 27.1975 161.758 29.5311 161.976 31.8495C162.272 34.5894 162.233 37.3553 161.86 40.0858C161.4 42.5785 160.413 44.9443 158.965 47.0248C157.517 49.1052 155.641 50.8524 153.463 52.1492C157.092 52.1445 160.704 51.6551 164.203 50.694C164.353 50.6503 164.514 50.6565 164.661 50.7116C164.808 50.7666 164.933 50.8677 165.018 50.9996C165.106 51.1251 165.154 51.2751 165.154 51.4289C165.154 51.5827 165.106 51.7327 165.018 51.8582C162.714 54.5982 159.501 56.4167 155.966 56.9804C160.175 59.7245 165.101 61.1624 170.125 61.1131C170.305 61.1085 170.48 61.1719 170.614 61.2906C170.749 61.4093 170.834 61.5746 170.853 61.7534C170.876 61.9315 170.832 62.1118 170.73 62.2596C170.628 62.4073 170.475 62.5121 170.3 62.5537L161.743 64.6928Z" fill="#231F20"/>
<path d="M200.247 88.2231L201.702 113.281C201.702 113.281 213.155 126.378 227.896 118.331C242.637 110.284 242.069 97.5217 242.069 97.5217L232.392 50.4758C232.392 50.4758 219.019 47.3908 215.614 21.052C204.206 30.0846 190.572 35.8711 176.149 37.8011C176.149 37.8011 176.411 67.2685 181.606 78.9827C186.801 90.6969 200.247 88.2231 200.247 88.2231Z" fill="white"/>
<path d="M218.219 121.663C208.207 121.663 201.237 113.878 201.15 113.762C201.042 113.641 200.98 113.487 200.975 113.325L199.52 89.038C196.449 89.3436 185.506 89.6346 180.894 79.2301C175.699 67.5887 175.393 38.9653 175.378 37.7575C175.38 37.5818 175.443 37.4122 175.558 37.279C175.672 37.1457 175.831 37.0575 176.004 37.0299C190.274 35.0843 203.766 29.3679 215.09 20.47C215.19 20.3825 215.312 20.324 215.443 20.3009C215.574 20.2778 215.709 20.291 215.832 20.339C215.954 20.3863 216.062 20.4651 216.144 20.5673C216.225 20.6696 216.279 20.7916 216.298 20.9211C218.015 34.2505 222.352 41.3664 225.684 45.0043C227.485 47.1774 229.852 48.8093 232.523 49.7191C232.657 49.7542 232.778 49.8259 232.873 49.9261C232.968 50.0264 233.034 50.1513 233.062 50.2866L242.753 97.3762C242.753 97.6236 243.19 110.793 228.201 118.971C225.156 120.7 221.721 121.626 218.219 121.663ZM202.401 112.932C203.856 114.518 214.275 124.908 227.561 117.647C241.705 109.905 241.356 97.609 241.356 97.4926L231.767 50.9269C229.351 50.1265 218.408 45.2953 215.076 22.3035C203.889 30.7531 190.76 36.2572 176.892 38.3105C176.892 42.676 177.619 68.0834 182.261 78.5753C187.165 89.6055 199.593 87.5246 200.116 87.4373C200.217 87.4177 200.321 87.4192 200.421 87.4417C200.521 87.4643 200.616 87.5074 200.699 87.5683C200.778 87.6353 200.843 87.7174 200.891 87.8098C200.938 87.9022 200.967 88.0031 200.975 88.1067L202.401 112.932Z" fill="#231F20"/>
<path d="M226.935 63.6597C230.354 64.1746 233.838 63.3167 236.627 61.2732C238.51 59.7819 239.978 57.8316 240.89 55.6096C241.803 53.3875 242.128 50.9682 241.836 48.584C241.747 46.802 241.249 45.0644 240.381 43.5054C239.956 42.7257 239.369 42.0467 238.658 41.5143C237.948 40.982 237.131 40.6089 236.263 40.4205C234.114 40.2868 231.98 40.8536 230.18 42.0357C227.357 43.4909 227.27 45.1061 225.728 47.4926C225.902 47.2743 226.033 46.6632 226.208 46.4449" fill="white"/>
<path d="M228.885 64.5473C228.194 64.5447 227.503 64.4912 226.819 64.3872C226.627 64.3551 226.455 64.2485 226.34 64.0905C226.226 63.9326 226.178 63.736 226.208 63.5432C226.222 63.4491 226.255 63.3586 226.304 63.2773C226.354 63.196 226.419 63.1255 226.497 63.0699C226.574 63.0143 226.662 62.9747 226.754 62.9536C226.847 62.9324 226.943 62.93 227.037 62.9466C230.261 63.4211 233.541 62.5997 236.161 60.662C237.944 59.2435 239.332 57.3899 240.191 55.2796C241.05 53.1693 241.351 50.8735 241.065 48.6131C241.007 46.9436 240.564 45.3101 239.77 43.8401C239.395 43.1589 238.879 42.5653 238.257 42.0987C237.635 41.6321 236.92 41.3031 236.161 41.1335C234.357 40.8133 232.552 41.6428 230.544 42.676C229.164 43.3472 228.085 44.5097 227.517 45.9356C227.212 46.4885 226.877 47.1143 226.426 47.7982C226.396 47.8573 226.357 47.9113 226.31 47.9583C226.193 48.103 226.024 48.1962 225.839 48.218C225.654 48.2397 225.468 48.1883 225.32 48.0747C225.166 47.9662 225.062 47.8013 225.029 47.6159C224.996 47.4305 225.038 47.2398 225.146 47.0852V47.0852C225.146 47.0852 225.146 46.896 225.247 46.7941C225.333 46.5307 225.455 46.2808 225.611 46.052C225.687 45.9638 225.781 45.8941 225.888 45.8483L226.164 45.3244C226.883 43.6363 228.184 42.2627 229.831 41.4536C231.548 40.566 233.92 39.3436 236.35 39.7656C237.338 39.9617 238.272 40.3704 239.086 40.9634C239.9 41.5565 240.576 42.3196 241.065 43.1998C241.957 44.8642 242.455 46.7113 242.52 48.5986C242.828 51.1037 242.483 53.6459 241.519 55.9786C240.556 58.3114 239.006 60.3557 237.02 61.9134C234.657 63.6335 231.808 64.556 228.885 64.5473V64.5473Z" fill="#231F20"/>
<path d="M201.004 101.407C203.87 101.201 206.642 100.298 209.079 98.776C211.516 97.2543 213.545 95.1603 214.988 92.6759C220.125 84.1049 218.073 78.6189 218.073 78.6189C218.073 78.6189 211.146 87.4518 200.247 88.1649L201.004 101.407Z" fill="#231F20"/>
<path d="M201.004 102.12C200.82 102.12 200.643 102.049 200.51 101.922C200.377 101.794 200.299 101.62 200.291 101.436L199.52 88.3395C199.514 88.2439 199.527 88.1481 199.558 88.0576C199.589 87.967 199.638 87.8835 199.702 87.8119C199.765 87.7402 199.842 87.6818 199.929 87.64C200.015 87.5982 200.108 87.5738 200.204 87.5683C210.637 86.8989 217.433 78.4006 217.506 78.3133C217.585 78.2105 217.69 78.1306 217.81 78.082C217.931 78.0334 218.062 78.0178 218.19 78.0369C218.317 78.0586 218.436 78.113 218.535 78.1946C218.635 78.2762 218.711 78.3823 218.757 78.5025C218.845 78.7353 220.867 84.4105 215.6 93.1853C214.1 95.7661 211.988 97.938 209.45 99.509C206.912 101.08 204.027 102.002 201.048 102.193L201.004 102.12ZM201.004 88.8779L201.688 100.621C204.287 100.301 206.778 99.3895 208.971 97.9567C211.163 96.5239 212.997 94.6079 214.334 92.3558C217.812 86.5351 217.899 82.286 217.637 80.2487C213.28 84.9913 207.391 88.0467 201.004 88.8779V88.8779Z" fill="#231F20"/>
<path d="M198.326 48.3948C198.326 48.3948 192.869 62.772 195.343 64.4891C197.817 66.2062 203.041 63.4705 203.041 63.4705" fill="white"/>
<path d="M197.497 65.7843C196.586 65.826 195.686 65.5817 194.921 65.0858C192.185 63.194 196.376 51.6399 197.628 48.1329C197.696 47.9542 197.832 47.8098 198.007 47.7308C198.181 47.6518 198.379 47.6447 198.559 47.7109C198.649 47.7448 198.732 47.7962 198.802 47.8623C198.872 47.9283 198.928 48.0077 198.968 48.0957C199.007 48.1836 199.028 48.2786 199.031 48.3749C199.033 48.4712 199.016 48.567 198.981 48.6568C196.449 55.3361 194.615 63.0631 195.75 63.878C197.482 65.0712 201.353 63.5287 202.692 62.8302C202.864 62.7422 203.064 62.7248 203.249 62.7819C203.433 62.839 203.589 62.966 203.681 63.1358C203.767 63.3077 203.782 63.5067 203.722 63.6894C203.662 63.8721 203.532 64.0236 203.361 64.1108C201.548 65.0816 199.549 65.6522 197.497 65.7843V65.7843Z" fill="#231F20"/>
<path d="M209.06 48.031C210.169 47.6726 210.657 46.1113 210.15 44.5436C209.644 42.9759 208.334 41.9955 207.225 42.3539C206.116 42.7122 205.628 44.2736 206.135 45.8413C206.641 47.409 207.951 48.3894 209.06 48.031Z" fill="#231F20"/>
<path d="M188.702 52.7915C189.867 52.7757 190.793 51.4273 190.771 49.78C190.749 48.1326 189.786 46.81 188.621 46.8258C187.455 46.8417 186.529 48.19 186.551 49.8374C186.574 51.4848 187.537 52.8074 188.702 52.7915Z" fill="#231F20"/>
<path d="M200.058 82.9553C198.66 82.9918 197.287 82.5898 196.129 81.8057C191.545 78.4588 191.211 71.0665 191.196 70.7464C191.192 70.5744 191.248 70.4063 191.354 70.271C191.46 70.1356 191.61 70.0413 191.778 70.0042C210.608 65.8861 210.812 66.0316 211.146 66.279C211.23 66.3417 211.299 66.4203 211.352 66.5102C211.404 66.6002 211.438 66.6996 211.452 66.8029C211.743 69.7367 211.34 72.6979 210.273 75.4466C209.632 77.1317 208.617 78.6491 207.303 79.8843C205.99 81.1195 204.413 82.0402 202.692 82.577C201.836 82.8245 200.949 82.9519 200.058 82.9553V82.9553ZM192.709 71.3139C192.884 73.0747 193.67 78.226 196.959 80.6125C197.742 81.0931 198.621 81.3946 199.534 81.4952C200.448 81.5958 201.372 81.4932 202.241 81.1946C203.758 80.7224 205.148 79.9128 206.307 78.8266C207.467 77.7404 208.365 76.4057 208.935 74.9228C209.835 72.6087 210.213 70.124 210.041 67.6469C207.538 68.098 198.705 69.9897 192.709 71.2994V71.3139Z" fill="#231F20"/>
<path d="M209.604 75.2138C206.81 81.9658 199.811 83.5811 196.508 81.2382C197.25 78.6626 198.603 75.985 201.121 75.0101C203.883 74.0678 206.891 74.14 209.604 75.2138V75.2138Z" fill="#231F20"/>
<path d="M200.058 82.9408C198.662 82.9796 197.289 82.5829 196.129 81.8058C196.009 81.7184 195.919 81.5957 195.872 81.4548C195.825 81.3139 195.823 81.1619 195.867 81.02C196.856 77.4693 198.559 75.1992 200.902 74.3116C203.815 73.3216 206.983 73.3886 209.851 74.5008C209.944 74.5348 210.029 74.5871 210.102 74.6546C210.174 74.722 210.233 74.8033 210.273 74.8937C210.345 75.076 210.345 75.2789 210.273 75.4612C209.628 77.1425 208.611 78.656 207.298 79.8883C205.985 81.1207 204.41 82.0398 202.692 82.577C201.835 82.8191 200.948 82.9415 200.058 82.9408V82.9408ZM197.409 80.889C198.922 81.6038 200.653 81.7081 202.241 81.18C203.634 80.7538 204.922 80.0384 206.02 79.0806C207.119 78.1227 208.003 76.9439 208.614 75.6213C206.281 74.8456 203.759 74.8456 201.426 75.6213C199.636 76.3488 198.326 78.1242 197.409 80.889Z" fill="#231F20"/>
<path d="M175.466 60.0072C174.47 60.0068 173.504 59.6661 172.729 59.0414C171.953 58.4168 171.414 57.5458 171.202 56.5729L169.674 49.6317C169.427 48.501 169.64 47.3185 170.265 46.3444C170.89 45.3702 171.876 44.6841 173.006 44.4367L189.232 40.8716C189.793 40.7473 190.372 40.735 190.938 40.8353C191.504 40.9356 192.044 41.1466 192.528 41.4562C193.012 41.7658 193.43 42.1679 193.759 42.6394C194.087 43.1109 194.319 43.6426 194.441 44.2039L195.896 51.1451C196.132 52.2613 195.921 53.4253 195.309 54.3881C194.697 55.3508 193.733 56.0358 192.622 56.2964V56.2964L176.397 59.8471C176.094 59.9365 175.781 59.9902 175.466 60.0072V60.0072ZM190.177 42.2831C189.969 42.2616 189.76 42.2616 189.552 42.2831L173.341 45.8337C172.601 46.0043 171.957 46.4575 171.547 47.0964C171.136 47.7353 170.991 48.5094 171.144 49.2534L172.672 56.2964C172.846 57.0307 173.298 57.6688 173.933 58.076C174.568 58.4832 175.337 58.6278 176.077 58.4792L192.302 54.8413C193.036 54.6674 193.674 54.2151 194.082 53.5798C194.489 52.9446 194.633 52.176 194.485 51.4362L193.03 44.4949C192.883 43.8607 192.528 43.2938 192.022 42.8849C191.515 42.4761 190.887 42.2488 190.236 42.2394L190.177 42.2831Z" fill="#231F20"/>
<path d="M204.38 53.6771C203.543 53.675 202.725 53.4325 202.022 52.9786C201.05 52.3549 200.364 51.3711 200.116 50.2429L198.661 43.3017C198.411 42.1716 198.621 40.9887 199.243 40.013C199.552 39.5273 199.954 39.1075 200.426 38.7779C200.898 38.4482 201.431 38.2152 201.993 38.0922L218.204 34.5415C218.765 34.4173 219.345 34.4049 219.91 34.5053C220.476 34.6056 221.016 34.8166 221.5 35.1262C221.984 35.4358 222.403 35.8379 222.731 36.3094C223.059 36.7809 223.291 37.3125 223.413 37.8739L224.869 44.8151C225.122 45.9378 224.921 47.1149 224.311 48.0905C223.7 49.0661 222.729 49.7612 221.609 50.0246L205.398 53.5753C205.063 53.6416 204.722 53.6757 204.38 53.6771ZM219.092 35.9239C218.881 35.9266 218.671 35.951 218.466 35.9967L202.255 39.5619C201.886 39.6394 201.536 39.79 201.226 40.005C200.916 40.2199 200.653 40.4948 200.451 40.8133C200.041 41.4567 199.9 42.2353 200.058 42.9816L201.586 49.9228C201.76 50.6571 202.212 51.2951 202.847 51.7023C203.482 52.1096 204.251 52.2541 204.991 52.1055L221.216 48.5549C221.958 48.3894 222.606 47.9402 223.021 47.3034C223.426 46.6581 223.561 45.8796 223.399 45.1352L221.944 38.194C221.798 37.5474 221.436 36.9699 220.917 36.5571C220.398 36.1443 219.754 35.921 219.092 35.9239Z" fill="#231F20"/>
<path d="M193.699 45.1207C193.565 45.1236 193.434 45.0882 193.32 45.0189C193.151 44.9185 193.027 44.7559 192.975 44.5657C192.924 44.3755 192.948 44.1726 193.044 44.0002C193.728 42.8215 195.954 40.9735 199.607 42.4432C199.8 42.5165 199.956 42.6635 200.04 42.8518C200.125 43.0401 200.131 43.2543 200.058 43.4473C199.984 43.6402 199.838 43.7962 199.649 43.8808C199.461 43.9654 199.247 43.9717 199.054 43.8984C195.794 42.5887 194.484 44.5823 194.354 44.8151C194.278 44.9157 194.178 44.9961 194.064 45.0494C193.95 45.1026 193.824 45.1271 193.699 45.1207V45.1207Z" fill="#231F20"/>
<path d="M48.7339 238.834H347.919L395.925 326.509H0.727539L48.7339 238.834Z" fill="white"/>
<path d="M395.925 327.236H0.727702C0.602402 327.236 0.479311 327.203 0.369897 327.142C0.260484 327.081 0.16831 326.993 0.101975 326.887C0.0408359 326.776 0.00878906 326.65 0.00878906 326.523C0.00878906 326.396 0.0408359 326.271 0.101975 326.159L48.1229 238.485C48.1845 238.369 48.2768 238.272 48.3898 238.206C48.5028 238.139 48.632 238.105 48.7632 238.107H347.904C348.036 238.105 348.165 238.139 348.278 238.206C348.391 238.272 348.483 238.369 348.545 238.485L396.566 326.159C396.627 326.271 396.659 326.396 396.659 326.523C396.659 326.65 396.627 326.776 396.566 326.887C396.498 326.995 396.403 327.085 396.291 327.146C396.179 327.207 396.053 327.238 395.925 327.236ZM1.9646 325.781H394.688L347.482 239.562H49.1706L1.9646 325.781Z" fill="#D1D3D4"/>
<path d="M53.376 182.271L54.0163 179.506C55.4714 176.742 57.0867 174.879 60.841 174.879H203.259C204.981 174.882 206.656 175.442 208.033 176.475C209.41 177.509 210.415 178.96 210.899 180.612L234.051 260.153C234.648 261.858 234.573 263.727 233.84 265.379C233.108 267.031 231.773 268.342 230.107 269.044L227.59 269.64L53.376 182.271Z" fill="white"/>
<path d="M227.59 270.368C227.48 270.364 227.371 270.34 227.27 270.295L53.0557 182.897C52.9088 182.825 52.7909 182.705 52.7221 182.557C52.6532 182.408 52.6374 182.241 52.6774 182.082L53.3177 179.317C53.3113 179.254 53.3113 179.191 53.3177 179.128C54.7728 176.494 56.4463 174.122 60.7827 174.122H203.201C205.079 174.13 206.905 174.743 208.407 175.87C209.909 176.997 211.007 178.579 211.539 180.38L234.706 260.022C235.356 261.901 235.267 263.958 234.457 265.774C233.646 267.59 232.174 269.03 230.34 269.8L227.735 270.426L227.59 270.368ZM54.2635 181.878L227.735 268.869L229.991 268.345C233.498 266.977 234.226 263.237 233.396 260.356L210.244 180.816C209.8 179.317 208.886 178.001 207.635 177.063C206.385 176.125 204.866 175.614 203.303 175.607H60.8409C57.625 175.607 56.2426 177.062 54.7001 179.768L54.2635 181.878Z" fill="#231F20"/>
<path d="M227.59 269.64H82.2614C81.2739 269.629 80.3162 269.301 79.53 268.703C78.7438 268.106 78.1708 267.271 77.8958 266.323L53.4343 182.271C53.342 181.949 53.3258 181.609 53.3869 181.28C53.448 180.95 53.5847 180.639 53.7864 180.371C53.9881 180.103 54.2492 179.885 54.5492 179.735C54.8491 179.585 55.1798 179.507 55.5152 179.507H204.729L230.006 266.424C230.117 266.799 230.139 267.195 230.07 267.58C230.001 267.965 229.843 268.328 229.608 268.641C229.373 268.953 229.068 269.207 228.718 269.38C228.367 269.554 227.981 269.643 227.59 269.64V269.64Z" fill="#A8BBBF"/>
<path d="M227.59 270.368H82.2611C81.108 270.362 79.9873 269.986 79.0648 269.294C78.1423 268.602 77.467 267.632 77.1389 266.526L52.6773 182.475C52.5592 182.045 52.5413 181.594 52.6252 181.156C52.709 180.719 52.8923 180.306 53.1608 179.95C53.4294 179.594 53.7761 179.305 54.1741 179.105C54.5722 178.904 55.011 178.798 55.4567 178.793H204.729C204.883 178.791 205.034 178.84 205.158 178.932C205.281 179.024 205.371 179.154 205.413 179.303L230.704 266.221C230.844 266.704 230.869 267.213 230.779 267.708C230.688 268.202 230.484 268.669 230.182 269.071C229.88 269.474 229.488 269.8 229.039 270.025C228.589 270.25 228.093 270.367 227.59 270.368V270.368ZM55.4567 180.234C55.2353 180.238 55.0176 180.291 54.8201 180.392C54.6227 180.492 54.4508 180.636 54.3175 180.813C54.1841 180.99 54.0929 181.195 54.0508 181.412C54.0086 181.63 54.0167 181.854 54.0743 182.068L78.5213 266.119C78.762 266.924 79.2556 267.631 79.9292 268.134C80.6027 268.637 81.4204 268.91 82.2611 268.913H227.59C227.871 268.914 228.149 268.851 228.401 268.727C228.654 268.603 228.874 268.423 229.045 268.2C229.21 267.977 229.32 267.719 229.368 267.446C229.416 267.174 229.4 266.894 229.322 266.628L204.147 180.234H55.4567Z" fill="#231F20"/>
<path d="M203.216 233.828L194.383 271.387C193.915 273.397 192.78 275.189 191.163 276.471C189.545 277.753 187.541 278.448 185.477 278.444H93.5533C92.1735 278.444 90.8117 278.131 89.5697 277.53C88.3278 276.929 87.2378 276.054 86.3813 274.973C85.5249 273.891 84.924 272.629 84.6238 271.283C84.3236 269.936 84.3317 268.539 84.6476 267.196L92.4328 233.828H84.8222L77.3717 265.479C76.8093 267.916 76.8038 270.448 77.3556 272.888C77.9074 275.327 79.0023 277.611 80.5589 279.569C82.1154 281.527 84.0934 283.108 86.3457 284.196C88.598 285.284 91.0666 285.849 93.5678 285.851H185.55C189.277 285.848 192.895 284.591 195.82 282.281C198.745 279.971 200.807 276.743 201.673 273.118L210.899 233.828H203.216Z" fill="white"/>
<path d="M185.477 286.68H93.5535C90.9364 286.68 88.3533 286.087 85.9975 284.947C83.6416 283.808 81.574 282.15 79.9492 280.098C78.3243 278.046 77.1844 275.654 76.6147 273.1C76.0449 270.545 76.06 267.895 76.6589 265.348L84.0949 233.683C84.1342 233.524 84.2259 233.383 84.3553 233.282C84.4847 233.182 84.6442 233.128 84.8079 233.13H92.4912C92.6003 233.131 92.7078 233.157 92.8059 233.205C92.904 233.253 92.9903 233.321 93.0588 233.406C93.1256 233.492 93.1721 233.591 93.1948 233.697C93.2175 233.803 93.2158 233.912 93.1897 234.018L85.3463 267.385C85.0571 268.622 85.051 269.909 85.3286 271.149C85.6061 272.389 86.16 273.55 86.949 274.546C87.738 275.542 88.7418 276.347 89.8853 276.901C91.0289 277.455 92.2828 277.744 93.5535 277.746H185.535C187.437 277.749 189.284 277.108 190.775 275.926C192.265 274.745 193.312 273.093 193.743 271.241L202.576 233.683C202.612 233.525 202.701 233.384 202.828 233.284C202.955 233.183 203.112 233.129 203.274 233.13H210.957C211.066 233.132 211.173 233.158 211.27 233.206C211.368 233.254 211.453 233.322 211.521 233.407C211.589 233.492 211.638 233.59 211.664 233.696C211.689 233.801 211.692 233.911 211.67 234.018L202.43 273.307C201.542 277.13 199.379 280.536 196.298 282.966C193.217 285.397 189.401 286.706 185.477 286.68V286.68ZM85.3172 234.585L78.0413 265.682C77.4893 268.019 77.4742 270.451 77.9971 272.795C78.5199 275.138 79.5672 277.333 81.0601 279.214C82.553 281.095 84.4527 282.613 86.6166 283.654C88.7805 284.695 91.1522 285.232 93.5535 285.225H185.535C189.124 285.236 192.61 284.028 195.422 281.799C198.235 279.571 200.208 276.454 201.019 272.958L210.041 234.585H203.856L195.125 271.576C194.626 273.75 193.402 275.69 191.653 277.076C189.905 278.462 187.737 279.211 185.506 279.201H93.5535C92.0628 279.201 90.5912 278.864 89.2492 278.215C87.9071 277.566 86.7294 276.622 85.8041 275.453C84.8788 274.284 84.23 272.921 83.9062 271.466C83.5825 270.011 83.5923 268.501 83.9348 267.05L91.5599 234.585H85.3172Z" fill="#231F20"/>
<path d="M321.755 157.242C321.755 157.242 334.764 215.013 324.112 229.768C313.46 244.524 239.072 242.196 239.072 242.196C239.072 242.196 227.008 256.675 216.531 255.714C206.053 254.754 212.165 234.934 224.491 226.683L222.788 219.8L288.373 209.279L279.642 167.763" fill="white"/>
<path d="M217.491 256.485C217.132 256.485 216.768 256.485 216.4 256.485C215.044 256.418 213.749 255.903 212.716 255.021C211.684 254.139 210.974 252.939 210.695 251.611C209.051 245.164 214.319 232.868 223.588 226.407L222.017 220.019C221.991 219.923 221.986 219.823 222.001 219.726C222.016 219.628 222.051 219.535 222.104 219.451C222.159 219.366 222.231 219.293 222.317 219.238C222.402 219.182 222.498 219.146 222.599 219.131L287.427 208.726L278.841 167.981C278.822 167.888 278.822 167.791 278.84 167.698C278.858 167.604 278.895 167.514 278.947 167.435C279 167.355 279.068 167.286 279.147 167.233C279.226 167.179 279.315 167.142 279.409 167.123C279.502 167.102 279.598 167.099 279.692 167.115C279.785 167.132 279.875 167.167 279.955 167.218C280.035 167.27 280.104 167.337 280.157 167.416C280.211 167.494 280.249 167.583 280.268 167.676L288.999 209.192C289.02 209.29 289.021 209.391 289.001 209.488C288.981 209.586 288.94 209.678 288.882 209.76C288.827 209.841 288.757 209.91 288.674 209.962C288.591 210.015 288.499 210.05 288.402 210.065L223.603 220.47L225.058 226.582C225.095 226.724 225.087 226.875 225.035 227.013C224.983 227.152 224.889 227.27 224.767 227.353C215.861 233.319 210.521 245.324 212.049 251.29C212.245 252.319 212.783 253.251 213.575 253.935C214.368 254.619 215.368 255.016 216.414 255.059C226.382 255.991 238.242 241.963 238.329 241.803C238.4 241.718 238.489 241.65 238.59 241.605C238.691 241.559 238.801 241.537 238.911 241.541C239.654 241.541 313.126 243.68 323.399 229.405C333.673 215.129 321.071 158.101 320.94 157.475C320.919 157.38 320.917 157.281 320.934 157.184C320.951 157.088 320.987 156.996 321.04 156.914C321.092 156.831 321.161 156.76 321.241 156.704C321.321 156.648 321.412 156.608 321.507 156.587C321.603 156.566 321.702 156.564 321.798 156.582C321.894 156.599 321.986 156.635 322.069 156.687C322.151 156.74 322.222 156.808 322.278 156.889C322.334 156.969 322.374 157.059 322.395 157.155C322.933 159.527 335.346 215.362 324.621 230.263C314.144 244.815 245.474 243.185 239.261 242.996C237.616 244.917 227.241 256.485 217.491 256.485Z" fill="#231F20"/>
<path d="M243.714 128.633C243.601 128.632 243.491 128.602 243.394 128.546C243.304 128.506 243.224 128.447 243.158 128.375C243.092 128.303 243.041 128.218 243.008 128.126C242.976 128.033 242.962 127.935 242.968 127.837C242.974 127.74 243 127.644 243.044 127.557C253.609 105.729 280.734 91.0462 281.01 90.9006C281.096 90.8528 281.19 90.8227 281.287 90.8122C281.385 90.8017 281.483 90.811 281.577 90.8395C281.671 90.8681 281.758 90.9152 281.833 90.9783C281.908 91.0413 281.97 91.1188 282.014 91.2062C282.062 91.2929 282.093 91.3883 282.103 91.4868C282.114 91.5854 282.105 91.6851 282.076 91.78C282.048 91.875 282.001 91.9632 281.937 92.0396C281.874 92.116 281.796 92.179 281.709 92.2249C281.447 92.3704 254.744 106.777 244.398 128.211C244.334 128.338 244.236 128.444 244.115 128.519C243.994 128.593 243.856 128.633 243.714 128.633V128.633Z" fill="#231F20"/>
<path d="M198.865 127.6C198.759 127.622 198.65 127.622 198.545 127.6C173.195 115.959 170.125 90.3768 170.096 90.1294C170.075 89.9308 170.134 89.7322 170.26 89.5768C170.385 89.4214 170.567 89.3219 170.765 89.2999C170.863 89.2878 170.962 89.2951 171.056 89.3215C171.151 89.348 171.24 89.3929 171.317 89.4539C171.394 89.5148 171.458 89.5905 171.506 89.6764C171.554 89.7624 171.584 89.857 171.595 89.9548C171.595 90.2021 174.621 114.955 199.243 126.101C199.423 126.184 199.563 126.334 199.634 126.519C199.705 126.704 199.7 126.909 199.621 127.091C199.566 127.245 199.462 127.378 199.326 127.469C199.19 127.561 199.029 127.607 198.865 127.6V127.6Z" fill="#231F20"/>
<path d="M83.3672 160.589C83.2091 160.544 83.07 160.449 82.971 160.317C82.8719 160.186 82.8184 160.026 82.8184 159.862C82.8184 159.697 82.8719 159.537 82.971 159.406C83.07 159.275 83.2091 159.179 83.3672 159.134C94.3393 158.799 99.6652 152.6 99.7234 152.542C99.7854 152.466 99.8617 152.404 99.9479 152.357C100.034 152.311 100.129 152.283 100.226 152.273C100.323 152.264 100.422 152.274 100.515 152.302C100.609 152.331 100.696 152.378 100.771 152.44C100.925 152.568 101.022 152.751 101.041 152.95C101.06 153.149 101 153.348 100.873 153.502C100.64 153.779 95.0523 160.284 83.4109 160.633L83.3672 160.589Z" fill="#231F20"/>
<path d="M279.555 168.505C279.387 168.507 279.224 168.451 279.092 168.348C278.96 168.245 278.866 168.101 278.827 167.938C278.827 167.676 271.973 140.857 271.027 124.777C271.021 124.68 271.035 124.582 271.067 124.49C271.099 124.397 271.148 124.312 271.213 124.239C271.278 124.166 271.357 124.107 271.445 124.064C271.533 124.022 271.628 123.997 271.726 123.991C271.924 123.979 272.119 124.046 272.269 124.177C272.419 124.307 272.511 124.492 272.526 124.69C273.472 140.624 280.224 167.298 280.282 167.574C280.331 167.767 280.302 167.971 280.201 168.143C280.1 168.314 279.936 168.439 279.744 168.491L279.555 168.505Z" fill="#231F20"/>
<path d="M162.267 173.293C162.168 173.287 162.072 173.262 161.983 173.219C161.894 173.175 161.814 173.114 161.749 173.04C161.684 172.965 161.635 172.878 161.604 172.784C161.573 172.69 161.561 172.591 161.569 172.493L165.178 115.959C165.183 115.86 165.208 115.763 165.252 115.674C165.295 115.585 165.356 115.506 165.431 115.441C165.505 115.376 165.592 115.326 165.686 115.295C165.78 115.264 165.879 115.252 165.978 115.26C166.076 115.264 166.173 115.287 166.261 115.329C166.35 115.371 166.43 115.431 166.495 115.504C166.56 115.577 166.61 115.663 166.641 115.757C166.672 115.85 166.684 115.948 166.676 116.046L163.009 172.58C163.002 172.772 162.92 172.953 162.782 173.086C162.644 173.219 162.459 173.293 162.267 173.293Z" fill="#231F20"/>
<path d="M291.108 141.672C290.973 141.673 290.841 141.638 290.725 141.568C290.61 141.499 290.515 141.399 290.453 141.279L283.41 128.182C283.332 127.991 283.332 127.777 283.41 127.586C283.478 127.39 283.619 127.229 283.803 127.135L305.631 116.817C305.72 116.773 305.816 116.747 305.915 116.741C306.014 116.734 306.113 116.748 306.207 116.78C306.3 116.813 306.386 116.864 306.46 116.93C306.534 116.996 306.593 117.077 306.635 117.167C306.721 117.346 306.732 117.552 306.666 117.74C306.601 117.928 306.464 118.083 306.286 118.171L285.127 128.153L291.501 139.969L312.936 133.421C313.032 133.392 313.132 133.383 313.231 133.393C313.33 133.403 313.427 133.432 313.514 133.48C313.602 133.527 313.68 133.591 313.743 133.668C313.806 133.746 313.853 133.835 313.882 133.93C313.911 134.026 313.92 134.126 313.91 134.225C313.9 134.325 313.87 134.421 313.823 134.509C313.776 134.597 313.712 134.674 313.634 134.737C313.557 134.8 313.468 134.847 313.373 134.876L291.327 141.686L291.108 141.672Z" fill="#231F20"/>
<path d="M310.011 307.722C329.854 307.722 345.94 302.882 345.94 296.91C345.94 290.939 329.854 286.098 310.011 286.098C290.169 286.098 274.083 290.939 274.083 296.91C274.083 302.882 290.169 307.722 310.011 307.722Z" fill="white"/>
<path d="M310.011 308.45C289.464 308.45 273.355 303.386 273.355 296.91C273.355 290.435 289.464 285.371 310.011 285.371C330.559 285.371 346.667 290.435 346.667 296.91C346.667 303.386 330.559 308.45 310.011 308.45ZM310.011 286.826C288.955 286.826 274.811 292.036 274.811 296.91C274.811 301.785 288.955 306.995 310.011 306.995C331.068 306.995 345.212 301.785 345.212 296.91C345.212 292.036 331.068 286.826 310.011 286.826V286.826Z" fill="#D1D3D4"/>
<path d="M282.93 266.031L282.072 266.192C279.475 266.579 277.112 267.911 275.436 269.931C274.496 271.367 273.978 273.038 273.939 274.753C273.901 276.469 274.344 278.161 275.218 279.637C279.03 286.506 288.315 288.368 295.474 289.082C296.487 289.247 297.525 289.167 298.501 288.849C298.982 288.684 299.401 288.375 299.701 287.964C300 287.552 300.166 287.058 300.174 286.549C300.113 286.131 299.947 285.735 299.693 285.397C299.439 285.059 299.104 284.789 298.719 284.614C297.969 284.266 297.168 284.041 296.347 283.945C291.894 283.217 287.209 282.679 283.134 280.627C280.762 279.419 277.444 276.669 279.176 273.7C279.782 272.76 280.653 272.021 281.679 271.576C285.768 269.626 289.653 271.11 293.684 272.303C293.977 272.411 294.289 272.455 294.601 272.434C294.986 272.328 295.319 272.084 295.536 271.749C295.754 271.414 295.84 271.01 295.78 270.615C295.649 268.855 293.888 267.705 292.229 267.05C289.267 265.925 286.066 265.575 282.93 266.031V266.031Z" fill="white"/>
<path d="M296.682 289.882C296.259 289.88 295.837 289.856 295.416 289.809C284.488 288.776 277.678 285.575 274.578 279.987C273.634 278.388 273.159 276.557 273.208 274.701C273.257 272.845 273.828 271.041 274.854 269.495C276.639 267.334 279.156 265.904 281.927 265.478L282.829 265.318C286.106 264.829 289.455 265.195 292.549 266.381C294.005 266.919 296.377 268.185 296.566 270.557C296.639 271.137 296.495 271.724 296.162 272.205C295.829 272.686 295.33 273.026 294.761 273.162C294.347 273.189 293.932 273.135 293.539 273.002L292.491 272.682C288.912 271.59 285.536 270.572 282.058 272.231C281.156 272.612 280.391 273.256 279.86 274.079C279.671 274.378 279.548 274.716 279.5 275.067C279.453 275.419 279.481 275.776 279.584 276.116C280.382 277.835 281.779 279.206 283.513 279.972C287.126 281.545 290.959 282.556 294.878 282.97L296.522 283.232C297.426 283.331 298.306 283.582 299.127 283.974C299.711 284.194 300.21 284.596 300.549 285.12C300.887 285.645 301.048 286.265 301.007 286.888C300.966 287.511 300.726 288.105 300.322 288.581C299.918 289.057 299.371 289.391 298.763 289.533C298.097 289.775 297.391 289.893 296.682 289.882V289.882ZM283.047 266.759L282.218 266.905C279.801 267.264 277.598 268.49 276.019 270.353C275.16 271.679 274.69 273.219 274.662 274.798C274.633 276.377 275.048 277.933 275.859 279.288C278.696 284.41 285.143 287.379 295.547 288.354C296.441 288.501 297.357 288.442 298.225 288.179C298.562 288.065 298.859 287.854 299.076 287.571C299.294 287.289 299.423 286.949 299.447 286.593C299.4 286.304 299.282 286.03 299.105 285.797C298.927 285.563 298.695 285.377 298.428 285.254C297.752 284.945 297.029 284.749 296.289 284.672L294.645 284.41C290.577 283.978 286.601 282.917 282.858 281.267C280.762 280.333 279.095 278.645 278.187 276.538C278.027 276.005 277.982 275.444 278.055 274.892C278.128 274.34 278.317 273.81 278.609 273.336C279.283 272.263 280.268 271.421 281.432 270.921C285.419 269.015 289.232 270.164 292.913 271.285L293.961 271.605C294.157 271.676 294.364 271.711 294.572 271.707C294.921 271.707 295.14 271.11 295.111 270.673C294.994 269.044 292.913 268.083 292.026 267.763C289.167 266.671 286.074 266.335 283.047 266.788V266.759Z" fill="#231F20"/>
<path d="M286.292 258.668C286.292 258.668 293.015 292.225 293.568 294.247C294.121 296.27 310.011 304.579 322.671 296.416L333.745 262.117L286.292 258.668Z" fill="white"/>
<path d="M310.288 300.679C306.484 300.648 302.718 299.928 299.171 298.555C296.377 297.478 293.204 295.732 292.855 294.437C292.317 292.414 285.856 260.196 285.579 258.814C285.553 258.705 285.553 258.591 285.58 258.482C285.607 258.373 285.66 258.272 285.734 258.187C285.808 258.103 285.902 258.038 286.007 257.998C286.111 257.957 286.224 257.943 286.336 257.955L333.789 261.477C333.9 261.482 334.008 261.513 334.105 261.567C334.201 261.621 334.284 261.697 334.346 261.789C334.409 261.881 334.448 261.986 334.463 262.096C334.477 262.206 334.466 262.318 334.43 262.423L323.356 296.721C323.301 296.879 323.193 297.013 323.05 297.1C319.237 299.513 314.8 300.757 310.288 300.679V300.679ZM287.194 259.469C288.286 264.925 293.786 292.268 294.267 294.058C294.47 294.538 297.09 296.488 301.732 297.9C306.097 299.224 314.45 300.723 322.104 295.95L332.814 262.786L287.194 259.469Z" fill="#231F20"/>
<path d="M333.859 260.625C334.093 254.94 323.639 249.894 310.51 249.356C297.381 248.817 286.548 252.989 286.315 258.674C286.082 264.359 296.536 269.405 309.665 269.944C322.794 270.482 333.626 266.31 333.859 260.625Z" fill="#231F20"/>
<path d="M311.932 270.717C311.161 270.717 310.39 270.717 309.618 270.717C295.867 270.164 285.302 264.896 285.564 258.697C285.826 252.498 296.784 248.133 310.521 248.7C324.258 249.268 334.822 254.521 334.56 260.72C334.444 263.776 331.65 266.541 326.833 268.345C322.049 270.025 317.001 270.828 311.932 270.717V270.717ZM308.28 250.039C296.74 250.039 287.209 253.822 287.005 258.77C286.801 263.951 297.191 268.767 309.677 269.276C315.345 269.607 321.023 268.811 326.382 266.934C330.602 265.318 333.076 263.005 333.178 260.604C333.396 255.409 322.992 250.592 310.521 250.083L308.28 250.039Z" fill="#231F20"/>
<path d="M253.143 165.435H176.149C175.956 165.435 175.771 165.358 175.635 165.222C175.499 165.085 175.422 164.9 175.422 164.707V141.977C175.426 141.786 175.503 141.603 175.639 141.467C175.775 141.331 175.958 141.254 176.149 141.25H253.143C253.336 141.25 253.521 141.326 253.657 141.463C253.794 141.599 253.871 141.784 253.871 141.977V164.751C253.859 164.936 253.778 165.11 253.643 165.237C253.507 165.365 253.329 165.435 253.143 165.435V165.435ZM176.877 163.98H252.415V142.705H176.877V163.98Z" fill="white"/>
<path d="M395.911 326.509H0.727539V341.744H395.911V326.509Z" fill="white"/>
<path d="M395.925 342.472H0.72759C0.534621 342.472 0.349555 342.395 0.213105 342.259C0.076656 342.122 0 341.937 0 341.744V326.509C0.00372537 326.317 0.0815796 326.134 0.21723 325.998C0.35288 325.863 0.535787 325.785 0.72759 325.781H395.925C396.117 325.785 396.3 325.863 396.435 325.998C396.571 326.134 396.649 326.317 396.653 326.509V341.744C396.653 341.937 396.576 342.122 396.44 342.259C396.303 342.395 396.118 342.472 395.925 342.472ZM1.45518 341.017H395.198V327.236H1.45518V341.017Z" fill="#D1D3D4"/>
<path d="M333.731 184.221C333.539 184.214 333.358 184.132 333.225 183.994C333.092 183.856 333.017 183.671 333.018 183.479C333.018 181.806 334.08 142.356 338.431 128.692C342.782 115.028 350.945 109.338 351.28 109.119C351.44 109.011 351.637 108.971 351.826 109.008C352.016 109.045 352.183 109.156 352.291 109.316C352.399 109.476 352.44 109.673 352.403 109.862C352.366 110.052 352.255 110.219 352.095 110.327C352.008 110.327 344.048 115.842 339.813 129.128C335.579 142.414 334.487 183.101 334.473 183.508C334.471 183.604 334.45 183.698 334.412 183.786C334.374 183.873 334.318 183.952 334.249 184.019C334.181 184.085 334.099 184.137 334.01 184.172C333.921 184.206 333.826 184.223 333.731 184.221Z" fill="white"/>
</svg>
