<svg width="596" height="686" viewBox="0 0 596 686" fill="none" xmlns="http://www.w3.org/2000/svg">
<path d="M59.3913 392.531L116.018 392.65C116.018 392.65 117.489 369.186 122.678 352.141C136.543 306.566 166.162 290.592 183.958 277.066C193.51 269.806 200.188 195.344 190.337 197.044C159.723 202.332 107.35 223.168 71.9891 297.469C49.4389 344.855 59.3913 392.531 59.3913 392.531Z" fill="#5D9EA6"/>
<path d="M524.159 158.091C522.704 133.667 495.756 115.874 495.756 115.874C495.756 115.874 430.726 164.705 417.439 176.581C390.057 201.065 333.294 200.606 311.084 198.03C299.159 196.644 344.608 267.162 344.608 267.162C344.608 267.162 406.279 266.431 466.095 238.343C513.594 216.036 525.426 179.54 524.159 158.091Z" fill="#5D9EA6"/>
<path d="M459.077 521.911C458.983 521.911 458.89 521.894 458.805 521.869L345.314 483.086C345.101 483.01 344.922 482.857 344.829 482.653C344.727 482.449 344.718 482.219 344.786 482.006L383.762 368.081C383.915 367.639 384.4 367.401 384.842 367.554C385.285 367.707 385.523 368.191 385.37 368.633L346.675 481.751L458.618 519.999C460.957 514.566 475.987 479.439 489.98 443.938C517.439 374.236 517.056 363.626 515.618 362.3C504.075 351.639 409.238 328.762 399.788 326.501L390.21 354.445C390.057 354.887 389.572 355.125 389.13 354.972C388.687 354.819 388.449 354.334 388.602 353.892L398.41 325.209C398.555 324.792 398.988 324.554 399.414 324.656C403.692 325.668 504.347 349.582 516.758 361.042C518.298 362.47 522.398 366.253 491.545 444.558C476.396 483.01 460.021 521.01 459.851 521.384C459.723 521.716 459.409 521.911 459.077 521.911Z" fill="black"/>
<path d="M404.064 351.521L393.023 383.793L425.315 394.827L436.355 362.555L404.064 351.521Z" fill="#45BC7A"/>
<path d="M425.324 395.634C425.23 395.634 425.137 395.617 425.052 395.591L392.762 384.556C392.549 384.48 392.371 384.327 392.277 384.123C392.175 383.919 392.166 383.689 392.234 383.477L403.276 351.206C403.429 350.764 403.914 350.526 404.356 350.679L415.95 354.64C416.392 354.793 416.63 355.278 416.477 355.72C416.324 356.162 415.839 356.4 415.397 356.247L404.603 352.558L394.114 383.222L424.797 393.704L428.344 383.349C428.497 382.907 428.982 382.669 429.424 382.822C429.866 382.975 430.105 383.46 429.951 383.902L426.132 395.064C426.013 395.413 425.681 395.634 425.324 395.634Z" fill="black"/>
<path d="M412.403 381.564C412.275 381.564 412.156 381.538 412.037 381.479C411.799 381.36 411.62 381.139 411.569 380.875L407.622 361.237C407.529 360.778 407.826 360.328 408.286 360.234C408.745 360.141 409.196 360.438 409.289 360.897L413.015 379.421L455.623 357.123C456.04 356.902 456.55 357.063 456.772 357.48C456.993 357.896 456.831 358.406 456.414 358.627L412.802 381.453C412.675 381.53 412.539 381.564 412.403 381.564Z" fill="black"/>
<path d="M382.397 415.63L371.356 447.902L403.648 458.935L414.688 426.663L382.397 415.63Z" fill="#45BC7A"/>
<path d="M403.659 459.742C403.565 459.742 403.472 459.725 403.387 459.699L371.097 448.664C370.654 448.511 370.416 448.027 370.569 447.585L381.611 415.314C381.687 415.101 381.84 414.923 382.044 414.829C382.249 414.736 382.478 414.719 382.691 414.787L394.285 418.748C394.727 418.901 394.965 419.386 394.812 419.828C394.659 420.27 394.174 420.508 393.732 420.355L382.938 416.666L372.449 447.33L403.132 457.812L406.679 447.457C406.832 447.015 407.317 446.777 407.759 446.93C408.201 447.083 408.439 447.568 408.286 448.01L404.467 459.172C404.348 459.521 404.016 459.742 403.659 459.742Z" fill="black"/>
<path d="M390.746 445.672C390.618 445.672 390.499 445.646 390.38 445.587C390.142 445.468 389.963 445.247 389.912 444.983L385.965 425.345C385.872 424.886 386.17 424.436 386.629 424.342C387.088 424.249 387.539 424.546 387.633 425.005L391.358 443.53L433.967 421.231C434.383 421.01 434.894 421.171 435.115 421.588C435.336 422.004 435.174 422.514 434.758 422.735L391.146 445.561C391.018 445.638 390.882 445.672 390.746 445.672Z" fill="black"/>
<path d="M501.132 586.215C491.98 585.883 397.985 523.161 397.985 523.161L489.368 382.006L595.637 454.454C595.646 454.462 508.762 586.496 501.132 586.215Z" fill="#FF3F55"/>
<path d="M503.539 599.97C503.505 599.97 503.48 599.97 503.446 599.97C493.74 599.911 405.198 535.964 401.43 533.235C401.055 532.963 400.97 532.445 401.225 532.07L469.114 432.606C469.378 432.215 469.905 432.121 470.297 432.385C470.688 432.648 470.781 433.175 470.518 433.566L403.097 532.351C429.109 551.147 495.909 598.227 503.454 598.278C512.666 598.278 562.071 517.941 593.315 463.482L495.577 396.858L478.965 421.197C478.701 421.588 478.173 421.681 477.782 421.418C477.391 421.154 477.297 420.627 477.561 420.236L494.65 395.2C494.914 394.809 495.441 394.715 495.833 394.979L594.922 462.53C595.288 462.777 595.399 463.27 595.178 463.652C594.982 463.992 575.443 498.048 554.56 531.662C512.684 599.069 505.776 599.97 503.539 599.97Z" fill="black"/>
<path d="M500.145 469.722C499.975 469.722 499.805 469.671 499.669 469.577L471.479 450.356C471.292 450.229 471.164 450.033 471.122 449.812C471.079 449.591 471.13 449.361 471.258 449.174L490.491 421.001C490.754 420.61 491.282 420.517 491.673 420.78L501.795 427.683C502.187 427.947 502.28 428.474 502.017 428.865C501.753 429.256 501.225 429.349 500.834 429.086L491.409 422.667L473.138 449.438L499.924 467.699L506.091 458.653C506.355 458.262 506.882 458.169 507.273 458.432C507.665 458.696 507.758 459.223 507.495 459.614L500.843 469.356C500.715 469.543 500.519 469.671 500.298 469.714C500.247 469.714 500.196 469.722 500.145 469.722Z" fill="black"/>
<path d="M514.078 471.507C513.679 471.507 513.321 471.227 513.245 470.819L502.62 414.617C502.535 414.158 502.833 413.707 503.301 413.622C503.76 413.537 504.211 413.835 504.296 414.302L514.921 470.504C515.006 470.963 514.708 471.414 514.24 471.499C514.181 471.499 514.129 471.507 514.078 471.507Z" fill="black"/>
<path d="M480.648 448.715C480.249 448.715 479.891 448.435 479.815 448.027C479.73 447.568 480.027 447.117 480.495 447.032L536.739 436.414C537.198 436.329 537.649 436.627 537.734 437.094C537.819 437.553 537.521 438.004 537.054 438.089L480.81 448.707C480.75 448.707 480.699 448.715 480.648 448.715Z" fill="black"/>
<path d="M456.508 533.652C456.347 533.652 456.176 533.601 456.032 533.507L427.842 514.286C427.451 514.022 427.357 513.495 427.621 513.104L446.854 484.931C447.117 484.54 447.645 484.446 448.036 484.71L458.158 491.613C458.55 491.876 458.643 492.403 458.38 492.794C458.116 493.186 457.589 493.279 457.197 493.016L447.772 486.597L429.501 513.368L456.287 531.628L462.454 522.583C462.718 522.192 463.245 522.098 463.637 522.362C464.028 522.625 464.121 523.153 463.858 523.544L457.206 533.286C457.053 533.516 456.78 533.652 456.508 533.652Z" fill="black"/>
<path d="M470.45 535.437C470.05 535.437 469.693 535.156 469.616 534.748L458.992 478.546C458.907 478.087 459.205 477.637 459.673 477.552C460.132 477.467 460.583 477.764 460.668 478.232L471.292 534.434C471.377 534.893 471.08 535.343 470.612 535.428C470.552 535.428 470.501 535.437 470.45 535.437Z" fill="black"/>
<path d="M437.012 512.645C436.612 512.645 436.255 512.364 436.178 511.956C436.093 511.497 436.391 511.047 436.859 510.962L493.102 500.344C493.562 500.25 494.012 500.556 494.097 501.024C494.183 501.483 493.885 501.933 493.417 502.018L437.173 512.637C437.122 512.637 437.071 512.645 437.012 512.645Z" fill="black"/>
<path d="M361.042 130.198C349.55 130.198 321.743 144.021 310.523 145.373C296.564 147.048 268.935 146.504 269.284 139.686C269.761 130.232 307.044 133.718 304.415 128.166C301.378 121.74 277.74 122.573 270.773 123.984C260.803 125.99 246.036 143.622 237.564 137.994C233.175 135.078 241.341 123.55 241.341 123.55C241.111 119.376 242.43 109.77 245.075 104.295C252.161 89.6047 273.988 82.6252 288.185 78.9866C306.44 74.3109 344.931 75.9942 365.899 77.2779C440.057 81.8175 481.134 106.939 481.134 106.939L432.656 160.369C432.673 160.369 389.58 130.198 361.042 130.198Z" fill="#FFA5B2"/>
<path d="M432.674 161.219C432.504 161.219 432.333 161.168 432.189 161.066C431.764 160.769 388.985 131.048 361.051 131.048C354.867 131.048 343.723 135.189 332.954 139.201C324.116 142.491 315.763 145.594 310.634 146.215C298.895 147.626 275.188 147.592 269.718 142.491C268.817 141.649 268.383 140.689 268.442 139.643C268.749 133.624 280.641 132.375 291.137 131.278C296.411 130.725 302.978 130.037 303.684 128.779C303.701 128.745 303.727 128.694 303.65 128.541C300.945 122.828 278.208 123.363 270.943 124.825C267.184 125.582 262.471 128.83 257.912 131.967C250.443 137.11 242.711 142.432 237.105 138.708C236.255 138.147 235.727 137.305 235.523 136.226C234.732 131.992 239.504 124.749 240.499 123.304C240.338 118.858 241.707 109.362 244.327 103.929C252.349 87.3093 279.178 80.4318 287.999 78.1705C301.396 74.736 328.361 74.1409 365.976 76.4362C439.487 80.9334 481.194 105.97 481.602 106.216C481.815 106.352 481.968 106.573 482.002 106.82C482.036 107.066 481.959 107.321 481.789 107.508L433.312 160.939C433.133 161.126 432.903 161.219 432.674 161.219ZM361.042 129.348C387.999 129.348 426.966 155.413 432.546 159.247L479.816 107.143C473.419 103.538 433.031 82.2341 365.865 78.1195C328.42 75.8326 301.643 76.4107 288.415 79.8027C279.79 82.013 253.531 88.7461 245.858 104.652C243.298 109.965 241.988 119.359 242.209 123.491C242.218 123.686 242.167 123.873 242.056 124.026C240.499 126.228 236.595 132.647 237.199 135.894C237.318 136.515 237.59 136.974 238.049 137.271C242.702 140.357 249.941 135.367 256.951 130.547C261.867 127.163 266.512 123.967 270.612 123.134C276.677 121.91 301.728 120.464 305.19 127.792C305.564 128.583 305.385 129.204 305.164 129.595C304.075 131.524 299.431 132.103 291.307 132.953C282.469 133.879 270.365 135.146 270.135 139.711C270.11 140.247 270.348 140.748 270.875 141.233C275.537 145.577 297.415 146.07 310.43 144.506C315.355 143.911 323.614 140.842 332.359 137.586C343.264 133.548 354.543 129.348 361.042 129.348Z" fill="black"/>
<path d="M253.794 116.707C253.667 116.707 253.539 116.681 253.42 116.613C253.012 116.401 252.833 115.916 253.029 115.5C253.207 115.125 255.164 111.631 269.004 103.64C273.937 100.792 278.871 100.019 283.226 99.3386C284.944 99.0666 286.578 98.8115 288.1 98.4545C288.551 98.344 289.019 98.6245 289.121 99.0836C289.232 99.5426 288.951 100.002 288.492 100.104C286.901 100.486 285.242 100.741 283.49 101.013C279.288 101.668 274.516 102.416 269.863 105.111C256.516 112.822 254.577 116.222 254.56 116.256C254.398 116.545 254.101 116.707 253.794 116.707Z" fill="black"/>
<path d="M253.114 103.028C252.935 103.028 252.757 102.969 252.604 102.858C252.229 102.578 252.153 102.042 252.442 101.668C252.612 101.447 256.61 96.2528 265.202 93.1923C265.644 93.0308 266.129 93.2688 266.29 93.7109C266.443 94.153 266.214 94.6375 265.772 94.7991C257.691 97.681 253.837 102.654 253.795 102.705C253.633 102.918 253.378 103.028 253.114 103.028Z" fill="black"/>
<path d="M335.276 200.283C327.204 200.283 319.055 199.815 310.982 198.863C310.514 198.812 310.183 198.387 310.234 197.919C310.285 197.452 310.71 197.12 311.178 197.171C335.787 200.062 361.118 198.464 382.503 192.674C404.858 186.63 421.258 176.275 428.667 163.523C428.905 163.115 429.424 162.979 429.832 163.217C430.241 163.455 430.377 163.974 430.139 164.382C422.389 177.712 406.066 188.066 382.946 194.323C368.383 198.268 352.008 200.283 335.276 200.283Z" fill="black"/>
<path d="M325.349 268.599C310.404 268.599 297.092 267.443 286.45 265.122C285.991 265.02 285.702 264.569 285.804 264.11C285.906 263.651 286.357 263.362 286.816 263.464C329.586 272.782 412.888 262.01 458.227 241.293C494.353 224.792 521.114 193.635 523.3 165.529C524.771 146.58 515.091 129.646 495.288 116.579C494.897 116.324 494.787 115.797 495.05 115.397C495.305 115.006 495.841 114.896 496.224 115.159C516.571 128.591 526.515 146.053 524.992 165.657C522.764 194.349 495.595 226.084 458.932 242.832C437.241 252.736 405.717 260.939 372.432 265.317C355.853 267.511 339.836 268.599 325.349 268.599Z" fill="black"/>
<path d="M322.568 224.018C322.117 224.018 321.743 223.67 321.717 223.219C321.692 222.752 322.049 222.352 322.517 222.318C323.495 222.259 420.705 216.138 447.16 170.426C447.398 170.018 447.917 169.882 448.325 170.112C448.733 170.35 448.869 170.868 448.631 171.276C434.545 195.624 400.987 208.665 375.324 215.322C347.602 222.505 322.866 224.001 322.619 224.018C322.602 224.018 322.585 224.018 322.568 224.018Z" fill="black"/>
<path d="M370.246 245.442C369.778 245.442 369.404 245.067 369.395 244.6C369.387 244.132 369.769 243.75 370.237 243.741C370.535 243.741 400.562 243.104 451.192 218.646C477.91 205.741 494.293 176.964 490.168 150.21C490.1 149.743 490.414 149.309 490.882 149.241C491.35 149.173 491.784 149.488 491.852 149.955C496.097 177.423 479.314 206.956 451.94 220.176C400.92 244.821 370.561 245.433 370.263 245.442C370.254 245.442 370.246 245.442 370.246 245.442Z" fill="black"/>
<path d="M462.718 185.261C441.435 185.261 427.63 181.512 427.417 181.452C426.966 181.325 426.702 180.857 426.83 180.407C426.958 179.956 427.425 179.693 427.876 179.82C428.208 179.914 461.357 188.899 504.331 178.715C504.79 178.604 505.25 178.893 505.352 179.344C505.462 179.803 505.182 180.262 504.722 180.364C489.079 184.071 474.712 185.261 462.718 185.261Z" fill="black"/>
<path d="M463.747 228.269C463.73 228.269 463.721 228.269 463.704 228.269C427.663 226.424 399.473 194.51 399.193 194.187C398.886 193.83 398.92 193.295 399.278 192.989C399.635 192.683 400.171 192.717 400.477 193.074C400.758 193.388 428.48 224.775 463.789 226.577C464.257 226.603 464.623 227.002 464.598 227.47C464.572 227.92 464.198 228.269 463.747 228.269Z" fill="black"/>
<path d="M412.514 250.67C412.386 250.67 412.267 250.644 412.148 250.585C380.173 235.112 371.471 204.346 371.386 204.04C371.258 203.59 371.53 203.122 371.981 202.995C372.432 202.876 372.9 203.139 373.027 203.59C373.112 203.887 381.627 233.931 412.888 249.055C413.313 249.259 413.492 249.769 413.279 250.194C413.126 250.491 412.828 250.67 412.514 250.67Z" fill="black"/>
<path d="M359.919 259.588C359.604 259.588 359.298 259.409 359.154 259.112C349.074 238.284 348.223 207.203 348.215 206.888C348.206 206.421 348.572 206.03 349.048 206.021C349.533 205.987 349.907 206.378 349.916 206.854C349.924 207.16 350.758 237.884 360.685 258.372C360.889 258.797 360.71 259.307 360.294 259.511C360.166 259.562 360.038 259.588 359.919 259.588Z" fill="black"/>
<path d="M388.789 151.587C400.043 162.877 405.496 169.279 410.004 175.935C411.637 178.349 415.448 178.519 418.323 177.338C433.847 170.945 489.138 148.884 497.44 109.855C497.985 107.287 496.939 104.703 494.786 103.02L460.804 83.8833C457.435 81.2649 452.136 82.1915 449.933 85.7876C430.785 117.055 401.634 134.347 387.973 142.61C383.924 145.067 385.617 148.399 388.789 151.587Z" fill="#FFD864"/>
<path d="M414.725 178.877C412.582 178.877 410.506 178.145 409.29 176.394C404.424 169.449 395.076 158.397 386.612 150.72C385.268 149.496 384.63 148.034 384.774 146.504C384.987 144.31 386.833 141.998 389.853 140.179L391.163 139.388C405.011 131.031 430.777 115.466 449.227 85.3455C450.392 83.4412 452.408 82.1065 454.756 81.6815C457.112 81.2564 459.494 81.8005 461.297 83.1777L495.016 102.119C495.05 102.136 495.084 102.161 495.127 102.187C497.704 104.193 498.802 107.296 497.993 110.28C487.488 149.122 436.459 170.605 419.684 177.661L418.74 178.06C417.49 178.579 416.086 178.877 414.725 178.877ZM456.321 83.2372C455.896 83.2372 455.47 83.2712 455.045 83.3562C453.174 83.6963 451.583 84.7419 450.664 86.2381C432.002 116.707 406.006 132.409 392.03 140.842L390.72 141.632C388.211 143.154 386.62 145.033 386.459 146.665C386.365 147.66 386.79 148.604 387.743 149.462C396.301 157.224 405.751 168.403 410.676 175.417C412.148 177.516 415.584 177.533 418.068 176.488L419.012 176.088C435.591 169.109 486.051 147.872 496.335 109.829C496.956 107.534 496.105 105.136 494.106 103.564L460.396 84.6229C460.362 84.6059 460.327 84.5804 460.285 84.5549C459.179 83.6878 457.784 83.2372 456.321 83.2372Z" fill="black"/>
<path d="M411.458 158.045C412.489 156.293 411.454 153.772 409.146 152.415C406.838 151.058 404.131 151.379 403.1 153.131C402.068 154.883 403.103 157.404 405.411 158.761C407.719 160.118 410.426 159.797 411.458 158.045Z" fill="black"/>
<path d="M182.308 355.032C175.103 351.053 170.161 312.228 170.161 312.228C170.161 312.228 160.736 224.664 178.446 202.391C188.781 189.401 302.697 186.596 328.693 205.341C350.146 220.813 343.723 267.315 343.996 293.754C344.123 305.682 338.449 354.589 338.449 354.589C338.449 354.589 249.567 392.182 182.308 355.032Z" fill="#5D9EA6"/>
<path d="M268.297 143.384C267.472 146.742 265.933 151.443 270.007 152.021C272.193 152.336 276.336 148.748 277.042 145.365C278.071 140.468 276.761 138.462 273.963 138.385C271.777 138.317 269.131 140.026 268.297 143.384Z" fill="#FFA5B2"/>
<path d="M270.288 152.888C270.152 152.888 270.016 152.88 269.888 152.863C268.646 152.684 267.719 152.157 267.141 151.298C265.882 149.411 266.622 146.504 267.277 143.936L267.464 143.18C268.408 139.371 271.496 137.458 273.988 137.526C275.434 137.569 276.532 138.062 277.263 138.988C278.318 140.332 278.522 142.474 277.876 145.534C277.144 149.054 273.095 152.888 270.288 152.888ZM273.844 139.226C272.015 139.226 269.837 140.706 269.123 143.588L268.927 144.353C268.391 146.461 267.719 149.096 268.561 150.346C268.867 150.797 269.378 151.069 270.135 151.179C271.726 151.417 275.579 148.255 276.217 145.186C276.736 142.712 276.642 140.935 275.936 140.043C275.528 139.524 274.873 139.252 273.946 139.226C273.912 139.226 273.878 139.226 273.844 139.226Z" fill="black"/>
<path d="M229.594 141.437C230.419 144.795 231.959 149.496 227.884 150.074C225.698 150.389 221.555 146.801 220.849 143.418C219.82 138.521 221.13 136.515 223.929 136.438C226.115 136.362 228.769 138.079 229.594 141.437Z" fill="#FFA5B2"/>
<path d="M227.603 150.941C224.796 150.941 220.756 147.107 220.015 143.588C219.369 140.519 219.573 138.385 220.628 137.042C221.359 136.115 222.465 135.622 223.903 135.58C226.446 135.503 229.483 137.424 230.427 141.233L230.614 141.989C231.269 144.557 232.009 147.464 230.75 149.352C230.172 150.21 229.253 150.737 228.003 150.916C227.875 150.933 227.739 150.941 227.603 150.941ZM224.047 137.28C224.013 137.28 223.979 137.28 223.954 137.28C223.027 137.305 222.372 137.569 221.963 138.096C221.257 138.989 221.164 140.774 221.683 143.239C222.329 146.3 226.174 149.462 227.765 149.233C228.522 149.122 229.032 148.859 229.338 148.399C230.18 147.15 229.509 144.514 228.973 142.406L228.777 141.641C228.054 138.759 225.876 137.28 224.047 137.28Z" fill="black"/>
<path d="M328.693 206.2C328.523 206.2 328.344 206.149 328.199 206.038C313.322 195.309 276.651 193.176 256.109 192.853C226.09 192.394 198.725 195.088 190.61 197.851C190.168 198.004 189.683 197.766 189.53 197.324C189.377 196.882 189.615 196.398 190.057 196.245C208.354 190.013 303.344 186.018 329.186 204.661C329.569 204.933 329.654 205.469 329.382 205.851C329.22 206.081 328.957 206.2 328.693 206.2Z" fill="black"/>
<path d="M339.07 355.788C339.044 355.788 339.019 355.788 338.985 355.788C338.517 355.746 338.176 355.329 338.219 354.861C338.287 354.096 345.492 277.84 343.842 261.9C343.791 261.432 344.131 261.016 344.599 260.965C345.066 260.914 345.483 261.254 345.534 261.722C347.202 277.831 340.209 351.878 339.912 355.023C339.869 355.457 339.503 355.788 339.07 355.788Z" fill="black"/>
<path d="M227.212 185.405C227.586 181.223 230.921 178.519 235.472 176.904C241.256 174.864 253.879 174.915 259.791 176.539C265.125 178.001 269.846 180.713 271.053 185.405C272.083 189.426 268.076 200.861 268.076 200.861L229.441 198.837C229.441 198.837 226.982 187.981 227.212 185.405Z" fill="black"/>
<path d="M250.477 685.051C251.047 677.281 251.583 670.454 252.051 664.928C256.066 617.814 268.094 524.691 269.863 477.033C270.96 447.576 264.376 356.519 264.376 356.519C236.221 359.206 177.944 349.191 177.944 349.191C177.944 349.191 159.689 412.202 155.215 433.592C144.676 483.936 133.15 579.856 126.251 637.282C124.822 649.15 123.393 665.889 122.023 685.051H250.477Z" fill="black"/>
<path d="M269.276 666.756C269.71 671.857 270.152 678.046 270.603 685.051H394.974C393.936 666.697 392.975 650.638 392.184 639.068C387.999 577.637 375.469 484.2 364.181 433.6C359.409 412.228 340.363 349.293 340.363 349.293L250.877 357.522C250.877 357.522 248.436 447.585 249.533 477.033C251.294 524.691 265.253 619.642 269.276 666.756Z" fill="black"/>
<path d="M166.154 405.605C166.154 405.605 178.241 407.093 184.391 396.39C190.601 385.568 192.149 370.045 192.149 370.045L176.6 366.551L166.154 405.605Z" fill="#FFD864"/>
<path d="M351.6 398.728C351.6 398.728 337.233 401.015 330.147 388.629C322.619 375.469 321.445 369.722 321.445 369.722L341.834 364.893L351.6 398.728Z" fill="#FFD864"/>
<path d="M195.407 194.935C195.441 208.631 195.645 255.813 197.04 281.436C198.095 300.861 202.689 353.178 204.084 368.939C204.313 371.515 206.474 373.488 209.06 373.488C211.535 373.488 213.517 371.456 213.449 368.99C212.998 352.022 211.348 291.697 210.013 269.05C209.017 252.259 206.304 206.973 205.002 193.635C204.79 191.475 195.399 192.793 195.407 194.935Z" fill="#FFD864"/>
<path d="M305.428 191.994C305.13 205.902 303.939 256.366 302 282.558C300.537 302.332 295.373 354.13 293.859 369.229C293.613 371.66 291.69 373.564 289.291 373.768C286.289 374.023 283.754 371.549 283.898 368.497C284.758 350.041 287.522 292.147 289.291 269.755C290.635 252.719 294.395 205.171 296.003 191.135C296.233 188.942 305.471 189.937 305.428 191.994Z" fill="#FFD864"/>
<path d="M297.279 359.605C297.254 359.605 297.228 359.605 297.194 359.605C296.726 359.554 296.386 359.172 296.428 358.704C301.821 305.571 301.821 305.571 303.54 282.422L303.548 282.311C305.785 252.115 306.687 207.305 306.696 206.854C306.704 206.387 307.087 206.021 307.546 206.021C308.031 206.03 308.405 206.421 308.397 206.888C308.388 207.339 307.487 252.2 305.241 282.439L305.232 282.55C303.514 305.724 303.514 305.724 298.121 358.823C298.087 359.257 297.713 359.605 297.279 359.605Z" fill="black"/>
<path d="M263.688 193.516L248.58 203.819L234.987 193.516V158.695L263.688 155.252V193.516Z" fill="#FFA5B2"/>
<path d="M248.572 204.669C248.393 204.669 248.206 204.61 248.062 204.499L234.469 194.204C234.256 194.043 234.128 193.796 234.128 193.524V158.703C234.128 158.269 234.452 157.912 234.877 157.861L263.577 154.418C263.815 154.393 264.062 154.461 264.241 154.622C264.419 154.784 264.53 155.013 264.53 155.26V193.524C264.53 193.805 264.394 194.068 264.156 194.23L249.04 204.525C248.912 204.618 248.742 204.669 248.572 204.669ZM235.838 193.099L248.606 202.774L262.846 193.074V156.221L235.847 159.46V193.099H235.838Z" fill="black"/>
<path d="M270.467 140.136C270.467 157.606 260.778 171.77 248.835 171.77C236.892 171.77 227.204 157.606 227.204 140.136C227.204 122.666 229.807 107.61 248.835 108.503C270.475 109.523 270.467 122.666 270.467 140.136Z" fill="#FFA5B2"/>
<path d="M246.47 153.373C246.258 153.373 246.053 153.356 245.849 153.313C244.999 153.152 244.31 152.642 243.867 151.842C242.957 150.21 243.859 147.949 244.914 145.339C245.747 143.265 246.691 140.918 246.683 138.827C246.683 138.359 247.066 137.977 247.534 137.977C248.001 137.977 248.384 138.359 248.384 138.827C248.393 141.25 247.38 143.758 246.496 145.977C245.679 148 244.846 150.1 245.364 151.018C245.569 151.375 245.824 151.579 246.181 151.647C247.483 151.893 249.584 150.474 250.213 149.955C250.579 149.658 251.115 149.717 251.412 150.074C251.71 150.44 251.651 150.975 251.293 151.273C250.996 151.502 248.631 153.373 246.47 153.373Z" fill="black"/>
<path d="M246.819 160.267C246.454 160.267 246.122 160.038 246.011 159.672C245.867 159.222 246.122 158.746 246.564 158.61C249.286 157.759 251.03 158.193 251.107 158.219C251.557 158.338 251.83 158.805 251.711 159.256C251.591 159.706 251.124 159.987 250.673 159.859C250.664 159.859 249.286 159.536 247.075 160.233C246.99 160.25 246.905 160.267 246.819 160.267Z" fill="black"/>
<path d="M255.121 130.717C257.988 130.861 263.406 133.276 262.811 135.885C262.624 136.693 261.926 134.321 254.126 133.123C252.876 132.927 253.105 130.615 255.121 130.717Z" fill="black"/>
<path d="M241.308 131.916C238.73 131.771 234.001 133.641 234.264 136.294C234.35 137.118 236.808 134.049 241.784 134.321C242.915 134.381 243.12 132.018 241.308 131.916Z" fill="black"/>
<path d="M260.556 141.412C260.369 141.412 260.182 141.352 260.021 141.225C257.52 139.201 256.763 138.598 253.658 140.051C253.233 140.255 252.722 140.068 252.526 139.643C252.331 139.218 252.509 138.708 252.935 138.513C256.839 136.676 258.26 137.612 261.092 139.898C261.458 140.196 261.518 140.732 261.22 141.097C261.05 141.31 260.803 141.412 260.556 141.412Z" fill="black"/>
<path d="M242.532 139.711C242.32 139.711 242.098 139.626 241.937 139.465C240.406 137.951 239.113 138.538 237.445 139.533C237.037 139.771 236.518 139.643 236.28 139.235C236.042 138.836 236.169 138.309 236.578 138.071C237.973 137.237 240.559 135.699 243.136 138.249C243.468 138.581 243.476 139.116 243.145 139.448C242.975 139.626 242.753 139.711 242.532 139.711Z" fill="black"/>
<path d="M256.381 140.901C256.959 140.901 257.784 140.561 257.784 139.652C257.784 138.691 256.151 137.849 255.547 139.337C255.326 139.881 255.717 140.901 256.381 140.901Z" fill="black"/>
<path d="M239.292 139.915C239.836 139.915 240.619 139.601 240.619 138.767C240.619 137.892 239.079 137.11 238.501 138.478C238.305 138.971 238.671 139.915 239.292 139.915Z" fill="black"/>
<path d="M271.479 149.385C271.19 149.385 270.867 149.351 270.509 149.275C270.05 149.181 269.752 148.731 269.846 148.272C269.939 147.813 270.39 147.515 270.85 147.609C271.598 147.762 271.785 147.634 271.794 147.634C271.947 147.456 271.794 146.469 271.717 145.993C271.539 144.863 271.334 143.588 272.083 142.72C272.508 142.219 273.163 141.964 274.022 141.964C274.49 141.964 274.873 142.346 274.873 142.814C274.873 143.282 274.49 143.664 274.022 143.664C273.699 143.664 273.461 143.724 273.376 143.826C273.138 144.098 273.291 145.041 273.401 145.73C273.589 146.895 273.776 148.102 272.968 148.867C272.61 149.215 272.117 149.385 271.479 149.385Z" fill="black"/>
<path d="M226.413 147.439C225.775 147.439 225.282 147.269 224.924 146.92C224.116 146.155 224.312 144.948 224.491 143.783C224.601 143.095 224.746 142.151 224.516 141.879C224.431 141.777 224.193 141.717 223.87 141.717C223.402 141.717 223.019 141.335 223.019 140.867C223.019 140.4 223.402 140.017 223.87 140.017C224.729 140.017 225.384 140.272 225.809 140.774C226.549 141.641 226.353 142.925 226.175 144.047C226.098 144.523 225.945 145.509 226.098 145.688C226.098 145.688 226.294 145.815 227.034 145.662C227.493 145.568 227.944 145.866 228.038 146.325C228.131 146.784 227.834 147.235 227.374 147.328C227.026 147.396 226.702 147.439 226.413 147.439Z" fill="black"/>
<path d="M238.449 189.733C237.981 189.733 237.598 189.35 237.598 188.883V175.349C237.598 174.881 237.981 174.499 238.449 174.499C238.917 174.499 239.299 174.881 239.299 175.349V188.883C239.299 189.35 238.925 189.733 238.449 189.733Z" fill="black"/>
<path d="M237.897 104.397C218.222 109.923 223.853 130.164 223.343 135.971C223.232 137.229 227.732 137.365 229.101 139.822C231.475 144.098 231.687 140.111 231.22 136.336C229.901 125.735 232.198 120.872 236.315 119.699C238.016 119.215 237.659 120.337 241.47 122.08C244.021 123.423 248.062 125.038 250.903 124.987C255.956 124.902 255.752 120.609 260.558 120.082C265.015 119.597 267.431 129.391 266.121 138.283C265.568 142.049 266.699 145.603 269.081 141.326C270.45 138.861 273.036 139.227 273.981 138.377C280.437 132.511 275.75 93.7618 237.897 104.397Z" fill="black"/>
<path d="M248.58 203.819L271.054 185.406C271.054 185.406 273.087 192.317 272.747 195.743C272.092 202.442 261.646 214.743 261.646 214.743L248.58 203.819Z" fill="black"/>
<path d="M248.58 203.819L227.519 183.884C227.519 183.884 224.592 192.071 224.057 195.029C222.857 201.652 235.625 214.99 235.625 214.99L248.58 203.819Z" fill="black"/>
<path d="M191.018 351.24C191.018 351.24 182.537 328.431 180.674 319.896C178.803 311.318 174.108 283.901 174.108 283.901C174.108 283.901 168.221 286.936 168.221 288.543C168.238 337.969 178.956 350.16 178.956 350.16L191.018 351.24Z" fill="black"/>
<path d="M267.983 154.376C264.912 152.523 261.289 157.819 259.409 158.694C256.933 159.842 254.994 156.306 253.301 155.251C251.217 153.951 245.875 153.696 243.468 155.251C241.979 156.221 241.146 157.572 238.968 157.64C236.229 157.717 232.495 151.137 229.909 152.038C225.537 153.56 231.627 167.74 238.449 171.769C243.349 174.66 253.786 174.677 258.847 172.058C263.347 169.729 270.586 155.957 267.983 154.376ZM253.301 162.359C251.336 164.798 243.502 164.441 243.468 161.304C243.451 159.519 244.931 157.555 245.926 157.207C247.687 156.586 250.97 156.518 252.314 157.802C253.727 159.162 254.084 161.389 253.301 162.359Z" fill="black"/>
<path d="M248.572 350.05C248.112 350.05 247.73 349.684 247.721 349.217L244.718 214.769C244.71 214.301 245.084 213.91 245.552 213.902C246.028 213.902 246.411 214.267 246.42 214.735L249.422 349.183C249.431 349.65 249.057 350.041 248.589 350.05C248.589 350.05 248.58 350.05 248.572 350.05Z" fill="black"/>
<path d="M241.367 320.754C240.899 320.754 240.517 320.372 240.517 319.904V237.833C240.517 237.365 240.899 236.983 241.367 236.983C241.835 236.983 242.218 237.365 242.218 237.833V319.904C242.218 320.372 241.835 320.754 241.367 320.754Z" fill="black"/>
<path d="M118.587 401.95C118.544 401.95 118.502 401.95 118.468 401.941L56.9161 392.939C56.4483 392.871 56.1336 392.437 56.2016 391.978C56.2697 391.51 56.695 391.187 57.1628 391.264L117.549 400.097C116.835 395.625 114.818 379.022 120.135 358.024C125.868 335.402 141.511 302.876 183.498 276.361C183.898 276.106 184.417 276.225 184.672 276.624C184.927 277.024 184.808 277.542 184.409 277.797C142.932 303.99 127.476 336.057 121.811 358.355C115.669 382.525 119.386 400.751 119.429 400.93C119.488 401.202 119.403 401.482 119.216 401.686C119.046 401.848 118.816 401.95 118.587 401.95Z" fill="black"/>
<path d="M114.811 350.05C114.649 350.05 114.487 350.007 114.334 349.905C114.19 349.812 99.6695 340.545 64.1387 347.372C63.6793 347.457 63.2285 347.159 63.1434 346.7C63.0583 346.241 63.3561 345.791 63.8154 345.706C100.137 338.735 114.675 348.094 115.279 348.494C115.67 348.758 115.772 349.285 115.508 349.676C115.355 349.914 115.091 350.05 114.811 350.05Z" fill="black"/>
<path d="M102.553 358.644C102.527 358.644 102.502 358.644 102.476 358.644C102.008 358.602 101.659 358.185 101.711 357.718C103.744 335.691 108.975 316.784 117.719 299.909C128.701 278.716 145.654 260.31 168.119 245.203C168.51 244.94 169.038 245.042 169.302 245.433C169.565 245.824 169.463 246.351 169.072 246.615C128.778 273.708 107.912 309.057 103.403 357.871C103.361 358.313 102.986 358.644 102.553 358.644Z" fill="black"/>
<path d="M69.2844 362.258C69.2589 362.258 69.2248 362.258 69.1992 362.258C68.7314 362.207 68.3912 361.79 68.4338 361.331C72.5508 320.27 89.4868 284.343 118.765 254.563C139.785 233.183 161.22 221.417 169.463 217.353C169.88 217.149 170.39 217.319 170.603 217.736C170.816 218.161 170.637 218.671 170.22 218.875C155.147 226.314 79.5005 268.131 70.135 361.492C70.0925 361.926 69.7182 362.258 69.2844 362.258Z" fill="black"/>
<path d="M124.167 331.049C124.04 331.049 123.904 331.024 123.785 330.956C123.521 330.82 96.9557 317.592 70.7903 320.746C70.331 320.805 69.8972 320.474 69.8461 320.006C69.7866 319.539 70.1268 319.114 70.5862 319.063C97.2704 315.849 124.278 329.307 124.55 329.443C124.967 329.655 125.137 330.165 124.924 330.582C124.78 330.879 124.482 331.049 124.167 331.049Z" fill="black"/>
<path d="M134.366 309.949C134.196 309.949 134.017 309.898 133.873 309.788C133.711 309.669 117.541 298.226 85.0212 293.465C84.5534 293.397 84.2386 292.964 84.3066 292.505C84.3747 292.037 84.8 291.714 85.2678 291.791C118.247 296.619 134.715 308.3 134.877 308.419C135.259 308.691 135.344 309.227 135.064 309.609C134.885 309.83 134.63 309.949 134.366 309.949Z" fill="black"/>
<path d="M149.933 290.609C149.643 290.609 149.354 290.456 149.201 290.192C149.039 289.912 132.503 262.521 102.467 259.588C101.999 259.545 101.659 259.129 101.702 258.661C101.744 258.193 102.161 257.845 102.629 257.896C133.541 260.914 150.494 289.045 150.656 289.334C150.894 289.742 150.758 290.26 150.358 290.498C150.23 290.575 150.086 290.609 149.933 290.609Z" fill="black"/>
<path d="M167.77 272.629C167.404 272.629 167.064 272.391 166.954 272.017C166.843 271.659 156.014 236.073 132.435 231.525C131.976 231.44 131.669 230.989 131.763 230.53C131.848 230.071 132.29 229.774 132.758 229.859C157.358 234.602 168.144 270.027 168.587 271.532C168.723 271.983 168.459 272.459 168.017 272.586C167.932 272.612 167.855 272.629 167.77 272.629Z" fill="black"/>
<path d="M213.024 617.364C213.024 617.364 209.936 619.429 208.992 620.229C207.052 621.869 202.825 622.753 201.277 621.691L109.128 557.226C106.576 555.474 111.118 550.705 113.406 547.534C114.044 546.65 117.251 544.856 119.59 545.069C119.59 545.069 185.276 546.693 207.18 546.812C211.118 546.837 214.342 549.94 214.376 553.885L214.895 613.7C214.912 615.145 214.206 616.514 213.024 617.364Z" fill="#45BC7A"/>
<path d="M194.225 549.507L191.758 549.532C190.023 549.549 188.534 548.35 188.271 546.71C186.45 535.59 174.627 527.072 160.438 527.208C146.25 527.352 134.562 536.091 132.912 547.245C132.665 548.894 131.193 550.119 129.467 550.136L127 550.161C124.882 550.178 123.215 548.41 123.487 546.387C125.588 530.668 141.282 518.307 160.37 518.128C179.458 517.95 195.348 530.005 197.687 545.672C197.985 547.679 196.343 549.481 194.225 549.507Z" fill="#45BC7A"/>
<path d="M201.991 622.915C201.983 622.915 114.648 621.648 114.648 621.648C110.684 621.614 107.988 618.341 107.962 615.298L107.469 556.01C107.443 553.086 109.808 550.68 112.734 550.654L201.396 551.938C201.413 551.938 201.43 551.938 201.438 551.938C202.825 551.938 204.143 552.474 205.138 553.46C206.151 554.454 206.712 555.781 206.729 557.2L207.256 617.559C207.265 618.979 206.729 620.314 205.734 621.325C204.739 622.337 203.412 622.907 201.991 622.915ZM112.734 552.363C110.761 552.38 109.162 554.012 109.179 556.002L109.672 615.29C109.689 617.177 111.484 619.923 114.674 619.948L202 621.215C202.961 621.206 203.862 620.824 204.534 620.135C205.206 619.447 205.581 618.537 205.572 617.576L205.045 557.217C205.036 556.257 204.654 555.347 203.965 554.675C203.276 554.004 202.348 553.655 201.404 553.638L112.734 552.363Z" fill="black"/>
<path d="M169.455 528.347C160.098 526.247 160.958 519.302 165.389 518.468C169.302 517.729 177.222 521.35 177.222 521.35C178.574 516.267 174.95 506.261 172.934 502.256C168.06 492.582 157.878 477.926 151.337 471.048C135.949 454.879 117.142 441.668 114.547 389.7C113.909 376.846 59.3242 382.814 59.3242 382.814C71.9901 452.898 107.963 482.959 107.963 482.959C107.963 482.959 110.83 511.948 115.67 523.96C121.718 538.974 134.044 542.059 142.448 544.321C152 546.888 169.549 545.46 175.597 543.955C179.484 542.986 182.802 540.555 183.959 537.316C183.176 536.194 181.245 530.999 169.455 528.347Z" fill="#FFA5B2"/>
<path d="M156.55 546.608C151.311 546.608 146.105 546.208 142.217 545.162L141.809 545.052C133.515 542.825 120.986 539.467 114.87 524.3C110.268 512.875 107.495 486.827 107.146 483.401C103.811 480.442 70.4837 449.396 58.4813 382.984C58.4388 382.754 58.4984 382.516 58.6345 382.32C58.7791 382.133 58.9917 382.006 59.2213 381.98C61.0247 381.785 103.42 377.245 113.228 385.602C114.58 386.758 115.312 388.118 115.388 389.666C117.694 435.896 132.614 450.926 147.04 465.454C148.665 467.087 150.341 468.778 151.949 470.462C158.643 477.501 168.808 492.174 173.691 501.865C175.656 505.767 179.484 516.148 178.046 521.563C177.978 521.801 177.816 522.005 177.587 522.115C177.357 522.226 177.093 522.226 176.872 522.115C174.737 521.138 168.544 518.732 165.559 519.293C164.079 519.574 163.075 520.704 163.049 522.124C163.015 524.003 164.734 526.4 169.659 527.505C180.683 529.979 183.413 534.689 184.443 536.466C184.536 536.619 184.604 536.755 184.672 536.848C184.825 537.069 184.859 537.358 184.766 537.613C183.575 540.963 180.138 543.709 175.809 544.788C171.998 545.749 164.232 546.608 156.55 546.608ZM60.3187 383.587C72.925 451.878 108.15 482.032 108.507 482.329C108.677 482.474 108.788 482.678 108.805 482.899C108.83 483.188 111.714 511.905 116.452 523.671C122.245 538.055 133.805 541.15 142.251 543.42L142.66 543.53C151.838 545.996 169.31 544.678 175.383 543.156C178.999 542.255 181.874 540.079 183.005 537.426C182.988 537.401 182.971 537.367 182.954 537.333C182.027 535.735 179.569 531.492 169.267 529.18C163.347 527.854 161.289 524.657 161.331 522.107C161.374 519.897 162.973 518.06 165.227 517.635C168.553 517.015 174.278 519.191 176.574 520.152C177.195 515.212 174.107 506.516 172.16 502.639C167.336 493.067 157.308 478.58 150.707 471.635C149.107 469.96 147.44 468.277 145.824 466.653C131.857 452.584 116.018 436.627 113.679 389.751C113.628 388.679 113.117 387.753 112.114 386.903C103.624 379.66 66.6134 382.967 60.3187 383.587Z" fill="black"/>
<path d="M155.121 543.853C155.036 543.853 154.951 543.836 154.866 543.811C146.768 541.286 141.299 535.828 140.695 532.011C140.618 531.543 140.941 531.11 141.401 531.042C141.86 530.974 142.302 531.288 142.371 531.747C142.796 534.459 147.228 539.654 155.368 542.187C155.819 542.323 156.066 542.808 155.93 543.25C155.819 543.624 155.479 543.853 155.121 543.853Z" fill="black"/>
<path d="M170.178 543.853C170.135 543.853 170.093 543.853 170.05 543.845C162.607 542.697 153.616 537.741 150.324 529.273C150.154 528.84 150.375 528.347 150.809 528.177C151.243 528.007 151.736 528.219 151.906 528.661C154.951 536.5 163.339 541.09 170.305 542.17C170.773 542.238 171.088 542.68 171.02 543.139C170.952 543.556 170.586 543.853 170.178 543.853Z" fill="black"/>
<path d="M156.806 599.171C144.71 599.171 133.337 594.606 124.737 586.283C116.341 578.156 111.442 567.062 111.314 555.848C111.306 555.381 111.688 554.998 112.156 554.99C112.633 554.99 113.007 555.364 113.015 555.831C113.288 578.904 132.886 597.471 156.806 597.471C156.984 597.471 157.172 597.471 157.35 597.471C169.438 597.326 180.751 593.008 189.198 585.314C197.619 577.637 202.187 567.521 202.059 556.826C202.051 556.359 202.434 555.976 202.902 555.967C203.361 555.95 203.752 556.342 203.761 556.809C203.897 567.997 199.125 578.564 190.346 586.572C181.585 594.555 169.88 599.026 157.376 599.179C157.189 599.171 157.001 599.171 156.806 599.171Z" fill="black"/>
<path d="M164.487 599.129C164.862 595.784 162.002 592.718 158.099 592.281C154.196 591.844 150.728 594.202 150.353 597.547C149.978 600.893 152.838 603.959 156.741 604.396C160.644 604.833 164.112 602.475 164.487 599.129Z" fill="black"/>
<path d="M47.7467 403.361C47.6786 396.203 47.7212 383.902 47.7552 377.611C47.7637 375.196 49.567 373.037 52.204 372.272C64.5466 368.676 100.001 360.311 124.108 374.61C125.69 375.545 126.49 377.211 126.226 378.894L122.526 402.715C122.177 404.942 119.65 406.473 117.192 405.886C90.7545 399.638 64.6402 404.432 53.4969 407.127C50.5878 407.833 47.7722 405.98 47.7467 403.361Z" fill="#FFD864"/>
<path d="M111.994 398.022C111.237 396.824 111.714 395.004 113.066 393.959C114.41 392.913 116.12 393.041 116.877 394.239C117.634 395.438 117.158 397.257 115.805 398.303C114.461 399.357 112.751 399.229 111.994 398.022Z" fill="black"/>
<path d="M200.69 358.645C200.247 358.645 199.882 358.304 199.839 357.862C199.797 357.335 195.518 305.061 194.276 282.329C192.651 252.455 192.66 200.461 192.66 199.943C192.66 199.475 193.042 199.093 193.51 199.093C193.978 199.093 194.361 199.475 194.361 199.943C194.361 200.461 194.352 252.413 195.977 282.235C197.211 304.942 201.489 357.191 201.54 357.718C201.574 358.185 201.226 358.593 200.758 358.636C200.741 358.645 200.715 358.645 200.69 358.645Z" fill="black"/>
<path d="M176.999 110.883C174.268 111.929 171.24 110.39 170.483 107.568C170.049 105.969 169.616 104.108 169.284 102.127C167.838 93.5236 169.037 87.1477 172.848 83.1691C176.999 78.8334 181.661 77.6092 185.395 76.6316C189.818 75.4669 192.744 74.7018 195.619 69.669C199.013 63.7267 197.695 55.2339 192.744 51.1193C188.006 47.1832 180.989 48.1438 173.12 53.6696C171.053 55.1234 168.204 54.7238 166.57 52.8025C164.665 50.5582 165.124 47.2087 167.506 45.5424C172.805 41.8274 178.02 39.6425 183.056 39.0304C189.095 38.2993 194.624 39.8466 199.056 43.5276C207.758 50.7452 210.021 64.3812 204.202 74.5658C199.277 83.2031 192.974 84.8608 187.913 86.187C184.723 87.0286 182.213 87.6917 179.985 90.0126C177.765 92.3249 178.437 99.177 179.993 104.992C180.648 107.432 179.364 109.974 176.999 110.883Z" fill="#FFD864"/>
<path d="M181.099 125.795C179.551 126.755 177.68 126.738 176.225 125.769L176.072 125.667C175.366 125.2 173.894 124.239 173.512 122.318C173.273 121.119 173.537 119.869 174.26 118.79C174.703 118.127 175.272 117.582 175.953 117.166C177.79 116.035 180.138 116.078 181.924 117.276C183.166 118.11 183.898 119.521 183.872 121.06C183.83 122.896 182.715 124.8 181.099 125.795Z" fill="#FFD864"/>
<path d="M112.428 144.693C110.897 148.136 106.72 149.513 103.454 147.634C101.6 146.572 99.4985 145.271 97.3804 143.775C88.1851 137.263 83.4386 130.351 83.2685 123.236C83.0898 115.491 86.2117 110.11 88.7211 105.791C91.6898 100.682 93.6462 97.3067 91.6557 90.0892C89.3079 81.5624 80.3253 75.0249 72.0487 75.807C64.1293 76.5551 58.6087 83.8492 56.4992 96.0826C55.9463 99.296 52.986 101.54 49.7281 101.285C45.9428 100.979 43.2889 97.5108 43.9268 93.8127C45.3559 85.575 48.1119 78.8165 52.1354 73.6477C56.967 67.4588 63.4318 63.8117 70.8323 63.1061C85.378 61.7289 99.9238 72.092 103.956 86.6972C107.375 99.075 103.148 106.352 99.7537 112.192C97.6186 115.874 95.9259 118.781 96.0279 122.93C96.1215 127.07 103.012 132.698 109.757 136.574C112.59 138.215 113.747 141.7 112.428 144.693Z" fill="#FFD864"/>
<path d="M129.815 154.537C129.279 156.833 127.569 158.524 125.349 158.966L125.119 159.017C124.048 159.239 121.827 159.706 119.709 158.303C118.391 157.436 117.489 156.051 117.157 154.41C116.953 153.398 116.97 152.378 117.209 151.383C117.846 148.671 120.024 146.563 122.755 146.019C124.652 145.636 126.616 146.266 127.994 147.694C129.645 149.394 130.376 152.14 129.815 154.537Z" fill="#FFD864"/>
<path d="M75.5537 252.081C75.4431 252.081 75.324 252.055 75.2134 252.013L16.69 226.645C16.2562 226.458 16.0605 225.957 16.2476 225.523C16.4348 225.089 16.9367 224.894 17.3705 225.081L75.8938 250.449C76.3277 250.636 76.5233 251.137 76.3362 251.571C76.1916 251.894 75.8854 252.081 75.5537 252.081Z" fill="black"/>
<path d="M70.6025 220.533C70.3984 220.533 70.1942 220.456 70.0326 220.312L39.3504 192.597C39.0016 192.283 38.9761 191.747 39.2909 191.399C39.6056 191.05 40.1414 191.025 40.4902 191.339L71.1725 219.053C71.5212 219.368 71.5467 219.904 71.232 220.252C71.0619 220.439 70.8322 220.533 70.6025 220.533Z" fill="black"/>
<path d="M518.723 282.252C518.596 282.252 518.468 282.226 518.341 282.158L487.922 266.831C487.505 266.618 487.335 266.108 487.548 265.691C487.76 265.275 488.271 265.105 488.688 265.317L519.106 280.645C519.523 280.858 519.693 281.368 519.481 281.784C519.336 282.082 519.038 282.252 518.723 282.252Z" fill="black"/>
<path d="M491.657 325.158C491.376 325.158 491.095 325.014 490.934 324.759L455.301 267.613C455.054 267.213 455.173 266.686 455.573 266.44C455.973 266.193 456.5 266.312 456.747 266.712L492.38 323.857C492.626 324.257 492.507 324.784 492.107 325.031C491.963 325.116 491.81 325.158 491.657 325.158Z" fill="black"/>
<path d="M19.6675 518.026C19.4719 518.026 19.2762 517.958 19.1146 517.822C18.7573 517.516 18.7148 516.981 19.021 516.624L70.0418 457.183C70.3481 456.826 70.884 456.783 71.2413 457.089C71.5985 457.395 71.641 457.931 71.3348 458.288L20.314 517.729C20.1524 517.924 19.9142 518.026 19.6675 518.026Z" fill="black"/>
<path d="M0.851201 438.097C0.400367 438.097 0.0175829 437.74 0.000570255 437.281C-0.0164424 436.814 0.349295 436.414 0.817142 436.397L57.0013 434.093C57.4692 434.068 57.869 434.442 57.886 434.909C57.903 435.377 57.5372 435.777 57.0693 435.794L0.885259 438.097C0.868246 438.097 0.859707 438.097 0.851201 438.097Z" fill="black"/>
<path d="M353.531 57.0703C353.063 57.0703 352.681 56.6877 352.681 56.2201V1.15738C352.681 0.689808 353.063 0.307251 353.531 0.307251C353.999 0.307251 354.382 0.689808 354.382 1.15738V56.2286C354.382 56.6962 353.999 57.0703 353.531 57.0703Z" fill="black"/>
<path d="M383.685 46.8688C383.6 46.8688 383.524 46.8603 383.439 46.8348C382.988 46.6988 382.733 46.2227 382.869 45.7721L390.235 21.535C390.371 21.0844 390.848 20.8294 391.298 20.9654C391.749 21.1014 392.004 21.5775 391.868 22.0281L384.502 46.2652C384.383 46.6308 384.051 46.8688 383.685 46.8688Z" fill="black"/>
<path d="M121.632 374.091C121.505 374.091 121.369 374.066 121.25 373.998C110.072 368.353 83.0137 361.807 52.5016 373.063C52.0593 373.224 51.5745 373.003 51.4044 372.561C51.2428 372.119 51.4639 371.634 51.9062 371.473C82.9712 360.013 110.591 366.712 122.015 372.484C122.432 372.697 122.602 373.207 122.389 373.624C122.245 373.921 121.947 374.091 121.632 374.091Z" fill="black"/>
</svg>
