<svg width="21" height="20" viewBox="0 0 21 20" fill="none" xmlns="http://www.w3.org/2000/svg">
<path d="M7.64568 0L0 8.11125L5.7297 18.8748L13.3754 10.7635L7.64568 0Z" fill="#F14146"/>
<path d="M12.1311 19.776C11.9852 19.776 11.9122 19.776 11.8392 19.57L6.10948 8.88375C6.07299 8.83225 6.03649 8.78076 6.01824 8.72926C6 8.67776 6 8.60049 6 8.52324C6 8.44599 6.03649 8.39451 6.05474 8.31726C6.09123 8.26576 6.12773 8.21426 6.18247 8.18851L13.7552 0.103006C13.8282 0.0257563 13.9194 0 14.0106 0C14.1019 0.02575 14.1931 0.0772626 14.2478 0.206013L19.9775 10.9952C20.0323 11.0982 20.0505 11.227 20.0505 11.3557C20.0323 11.4845 19.9958 11.6133 19.9045 11.6905L12.3319 19.6987L12.1311 19.776ZM6.89412 8.67774L12.2041 18.5657L19.2111 11.1755L13.9011 1.18449L6.89412 8.67774Z" fill="#011826"/>
</svg>
