<svg width="27" height="30" viewBox="0 0 27 30" fill="none" xmlns="http://www.w3.org/2000/svg">
<path d="M11.1127 0L0 12.7462L9.01423 28.4022L20.1269 15.656L11.1127 0Z" fill="#3A81E1"/>
<path d="M15.3609 29.3712C15.3062 29.3712 15.2515 29.3712 15.1967 29.3197C15.142 29.2939 15.1055 29.2167 15.069 29.1652L6.07299 13.5606C6.01825 13.4577 6 13.3289 6 13.2002C6.01825 13.0714 6.05474 12.9426 6.14598 12.8654L17.2039 0.0676595C17.3499 -0.0353405 17.6236 -0.0353499 17.6966 0.17065L26.7656 15.8781C26.8021 15.9811 26.8203 16.1099 26.8021 16.2387C26.7838 16.3674 26.7473 16.4704 26.6926 16.5734L15.5799 29.2682L15.3609 29.3712ZM6.85763 13.2774L15.4339 28.1609L25.9809 16.0584L17.4046 1.17491L6.85763 13.2774Z" fill="#011826"/>
</svg>
