<svg width="50" height="54" viewBox="0 0 50 54" fill="none" xmlns="http://www.w3.org/2000/svg">
<path d="M19.3335 50.4296C19.3142 50.4229 19.295 50.4161 19.2758 50.4161C19.2373 50.4161 19.1988 50.433 19.1652 50.4635C19.1364 50.4907 16.2423 53.2637 13.2545 53.2637C12.1896 53.2637 11.233 52.9111 10.4085 52.2162C6.18519 48.6533 1.79843 39.5545 0.421105 31.5033C-0.256739 27.537 -0.114922 24.3029 0.836945 22.1536C2.99788 17.2687 9.06242 11.7633 17.473 7.0512C25.1168 2.76624 33.3374 0 38.4117 0C40.4164 0 41.8778 0.413578 42.7528 1.22718C48.4303 6.50202 50.6081 17.8924 49.6706 23.7368C48.6923 29.8354 41.1639 34.2221 35.1138 37.7443C31.4866 39.8562 28.3522 41.6834 27.333 43.4666C25.4052 46.843 26.7152 52.1043 27.2248 53.823L19.3335 50.4296Z" fill="#A8BBBF"/>
<path d="M28.2464 34.2254C28.1694 34.2254 28.0925 34.1746 28.0468 34.0763C27.9267 33.822 25.0927 27.8149 26.458 24.5843C27.1358 22.9774 28.0637 22.2892 28.9579 21.6248C30.114 20.7671 31.2077 19.9569 31.7966 17.1907C32.4913 13.9261 31.3856 10.0852 29.3304 8.62754C27.0806 7.03085 24.4485 8.64788 22.1121 13.0684C22.0328 13.2176 21.8813 13.2481 21.7756 13.1362C21.6698 13.0244 21.6482 12.8108 21.7275 12.6616C25.261 5.97317 28.3737 7.18679 29.5468 8.02073C31.8014 9.62081 33.0177 13.821 32.2581 17.3839C31.6115 20.4247 30.376 21.34 29.1838 22.2248C28.3089 22.8757 27.482 23.4859 26.8714 24.93C25.6624 27.7946 28.4194 33.639 28.4459 33.6966C28.5204 33.8525 28.4915 34.0627 28.381 34.1678C28.3401 34.2051 28.2944 34.2254 28.2464 34.2254Z" fill="black"/>
<path d="M29.0083 36.3645C28.6598 36.4763 28.4675 36.1204 28.5805 35.7068C28.691 35.2932 29.0179 35.0864 29.3112 35.2424C29.6044 35.4017 29.3136 36.2662 29.0083 36.3645Z" fill="black"/>
<path d="M23.2996 38.2833C23.2275 38.2833 23.1578 38.2392 23.1097 38.1545C23.0544 38.0562 17.6701 28.2387 16.7327 16.9636C16.7182 16.7771 16.812 16.6076 16.9442 16.5873C17.074 16.5636 17.1966 16.6992 17.211 16.8856C18.134 27.9675 23.4366 37.6392 23.4895 37.7375C23.5712 37.8833 23.552 38.0968 23.4486 38.2121C23.4029 38.2596 23.3501 38.2833 23.2996 38.2833Z" fill="black"/>
<path d="M24.0616 40.4223C23.713 40.5342 23.5207 40.1782 23.6337 39.7647C23.7443 39.3511 24.0712 39.1443 24.3644 39.3002C24.6553 39.4596 24.3668 40.3274 24.0616 40.4223Z" fill="black"/>
</svg>
