<svg width="496" height="496" viewBox="0 0 496 496" fill="none" xmlns="http://www.w3.org/2000/svg">
<path d="M434.099 121.52H275.23V219.207H434.099V121.52Z" fill="white"/>
<path d="M434 219.728H275.23C275.106 219.728 274.982 219.678 274.883 219.579C274.784 219.48 274.734 219.356 274.734 219.232V121.52C274.734 121.396 274.784 121.272 274.883 121.173C274.982 121.074 275.106 121.024 275.23 121.024H434C434.124 121.024 434.248 121.074 434.347 121.173C434.446 121.272 434.496 121.396 434.496 121.52V219.232C434.496 219.356 434.446 219.48 434.347 219.579C434.248 219.678 434.124 219.728 434 219.728ZM275.726 218.761H433.504V121.991H275.702V218.761H275.726Z" fill="#02133B"/>
<path d="M299.981 121.123V111.302H303.552L309.802 102.548L306.826 98.5056L317.515 92.8264L320.491 95.7032H330.311L332.519 92.8264L344.274 96.8688L342.835 99.7456L348.911 111.302H352.185V121.123H299.981V121.123Z" fill="#3A81E1"/>
<path d="M313.943 121.123C313.943 117.899 315.233 114.824 317.49 112.542C319.771 110.261 322.847 108.996 326.071 108.996C329.295 108.996 332.37 110.286 334.651 112.542C336.933 114.824 338.198 117.899 338.198 121.123H313.943Z" fill="white"/>
<path d="M338.197 121.619C338.073 121.619 337.949 121.57 337.85 121.47C337.751 121.371 337.701 121.247 337.701 121.123C337.701 118.023 336.486 115.072 334.279 112.89C332.097 110.707 329.121 109.467 326.045 109.467C322.945 109.467 319.994 110.682 317.812 112.89C315.629 115.072 314.389 118.048 314.389 121.123C314.389 121.247 314.34 121.371 314.241 121.47C314.141 121.57 314.017 121.619 313.893 121.619C313.769 121.619 313.645 121.57 313.546 121.47C313.447 121.371 313.397 121.247 313.397 121.123C313.397 117.775 314.737 114.576 317.093 112.195C319.449 109.839 322.673 108.5 326.021 108.5C329.369 108.5 332.568 109.839 334.949 112.195C337.305 114.551 338.644 117.775 338.644 121.123C338.644 121.247 338.594 121.371 338.495 121.47C338.445 121.57 338.321 121.619 338.197 121.619Z" fill="#02133B"/>
<path d="M280.042 85.1136L281.48 86.552L278.504 92.5288H276.57L277.041 99.7456H280.215L284.159 103.887L283.489 106.491L289.937 108.525L290.805 106.318L297.451 105.45L298.419 107.384L303.899 104.408L302.833 102.771L304.767 95.7528L306.801 95.2816L306.231 88.8336L304.594 88.9328L300.551 84.32L301.023 82.212L293.707 79.9056L293.335 81.6416L287.358 82.212L286.118 80.6744L280.042 85.1136Z" fill="#F14146"/>
<path d="M291.698 99.2744C294.674 99.2744 297.079 96.8688 297.079 93.8928C297.079 90.9168 294.674 88.5112 291.698 88.5112C288.722 88.5112 286.316 90.9168 286.316 93.8928C286.291 96.8688 288.722 99.2744 291.698 99.2744Z" fill="white"/>
<path d="M291.697 99.7456C290.532 99.7456 289.391 99.3984 288.449 98.7536C287.481 98.1088 286.737 97.1912 286.291 96.1248C285.845 95.0584 285.721 93.868 285.969 92.7272C286.192 91.5864 286.762 90.5448 287.581 89.7264C288.399 88.908 289.441 88.3376 290.581 88.1144C291.722 87.8912 292.913 88.0152 293.979 88.4368C295.045 88.8832 295.963 89.6272 296.608 90.5944C297.253 91.5616 297.6 92.7024 297.6 93.868C297.625 94.6368 297.476 95.4056 297.178 96.1248C296.881 96.844 296.459 97.4888 295.913 98.0344C295.368 98.58 294.723 99.0264 294.004 99.2992C293.235 99.6216 292.466 99.7704 291.697 99.7456ZM291.697 88.9824C290.73 88.9824 289.788 89.28 288.969 89.8008C288.176 90.3464 287.531 91.1152 287.159 92.008C286.787 92.9008 286.688 93.8928 286.886 94.8352C287.085 95.7776 287.556 96.6704 288.225 97.34C288.92 98.0344 289.788 98.5056 290.73 98.6792C291.673 98.8776 292.665 98.7784 293.557 98.4064C294.45 98.0344 295.219 97.4144 295.765 96.596C296.31 95.7776 296.583 94.8352 296.583 93.868C296.608 93.2232 296.484 92.5784 296.236 91.9832C295.988 91.388 295.641 90.8424 295.169 90.3712C294.698 89.9248 294.153 89.5528 293.557 89.3048C292.987 89.0816 292.342 88.9576 291.697 88.9824Z" fill="#02133B"/>
<path d="M418.599 213.28H282.844C282.72 213.28 282.596 213.23 282.497 213.131C282.398 213.032 282.348 212.908 282.348 212.784V147.312C282.348 147.188 282.398 147.064 282.497 146.965C282.596 146.866 282.72 146.816 282.844 146.816C282.968 146.816 283.092 146.866 283.191 146.965C283.291 147.064 283.34 147.188 283.34 147.312V212.288H418.599C418.723 212.288 418.847 212.338 418.947 212.437C419.046 212.536 419.095 212.66 419.095 212.784C419.095 212.908 419.046 213.032 418.947 213.131C418.847 213.23 418.723 213.28 418.599 213.28Z" fill="#02133B"/>
<path d="M282.844 144.138C282.05 144.138 281.257 143.89 280.587 143.468C279.918 143.022 279.397 142.402 279.099 141.658C278.802 140.914 278.702 140.095 278.876 139.326C279.025 138.533 279.422 137.814 279.992 137.268C280.562 136.698 281.282 136.326 282.075 136.152C282.869 136.003 283.662 136.078 284.406 136.375C285.15 136.673 285.77 137.194 286.217 137.863C286.663 138.533 286.911 139.302 286.911 140.12C286.911 141.186 286.49 142.228 285.721 142.972C284.927 143.716 283.91 144.138 282.844 144.138ZM282.844 137.02C282.026 137.02 281.232 137.342 280.662 137.913C280.091 138.483 279.769 139.277 279.769 140.095C279.769 140.914 280.091 141.707 280.662 142.278C281.232 142.848 282.026 143.17 282.844 143.17C283.662 143.146 284.431 142.823 285.002 142.253C285.572 141.682 285.919 140.914 285.944 140.095C285.944 139.277 285.622 138.483 285.051 137.913C284.431 137.342 283.662 137.02 282.844 137.02Z" fill="#02133B"/>
<path d="M425.245 215.686C424.452 215.686 423.658 215.438 422.989 215.016C422.319 214.57 421.798 213.95 421.501 213.206C421.203 212.462 421.104 211.643 421.277 210.874C421.426 210.081 421.823 209.362 422.393 208.816C422.964 208.246 423.683 207.874 424.452 207.7C425.245 207.551 426.039 207.626 426.783 207.923C427.527 208.221 428.147 208.742 428.593 209.411C429.04 210.081 429.288 210.85 429.288 211.668C429.288 212.734 428.866 213.776 428.097 214.52C427.329 215.239 426.312 215.686 425.245 215.686ZM425.245 208.543C424.427 208.543 423.633 208.866 423.063 209.436C422.493 210.006 422.17 210.8 422.17 211.618C422.17 212.437 422.493 213.23 423.063 213.801C423.633 214.371 424.427 214.694 425.245 214.694C426.064 214.694 426.857 214.371 427.428 213.801C427.998 213.23 428.321 212.437 428.321 211.618C428.296 210.8 427.973 210.031 427.378 209.461C426.808 208.915 426.039 208.568 425.245 208.543Z" fill="#02133B"/>
<path d="M310.471 173.898H295.343V212.288H310.471V173.898Z" fill="#F7AE38"/>
<path d="M335.891 173.898H316.547V212.288H335.891V173.898Z" fill="#F14146"/>
<path d="M369.694 173.898H366.123V212.288H369.694V173.898Z" fill="#F14146"/>
<path d="M391.046 173.898H381.325V212.288H391.046V173.898Z" fill="#F7AE38"/>
<path d="M408.778 173.898H396.924V212.288H408.778V173.898Z" fill="#F14146"/>
<path d="M357.74 173.898H350.226V212.288H357.74V173.898Z" fill="#F7AE38"/>
<path d="M422.915 137.491C421.625 137.466 420.41 136.946 419.492 136.028C418.599 135.11 418.079 133.87 418.079 132.581V109.467C418.079 109.343 418.128 109.219 418.227 109.12C418.327 109.021 418.451 108.971 418.575 108.971C418.699 108.971 418.823 109.021 418.922 109.12C419.021 109.219 419.071 109.343 419.071 109.467V132.581C418.971 133.151 419.021 133.722 419.17 134.267C419.319 134.813 419.591 135.334 419.963 135.755C420.335 136.177 420.782 136.549 421.303 136.772C421.823 137.02 422.394 137.144 422.964 137.144C423.535 137.144 424.105 137.02 424.626 136.772C425.147 136.524 425.618 136.177 425.965 135.755C426.337 135.334 426.61 134.813 426.759 134.267C426.907 133.722 426.957 133.151 426.858 132.581V112.84C426.858 112.443 426.783 112.071 426.635 111.724C426.486 111.377 426.263 111.054 425.99 110.782C425.717 110.509 425.37 110.31 425.023 110.162C424.651 110.013 424.279 109.963 423.882 109.963H423.311C422.691 109.963 422.096 110.211 421.65 110.633C421.203 111.054 420.931 111.65 420.906 112.27V125.761C420.906 125.885 420.856 126.009 420.757 126.108C420.658 126.207 420.559 126.257 420.41 126.257C420.286 126.232 420.187 126.182 420.087 126.083C420.013 126.009 419.939 125.885 419.914 125.761V112.27C419.939 111.402 420.311 110.558 420.931 109.938C421.551 109.318 422.394 108.996 423.287 108.996H423.857C424.378 108.971 424.874 109.07 425.37 109.269C425.841 109.467 426.287 109.74 426.659 110.087C427.031 110.434 427.329 110.881 427.527 111.352C427.726 111.823 427.825 112.344 427.825 112.84V132.581C427.825 133.226 427.701 133.87 427.453 134.466C427.205 135.061 426.833 135.606 426.387 136.053C425.94 136.499 425.395 136.871 424.799 137.119C424.204 137.367 423.559 137.491 422.915 137.491Z" fill="#02133B"/>
<path d="M373.637 138.756H335.619C335.495 138.756 335.371 138.706 335.271 138.607C335.172 138.508 335.123 138.384 335.123 138.26C335.123 138.136 335.172 138.012 335.271 137.913C335.371 137.814 335.495 137.764 335.619 137.764H373.637C373.761 137.764 373.885 137.814 373.984 137.913C374.083 138.012 374.133 138.136 374.133 138.26C374.133 138.384 374.083 138.508 373.984 138.607C373.885 138.706 373.761 138.756 373.637 138.756Z" fill="#02133B"/>
<path d="M412.995 147.808H296.683C296.559 147.808 296.435 147.758 296.335 147.659C296.236 147.56 296.187 147.436 296.187 147.312V129.208C296.187 129.084 296.236 128.96 296.335 128.861C296.435 128.762 296.534 128.712 296.683 128.712H412.995C413.119 128.712 413.242 128.762 413.342 128.861C413.441 128.96 413.491 129.084 413.491 129.208V147.312C413.491 147.436 413.441 147.56 413.342 147.659C413.267 147.758 413.143 147.808 412.995 147.808ZM297.179 146.841H412.523V129.704H297.179V146.841V146.841Z" fill="#02133B"/>
<path d="M402.901 462.049H210.527C210.403 462.049 210.279 461.999 210.18 461.9C210.081 461.801 210.031 461.677 210.031 461.553C210.031 461.429 210.081 461.305 210.18 461.206C210.279 461.106 210.403 461.057 210.527 461.057H402.901C403.025 461.057 403.149 461.106 403.248 461.206C403.347 461.305 403.397 461.404 403.397 461.553C403.397 461.677 403.347 461.801 403.248 461.9C403.149 461.999 403.025 462.049 402.901 462.049Z" fill="#02133B"/>
<path d="M156.339 202.864V227.218H138.731L135.755 212.784L132.779 227.218H119.288L124.397 169.458L147.213 169.756L156.339 202.864Z" fill="#F14146"/>
<path d="M187.141 212.784H155.174V233.269H187.141V212.784Z" fill="white"/>
<path d="M187.141 233.765H155.174C155.05 233.765 154.926 233.715 154.827 233.616C154.727 233.517 154.678 233.393 154.678 233.269V212.784C154.678 212.66 154.727 212.536 154.827 212.437C154.926 212.338 155.05 212.288 155.174 212.288H187.141C187.265 212.288 187.389 212.338 187.488 212.437C187.587 212.536 187.637 212.66 187.637 212.784V233.294C187.637 233.418 187.587 233.542 187.488 233.641C187.389 233.74 187.265 233.765 187.141 233.765ZM155.645 232.822H186.645V213.28H155.645V232.822Z" fill="#02133B"/>
<path d="M170.202 128.737C177.965 128.737 184.264 122.438 184.264 114.675C184.264 106.913 177.965 100.614 170.202 100.614C162.44 100.614 156.141 106.913 156.141 114.675C156.141 122.438 162.44 128.737 170.202 128.737Z" fill="#F14146"/>
<path d="M170.773 100.614C175.931 100.614 180.123 96.4224 180.123 91.264C180.123 86.1056 175.931 81.9144 170.773 81.9144C165.615 81.9144 161.423 86.1056 161.423 91.264C161.423 96.4472 165.615 100.614 170.773 100.614Z" fill="#F14146"/>
<path d="M132.73 187.959C137.838 187.959 141.98 183.818 141.98 178.709C141.98 173.6 137.838 169.458 132.73 169.458C127.621 169.458 123.504 173.6 123.504 178.709C123.504 183.818 127.646 187.959 132.73 187.959Z" fill="white"/>
<path d="M134.763 178.808H134.565L126.852 175.063C126.778 175.063 126.703 175.014 126.654 174.964C126.604 174.914 126.555 174.84 126.53 174.79C126.505 174.716 126.505 174.642 126.53 174.567C126.555 174.493 126.604 174.443 126.654 174.394C126.703 174.294 126.803 174.22 126.902 174.195C127.001 174.17 127.125 174.17 127.224 174.195L135.011 178.039C135.111 178.089 135.185 178.188 135.21 178.287C135.235 178.386 135.235 178.51 135.21 178.61C135.16 178.684 135.086 178.734 134.987 178.783C134.937 178.808 134.863 178.808 134.763 178.808Z" fill="#02133B"/>
<path d="M177.618 221.464H162.192C155.174 221.464 148.428 218.686 143.468 213.702C138.508 208.742 135.706 201.996 135.706 194.978V159.439C135.706 152.421 138.483 145.675 143.468 140.715C148.428 135.755 155.174 132.953 162.192 132.953H177.593C184.611 132.953 191.357 135.73 196.317 140.715C201.277 145.675 204.079 152.421 204.079 159.439V194.978C204.079 209.61 196.193 221.464 177.618 221.464Z" fill="white"/>
<path d="M177.593 221.935H162.192C155.05 221.935 148.18 219.083 143.121 214.049C138.062 208.99 135.234 202.145 135.234 194.978V159.439C135.259 152.297 138.111 145.452 143.17 140.393C148.23 135.334 155.074 132.506 162.217 132.457H177.618C184.76 132.457 191.63 135.309 196.689 140.343C201.748 145.402 204.575 152.247 204.575 159.414V194.953C204.575 211.817 194.556 221.935 177.593 221.935ZM162.192 133.449C155.298 133.449 148.676 136.177 143.815 141.062C138.93 145.948 136.202 152.545 136.202 159.439V194.978C136.202 201.872 138.93 208.494 143.815 213.354C148.701 218.24 155.298 220.968 162.192 220.968H177.593C193.862 220.968 203.583 211.246 203.583 194.978V159.439C203.583 152.545 200.855 145.923 195.97 141.062C191.084 136.177 184.487 133.449 177.593 133.449H162.192V133.449Z" fill="#02133B"/>
<path d="M140.541 159.166C140.417 159.166 140.293 159.117 140.194 159.018C140.095 158.918 140.045 158.794 140.045 158.67C140.045 158.546 140.095 158.422 140.194 158.323C140.293 158.224 140.417 158.174 140.541 158.174C158.546 157.976 167.102 141.608 167.201 141.434C167.251 141.335 167.35 141.261 167.449 141.236C167.549 141.211 167.673 141.211 167.772 141.236C167.846 141.261 167.896 141.286 167.945 141.335C167.995 141.385 168.045 141.434 168.069 141.509C168.094 141.583 168.119 141.633 168.119 141.707C168.119 141.782 168.094 141.856 168.069 141.906C167.97 142.129 159.216 158.968 140.541 159.166Z" fill="#F14146"/>
<path d="M177.618 132.978C177.618 132.978 166.631 157.331 138.632 156.662L136.226 169.855L124.372 169.458C124.372 169.458 123.802 126.802 165.664 129.208C165.664 129.208 206.187 122.09 210.527 167.921C214.867 213.751 217.174 226.077 217.174 226.077H205.716L201.674 208.072L199.739 226.077H188.976L177.618 132.978Z" fill="#F14146"/>
<path d="M150.065 180.346C152.247 180.346 154.008 178.585 154.008 176.402C154.008 174.22 152.247 172.459 150.065 172.459C147.882 172.459 146.122 174.22 146.122 176.402C146.122 178.585 147.882 180.346 150.065 180.346Z" fill="#02133B"/>
<path d="M155.174 228.011C116.362 229.549 66.8857 241.006 42.7305 284.729C18.5753 328.426 -20.0383 486.154 51.9809 474.697C124 463.239 151.057 348.862 151.057 348.862L302.684 323.07L301.146 258.565L208.99 231.359L155.174 228.011Z" fill="white"/>
<path d="M44.8383 475.714C34.2487 475.714 25.9655 471.473 20.1871 463.19C4.98467 441.614 9.96947 397.519 14.3095 373.265C20.0879 340.231 31.6447 303.75 42.2343 284.506C66.7863 240.213 117.13 229.053 155.074 227.515C155.372 227.416 155.545 227.714 155.645 227.912C155.645 228.061 155.595 228.185 155.521 228.284C155.421 228.383 155.297 228.458 155.173 228.482C117.428 230.02 67.3567 241.106 43.1023 285.002C24.4279 318.705 -4.66253 426.138 20.9559 462.644C27.8007 472.465 38.2911 476.309 51.8567 474.201C72.3663 470.927 102.126 456.667 128.017 407.29C137.665 388.666 145.229 369.049 150.536 348.762C150.536 348.663 150.585 348.564 150.66 348.49C150.734 348.415 150.833 348.366 150.933 348.366L302.089 322.648L300.65 258.912L208.791 231.855C208.593 231.756 208.394 231.458 208.493 231.285C208.543 231.161 208.617 231.062 208.717 230.987C208.816 230.913 208.94 230.888 209.064 230.888L301.295 258.044C301.394 258.094 301.469 258.143 301.518 258.242C301.568 258.317 301.593 258.441 301.593 258.54L303.13 323.045C303.13 323.169 303.081 323.293 302.981 323.392C302.882 323.491 302.758 323.541 302.634 323.541L151.379 349.258C146.022 369.495 138.458 389.087 128.861 407.712C114.526 435.166 89.4783 469.241 52.0303 475.218C49.6743 475.515 47.2439 475.714 44.8383 475.714Z" fill="#02133B"/>
<path d="M208.99 231.359C208.99 231.359 200.508 229.722 187.339 228.656L208.99 231.359Z" fill="white"/>
<path d="M208.99 231.855H208.89C208.791 231.855 200.31 230.218 187.215 229.152C186.918 229.053 186.744 228.854 186.818 228.582C186.918 228.284 187.017 228.11 187.29 228.185C200.384 229.251 208.965 230.888 209.039 230.888C209.138 230.938 209.238 231.012 209.312 231.111C209.386 231.21 209.411 231.334 209.436 231.458C209.386 231.558 209.337 231.632 209.238 231.706C209.188 231.781 209.089 231.83 208.99 231.855Z" fill="#02133B"/>
<path d="M170.376 236.369C170.376 236.369 218.513 214.024 221.687 220.968C224.862 227.912 195.895 248.322 195.895 248.322L170.376 236.369Z" fill="white"/>
<path d="M195.895 248.794C195.796 248.794 195.697 248.794 195.697 248.694L170.177 236.865C170.078 236.815 170.004 236.766 169.954 236.666C169.905 236.592 169.88 236.468 169.88 236.369C169.88 236.17 169.979 236.071 170.177 235.972C170.376 235.873 182.404 230.293 194.63 225.581C219.951 216.058 221.588 219.604 222.158 220.77C225.432 227.887 199.144 246.562 196.168 248.694L195.895 248.794ZM171.541 236.369L195.796 247.727C203.98 241.949 223.82 226.548 221.315 221.166C220.745 220.001 217.074 218.19 195.027 226.548C184.735 230.417 174.617 235.03 171.541 236.369Z" fill="#02133B"/>
<path d="M199.888 210.974L199.789 210.949C195.697 210.006 191.605 212.561 190.663 216.653L165.615 325.103C164.672 329.195 167.227 333.287 171.319 334.23L171.418 334.254C175.51 335.197 179.602 332.642 180.544 328.55L205.592 220.1C206.535 216.008 203.98 211.916 199.888 210.974Z" fill="#F7AE38"/>
<path d="M58.5034 369.619C58.5034 369.619 96.5218 219.604 170.376 236.369C208.891 245.123 224.688 261.392 226.127 269.105C227.565 276.818 210.527 269.105 210.527 269.105C210.527 269.105 234.112 282.869 203.509 282.001C203.509 282.001 226.424 301.146 171.74 286.341C171.74 286.341 196.763 303.577 196.193 309.826C195.623 316.076 162.291 301.841 162.291 301.841C162.291 301.841 150.065 345.638 148.031 352.681L58.5034 369.619Z" fill="white"/>
<path d="M58.5033 370.115H58.4041C58.1065 370.115 58.0073 369.818 58.0073 369.545C58.0073 369.247 67.7289 331.601 86.3041 296.558C97.1913 275.95 109.021 260.152 121.446 249.761C136.946 236.766 153.512 232.054 170.451 235.898C192.027 240.808 205.121 247.752 212.437 252.737C219.753 257.746 225.73 264.294 226.598 269.105C226.771 269.626 226.771 270.171 226.623 270.692C226.474 271.213 226.151 271.659 225.73 272.006C223.622 273.742 218.116 272.378 214.272 271.138C217.075 273.172 220.249 276.247 219.579 278.752C218.91 281.257 213.999 282.695 204.749 282.497C206.584 284.134 209.759 287.705 208.419 290.21C207.08 292.714 195.325 293.111 174.245 287.506C180.395 291.946 197.16 304.445 196.689 309.851C196.689 310.174 196.59 310.471 196.416 310.744C196.243 311.017 196.019 311.24 195.722 311.389C191.01 314.266 166.557 304.172 162.614 302.436C161.275 307.446 150.387 346.332 148.552 352.879C148.527 352.954 148.503 353.003 148.453 353.053C148.403 353.102 148.354 353.152 148.279 353.177C148.205 353.202 148.155 353.226 148.081 353.226C148.007 353.226 147.932 353.202 147.883 353.177C147.783 353.127 147.684 353.053 147.635 352.954C147.585 352.854 147.56 352.73 147.61 352.606C149.643 345.687 161.771 302.163 161.87 301.667L162.068 301.37H162.539C170.327 304.742 191.431 312.827 195.275 310.521C195.424 310.446 195.548 310.347 195.623 310.198C195.697 310.05 195.747 309.901 195.747 309.752C196.218 304.842 178.411 291.45 171.492 286.738C171.294 286.638 171.294 286.341 171.393 286.167C171.492 285.969 171.691 285.795 171.864 285.87C200.657 293.657 206.609 291.648 207.675 289.714C208.742 287.779 204.799 283.662 203.236 282.398C203.162 282.323 203.112 282.224 203.063 282.125C203.038 282.026 203.013 281.926 203.038 281.802C203.087 281.703 203.137 281.629 203.236 281.579C203.311 281.53 203.435 281.505 203.534 281.505C215.289 281.802 218.166 280.066 218.662 278.43C219.133 276.793 212.883 271.114 210.279 269.576C210.155 269.502 210.081 269.402 210.031 269.278C209.982 269.154 210.007 269.006 210.081 268.906C210.155 268.782 210.255 268.708 210.379 268.683C210.503 268.634 210.651 268.658 210.751 268.733C213.925 270.072 222.779 273.172 225.184 271.238C225.755 270.841 225.854 270.171 225.655 269.204C224.217 261.218 207.849 245.421 170.302 236.865C153.636 233.12 137.367 237.733 122.066 250.53C109.839 260.822 98.0841 276.421 87.2217 296.93C68.7457 331.874 59.0985 369.421 59.0241 369.818C58.9745 369.917 58.9249 369.991 58.8257 370.041C58.7017 370.09 58.6025 370.115 58.5033 370.115Z" fill="#02133B"/>
<path d="M208.989 279.025H208.692C206.956 277.785 206.088 276.322 206.187 274.784C206.286 273.246 208.394 270.27 209.56 269.303L174.716 252.935C174.641 252.91 174.592 252.886 174.542 252.836C174.493 252.786 174.443 252.737 174.418 252.662C174.393 252.588 174.369 252.538 174.369 252.464C174.369 252.39 174.393 252.34 174.418 252.266C174.493 252.166 174.617 252.117 174.716 252.067C174.84 252.042 174.964 252.042 175.088 252.067L210.701 268.733C210.899 268.832 210.998 268.931 210.998 269.13C210.998 269.303 210.924 269.477 210.8 269.601C210.701 269.601 207.129 272.006 207.129 274.71C207.129 277.413 207.799 277.115 209.237 278.182C210.676 279.248 209.436 278.578 209.337 278.851L208.989 279.025Z" fill="#02133B"/>
<path d="M203.509 282.497H203.311L166.631 269.7C166.557 269.7 166.507 269.675 166.458 269.626C166.408 269.601 166.359 269.551 166.334 269.477C166.309 269.427 166.284 269.353 166.284 269.278C166.284 269.204 166.309 269.154 166.334 269.105C166.334 269.055 166.359 268.981 166.408 268.931C166.433 268.882 166.483 268.832 166.557 268.807C166.607 268.782 166.681 268.758 166.731 268.758C166.805 268.758 166.855 268.782 166.904 268.807L203.683 281.604C203.881 281.703 204.079 282.001 203.98 282.174C203.931 282.249 203.856 282.323 203.782 282.373C203.683 282.447 203.608 282.472 203.509 282.497Z" fill="#02133B"/>
<path d="M171.74 286.837H171.542L162.291 283.563C162.217 283.514 162.143 283.414 162.118 283.315C162.093 283.216 162.093 283.117 162.118 283.018C162.143 282.918 162.217 282.844 162.291 282.77C162.366 282.72 162.465 282.67 162.564 282.67L171.914 285.845C172.038 285.894 172.137 286.018 172.187 286.118C172.236 286.242 172.236 286.39 172.211 286.514C172.162 286.614 172.112 286.688 172.013 286.738C171.939 286.812 171.839 286.837 171.74 286.837Z" fill="#02133B"/>
<path d="M206.113 219.133C234.137 219.133 256.854 196.416 256.854 168.392C256.854 140.368 234.137 117.651 206.113 117.651C178.089 117.651 155.372 140.368 155.372 168.392C155.372 196.416 178.089 219.133 206.113 219.133Z" fill="#F7AE38"/>
<path d="M206.113 210.378C229.028 210.378 247.603 191.803 247.603 168.888C247.603 145.973 229.028 127.398 206.113 127.398C183.198 127.398 164.623 145.973 164.623 168.888C164.623 191.803 183.198 210.378 206.113 210.378Z" fill="white"/>
<path d="M206.113 210.949C197.78 210.974 189.646 208.518 182.702 203.906C175.758 199.293 170.351 192.721 167.152 185.033C163.953 177.345 163.11 168.888 164.722 160.704C166.334 152.52 170.326 145.03 176.204 139.128C182.082 133.226 189.571 129.208 197.755 127.596C205.914 125.959 214.396 126.802 222.084 129.977C229.772 133.151 236.344 138.558 240.982 145.477C245.619 152.396 248.074 160.53 248.074 168.863C248.074 179.998 243.66 190.687 235.774 198.574C227.887 206.46 217.248 210.924 206.113 210.949ZM206.113 127.869C197.978 127.844 190.018 130.25 183.247 134.763C176.477 139.277 171.194 145.7 168.07 153.214C164.945 160.729 164.126 169.012 165.714 176.998C167.301 184.983 171.219 192.324 176.973 198.078C182.726 203.831 190.067 207.75 198.053 209.337C206.038 210.924 214.322 210.106 221.836 206.981C229.35 203.856 235.774 198.574 240.287 191.803C244.801 185.033 247.206 177.072 247.182 168.938C247.157 158.075 242.817 147.659 235.129 139.971C227.391 132.234 216.975 127.894 206.113 127.869Z" fill="#02133B"/>
<path d="M206.113 177.444C186.372 177.444 170.103 168.863 169.905 168.789C169.855 168.739 169.806 168.69 169.756 168.615C169.731 168.541 169.707 168.466 169.707 168.392C169.707 168.218 169.781 168.045 169.905 167.921C170.103 167.921 186.372 159.34 206.113 159.34C225.854 159.34 242.023 167.921 242.222 167.921C242.346 168.045 242.42 168.218 242.42 168.392C242.42 168.466 242.395 168.541 242.371 168.615C242.346 168.69 242.296 168.739 242.222 168.789C242.023 168.888 225.755 177.444 206.113 177.444ZM171.244 168.392C174.815 170.128 189.15 176.477 206.088 176.477C223.027 176.477 237.287 170.128 240.858 168.392C237.287 166.656 222.952 160.307 206.113 160.307C189.274 160.307 174.815 166.681 171.244 168.392Z" fill="#02133B"/>
<path d="M207.254 176.973C211.99 176.973 215.834 173.129 215.834 168.392C215.834 163.655 211.99 159.811 207.254 159.811C202.517 159.811 198.673 163.655 198.673 168.392C198.698 173.129 202.517 176.973 207.254 176.973Z" fill="#02133B"/>
<path d="M237.882 156.562C237.782 156.562 237.683 156.538 237.584 156.488C237.51 156.438 237.435 156.364 237.386 156.265C234.162 147.957 227.763 141.261 219.604 137.64C211.445 134.019 202.194 133.796 193.862 136.995C193.812 137.045 193.738 137.07 193.663 137.094C193.589 137.119 193.514 137.094 193.44 137.07C193.366 137.045 193.291 136.995 193.242 136.946C193.192 136.896 193.142 136.822 193.118 136.747C193.093 136.673 193.093 136.598 193.093 136.524C193.093 136.45 193.142 136.375 193.167 136.326C193.217 136.276 193.266 136.202 193.341 136.177C193.415 136.152 193.49 136.127 193.564 136.127C197.805 134.466 202.318 133.647 206.857 133.746C211.395 133.846 215.884 134.862 220.026 136.698C228.408 140.418 235.005 147.312 238.328 155.868C238.378 155.992 238.353 156.141 238.303 156.265C238.254 156.389 238.154 156.488 238.03 156.562H237.882Z" fill="#02133B"/>
<path d="M219.976 259.482C219.976 259.482 213.528 264.69 219.976 269.105V259.482Z" fill="white"/>
<path d="M219.976 269.601H219.678C217.744 268.162 216.702 266.625 216.702 264.889C216.702 263.153 219.579 259.21 219.678 259.11C219.777 259.036 219.901 259.011 220.025 259.011C220.149 259.036 220.273 259.086 220.348 259.21C220.397 259.259 220.447 259.309 220.472 259.383C220.497 259.458 220.497 259.507 220.497 259.582C220.497 259.656 220.447 259.73 220.422 259.78C220.373 259.83 220.323 259.879 220.249 259.904C220.249 259.904 217.545 262.21 217.645 264.814C217.744 267.418 218.513 267.617 220.249 268.758C220.348 268.832 220.422 268.956 220.447 269.08C220.472 269.204 220.422 269.328 220.348 269.427C220.249 269.601 220.149 269.601 219.976 269.601Z" fill="#02133B"/>
<path d="M202.443 290.78H202.145C200.161 289.441 199.194 288.002 199.268 286.44C199.467 283.737 203.112 282.026 203.311 281.926C203.435 281.902 203.559 281.902 203.683 281.926C203.807 281.951 203.906 282.026 203.98 282.125C204.005 282.199 204.03 282.249 204.03 282.323C204.03 282.398 204.03 282.472 203.98 282.522C203.931 282.571 203.906 282.646 203.856 282.695C203.807 282.745 203.732 282.77 203.683 282.794C203.683 282.794 200.409 284.431 200.211 286.539C200.012 288.647 200.979 288.746 202.715 289.912C202.815 289.986 202.889 290.11 202.914 290.234C202.939 290.358 202.889 290.482 202.815 290.582C202.74 290.78 202.641 290.78 202.443 290.78Z" fill="#02133B"/>
<path d="M187.24 308.09C187.141 308.066 187.042 308.016 186.943 307.966C186.868 307.892 186.794 307.818 186.744 307.718C186.744 307.247 186.075 303.205 187.984 301.94C189.919 300.675 190.291 301.469 192.027 302.51C192.076 302.56 192.126 302.585 192.151 302.659C192.175 302.734 192.2 302.783 192.225 302.833C192.225 302.907 192.225 302.957 192.225 303.031C192.2 303.081 192.175 303.155 192.151 303.205C192.076 303.304 191.977 303.378 191.853 303.403C191.729 303.428 191.605 303.428 191.481 303.378C190.613 302.808 189.274 302.213 188.505 302.709C187.736 303.18 187.538 306.454 187.736 307.52C187.761 307.594 187.786 307.644 187.786 307.718C187.786 307.793 187.761 307.867 187.711 307.917C187.662 307.966 187.612 308.016 187.538 308.041C187.463 308.066 187.389 308.09 187.315 308.066H187.24V308.09Z" fill="#02133B"/>
<path d="M44.4415 339.958C24.8991 339.958 23.1631 335.544 23.0639 335.246C22.9647 334.949 23.1631 334.775 23.4607 334.676C23.5103 334.651 23.5847 334.626 23.6343 334.626C23.6839 334.626 23.7583 334.626 23.8079 334.676C23.8575 334.701 23.9071 334.75 23.9567 334.8C23.9815 334.85 24.0063 334.924 24.0311 334.974C24.0311 335.073 27.6023 342.091 68.5967 337.379C68.7207 337.379 68.8447 337.429 68.9439 337.528C69.0431 337.627 69.0927 337.751 69.0927 337.875C69.1919 338.173 68.9935 338.346 68.6959 338.346C60.6607 339.314 52.5511 339.884 44.4415 339.958Z" fill="#02133B"/>
<path d="M42.5322 349.705C29.3386 349.705 24.2298 347.498 22.1218 345.861C21.4274 345.39 20.9314 344.67 20.7826 343.827C20.6834 343.629 20.8818 343.356 21.1794 343.356C21.477 343.356 21.6506 343.455 21.7498 343.753C21.849 344.05 23.6842 351.937 64.6786 347.225C64.8274 347.225 64.9514 347.274 65.0506 347.349C65.1498 347.448 65.2242 347.547 65.249 347.696C65.249 347.82 65.1994 347.944 65.1002 348.043C65.001 348.142 64.877 348.192 64.753 348.192C57.3874 349.085 49.9722 349.606 42.5322 349.705Z" fill="#02133B"/>
<path d="M170.376 236.369L186.546 234.335L185.306 240.114L170.376 236.369Z" fill="#02133B"/>
<path d="M166.061 221.464L187.141 227.242L187.339 220.125C187.339 220.1 169.905 222.506 166.061 221.464Z" fill="#02133B"/>
<path d="M140.542 229.053C140.542 229.053 142.178 235.203 148.626 236.17L140.542 229.053Z" fill="white"/>
<path d="M148.627 236.666C146.643 236.319 144.783 235.451 143.27 234.112C141.757 232.798 140.641 231.062 140.046 229.152C139.947 228.854 140.145 228.681 140.443 228.582C140.74 228.482 140.914 228.681 141.013 228.879C141.509 230.64 142.501 232.227 143.865 233.418C145.229 234.633 146.915 235.426 148.726 235.699C149.023 235.798 149.197 235.997 149.123 236.27C149.098 236.369 149.048 236.468 148.949 236.542C148.85 236.642 148.751 236.666 148.627 236.666Z" fill="#02133B"/>
<path d="M133.499 188.43C130.82 188.579 128.167 187.711 126.083 186.025C125.067 185.107 124.273 183.966 123.752 182.702C123.231 181.437 122.959 180.073 123.008 178.709C122.983 177.37 123.281 176.03 123.827 174.79C124.372 173.55 125.191 172.459 126.183 171.566C127.819 170.128 130.795 168.59 135.805 169.359C135.904 169.409 136.003 169.483 136.078 169.582C136.152 169.682 136.177 169.806 136.202 169.93C136.202 170.227 135.904 170.326 135.631 170.326C131.961 169.756 128.886 170.426 126.778 172.261C125.91 173.104 125.191 174.096 124.719 175.212C124.248 176.328 123.975 177.518 123.975 178.734C123.975 179.949 124.199 181.139 124.67 182.255C125.141 183.371 125.811 184.388 126.679 185.231C128.787 187.066 131.887 187.835 135.631 187.339C135.929 187.339 136.202 187.538 136.202 187.736C136.202 187.934 136.003 188.306 135.805 188.306L133.499 188.43Z" fill="#02133B"/>
<path d="M130.522 182.454C130.398 182.429 130.299 182.379 130.2 182.28C130.126 182.206 130.051 182.082 130.026 181.958V176.576C130.026 176.452 130.076 176.328 130.175 176.229C130.274 176.13 130.398 176.08 130.522 176.08C130.646 176.08 130.77 176.13 130.87 176.229C130.969 176.328 131.018 176.452 131.018 176.576V181.958C131.018 182.082 130.969 182.206 130.87 182.305C130.77 182.404 130.646 182.454 130.522 182.454Z" fill="#02133B"/>
<path d="M150.065 205.096C150.065 205.096 155.843 213.751 164.499 210.478L150.065 205.096Z" fill="white"/>
<path d="M160.555 211.643C153.909 211.643 149.767 205.493 149.668 205.394C149.569 205.294 149.569 204.823 149.867 204.724C149.966 204.65 150.09 204.625 150.214 204.625C150.338 204.65 150.462 204.699 150.536 204.823C150.735 205.22 156.116 213.206 164.3 210.031C164.375 210.006 164.424 209.982 164.499 209.982C164.573 209.982 164.647 209.982 164.697 210.031C164.771 210.056 164.821 210.106 164.871 210.155C164.92 210.205 164.945 210.279 164.97 210.329C164.995 210.378 165.019 210.453 165.019 210.502C165.019 210.577 165.019 210.626 164.97 210.676C164.945 210.726 164.895 210.775 164.846 210.825C164.796 210.85 164.722 210.874 164.672 210.899C163.383 211.395 161.994 211.643 160.555 211.643Z" fill="#02133B"/>
<path d="M70.5311 133.449L70.0599 133.25C70.0351 133.176 70.0103 133.126 70.0103 133.052C70.0103 132.978 70.0103 132.903 70.0599 132.854C70.0847 132.779 70.1343 132.73 70.1839 132.68C70.2335 132.63 70.3079 132.606 70.3575 132.581L79.6079 127.67C79.8063 127.472 80.0791 127.571 80.2775 127.869C80.3023 127.993 80.3023 128.117 80.2775 128.241C80.2527 128.365 80.1783 128.464 80.0791 128.538L70.7295 133.449H70.5311V133.449Z" fill="#02133B"/>
<path d="M324.335 380.804H288.325C269.08 380.804 253.382 369.049 253.382 354.615V328.426H324.335V380.804Z" fill="#02133B"/>
<path d="M400.966 341.992H369.297C352.259 341.992 338.396 330.237 338.396 315.803V289.614H400.966V341.992Z" fill="#02133B"/>
<path d="M415.698 243.883V321.954C415.698 323.392 415.599 324.855 415.4 326.294C415.152 327.93 414.805 329.518 414.334 331.105C409.126 348.341 383.706 344.77 383.433 326.765V317.911C383.433 312.728 381.375 307.768 377.704 304.098C374.034 300.427 369.074 298.369 363.891 298.369C358.707 298.369 353.747 300.427 350.077 304.098C346.407 307.768 344.348 312.728 344.348 317.911V326.765L343.877 361.237C343.877 366.42 341.819 371.38 338.148 375.05C334.478 378.721 329.518 380.779 324.335 380.779C318.903 380.779 313.671 378.622 309.827 374.778C305.983 370.934 303.825 365.726 303.825 360.27V350.548C303.899 346.109 302.337 341.794 299.435 338.421C296.534 335.048 292.516 332.866 288.127 332.246H283.018C278.157 332.246 273.519 334.18 270.072 337.602C266.65 341.025 264.715 345.687 264.715 350.548C264.715 355.434 263.748 360.27 261.888 364.758C260.028 369.272 257.275 373.364 253.828 376.811C250.381 380.258 246.289 383.011 241.775 384.871C237.262 386.731 232.426 387.698 227.565 387.698H126.877L153.363 344.001C155.496 340.405 158.522 337.454 162.167 335.395C165.788 333.337 169.905 332.246 174.071 332.27H219.48V319.474C219.505 313.869 221.737 308.512 225.73 304.569C229.698 300.626 235.079 298.394 240.684 298.394H292.566V243.883H415.698Z" fill="#A8BBBF"/>
<path d="M287.953 333.337L179.155 333.039C179.031 333.039 178.907 332.99 178.808 332.89C178.709 332.791 178.659 332.667 178.659 332.543C178.659 332.419 178.709 332.295 178.808 332.196C178.907 332.097 179.031 332.047 179.155 332.047L287.953 332.345C288.077 332.345 288.201 332.394 288.3 332.494C288.399 332.593 288.449 332.692 288.449 332.841C288.424 332.965 288.374 333.064 288.275 333.163C288.176 333.262 288.052 333.312 287.953 333.337Z" fill="#02133B"/>
<path d="M363.915 299.336L277.735 298.865C277.611 298.865 277.487 298.815 277.388 298.716C277.289 298.617 277.239 298.493 277.239 298.369C277.239 298.245 277.289 298.121 277.388 298.022C277.487 297.922 277.586 297.873 277.735 297.873L363.915 298.344C364.039 298.344 364.163 298.394 364.262 298.493C364.362 298.592 364.411 298.716 364.411 298.84C364.411 298.964 364.362 299.088 364.262 299.187C364.163 299.286 364.039 299.336 363.915 299.336Z" fill="#02133B"/>
<path d="M140.442 457.634H52.4521C52.3281 457.634 52.2041 457.585 52.1049 457.486C52.0057 457.386 51.9561 457.287 51.9561 457.138C51.9561 457.014 52.0057 456.89 52.1049 456.791C52.2041 456.692 52.3281 456.642 52.4521 456.642H140.442C140.566 456.642 140.69 456.692 140.79 456.791C140.889 456.89 140.938 457.014 140.938 457.138C140.938 457.262 140.889 457.386 140.79 457.486C140.69 457.585 140.566 457.634 140.442 457.634Z" fill="#02133B"/>
<path d="M414.73 261.218H293.706C293.582 261.218 293.458 261.169 293.359 261.07C293.26 260.97 293.21 260.846 293.21 260.722C293.21 260.598 293.26 260.474 293.359 260.375C293.458 260.276 293.582 260.226 293.706 260.226H414.73C414.854 260.226 414.978 260.276 415.078 260.375C415.177 260.474 415.226 260.574 415.226 260.722C415.226 260.846 415.177 260.97 415.078 261.07C414.978 261.169 414.879 261.218 414.73 261.218Z" fill="#02133B"/>
<path d="M393.278 275.478H299.981C299.857 275.478 299.733 275.429 299.634 275.33C299.534 275.23 299.485 275.106 299.485 274.982C299.485 274.858 299.534 274.734 299.634 274.635C299.733 274.536 299.857 274.486 299.981 274.486H393.278C393.402 274.486 393.526 274.536 393.626 274.635C393.725 274.734 393.774 274.858 393.774 274.982C393.774 275.106 393.725 275.23 393.626 275.33C393.526 275.404 393.402 275.478 393.278 275.478Z" fill="#02133B"/>
<path d="M350.722 286.638H328.005C327.881 286.638 327.757 286.589 327.658 286.49C327.558 286.39 327.509 286.266 327.509 286.142C327.509 286.018 327.558 285.894 327.658 285.795C327.757 285.696 327.881 285.646 328.005 285.646H350.722C350.846 285.646 350.97 285.696 351.069 285.795C351.168 285.894 351.218 285.994 351.218 286.142C351.218 286.266 351.168 286.39 351.069 286.49C350.97 286.589 350.846 286.638 350.722 286.638Z" fill="#02133B"/>
<path d="M330.882 314.266H234.807C234.683 314.266 234.559 314.216 234.459 314.117C234.36 314.018 234.311 313.894 234.311 313.77C234.311 313.646 234.36 313.522 234.459 313.422C234.559 313.323 234.683 313.274 234.807 313.274H330.882C331.006 313.298 331.105 313.348 331.204 313.447C331.279 313.522 331.353 313.646 331.378 313.77C331.378 313.894 331.328 314.018 331.229 314.117C331.13 314.216 331.006 314.266 330.882 314.266Z" fill="#02133B"/>
<path d="M265.41 324.458C265.286 324.458 265.162 324.409 265.062 324.31C264.963 324.21 264.914 324.111 264.914 323.962C264.914 323.838 264.963 323.714 265.062 323.615C265.162 323.516 265.261 323.466 265.41 323.466L330.882 323.268C331.006 323.293 331.105 323.342 331.204 323.442C331.278 323.516 331.353 323.64 331.378 323.764C331.378 323.888 331.328 324.012 331.229 324.111C331.13 324.21 331.006 324.26 330.882 324.26L265.41 324.458Z" fill="#02133B"/>
<path d="M206.113 356.252H155.843C155.719 356.252 155.595 356.202 155.496 356.103C155.397 356.004 155.347 355.88 155.347 355.756C155.347 355.632 155.397 355.508 155.496 355.409C155.595 355.31 155.719 355.26 155.843 355.26H206.113C206.237 355.26 206.361 355.31 206.46 355.409C206.559 355.508 206.609 355.632 206.609 355.756C206.609 355.88 206.559 356.004 206.46 356.103C206.361 356.202 206.237 356.252 206.113 356.252Z" fill="#02133B"/>
<path d="M204.079 368.379H152.57C152.446 368.379 152.322 368.33 152.223 368.23C152.123 368.131 152.074 368.007 152.074 367.883C152.074 367.759 152.123 367.635 152.223 367.536C152.322 367.437 152.446 367.387 152.57 367.387H204.079C204.203 367.387 204.327 367.437 204.427 367.536C204.526 367.635 204.575 367.759 204.575 367.883C204.575 368.007 204.526 368.131 204.427 368.23C204.327 368.33 204.203 368.379 204.079 368.379Z" fill="#02133B"/>
<path d="M229.499 355.086H215.537V368.999H229.499V355.086Z" fill="white"/>
<path d="M229.4 369.52H215.537C215.413 369.52 215.289 369.47 215.19 369.371C215.091 369.272 215.041 369.148 215.041 369.024V355.062C215.041 354.938 215.091 354.814 215.19 354.714C215.289 354.615 215.413 354.566 215.537 354.566H229.4C229.524 354.566 229.648 354.615 229.747 354.714C229.847 354.814 229.896 354.938 229.896 355.062V369.024C229.896 369.148 229.847 369.272 229.747 369.371C229.648 369.47 229.524 369.52 229.4 369.52ZM216.033 368.578H228.929V355.582H216.033V368.578Z" fill="#02133B"/>
<path d="M222.481 308.115C222.357 308.115 222.233 308.066 222.134 307.966C222.034 307.867 221.985 307.743 221.985 307.619V298.369C221.985 298.245 222.034 298.121 222.134 298.022C222.233 297.922 222.357 297.873 222.481 297.873C222.605 297.873 222.729 297.922 222.828 298.022C222.927 298.121 222.977 298.245 222.977 298.369V307.619C222.977 307.743 222.927 307.867 222.828 307.966C222.729 308.066 222.605 308.115 222.481 308.115Z" fill="#02133B"/>
<path d="M262.136 226.548C261.838 226.548 261.665 226.449 261.665 226.151L257.424 211.817C257.399 211.668 257.449 211.544 257.498 211.42C257.573 211.296 257.672 211.197 257.796 211.147C257.92 211.147 258.044 211.172 258.143 211.246C258.242 211.321 258.317 211.42 258.366 211.544L262.508 225.978C262.533 226.027 262.558 226.102 262.558 226.151C262.558 226.226 262.533 226.275 262.508 226.325C262.483 226.374 262.434 226.424 262.384 226.474C262.334 226.523 262.26 226.523 262.21 226.548H262.136V226.548Z" fill="#02133B"/>
<path d="M485.51 193.638L485.212 193.44L478.566 186.422C478.367 186.223 478.367 185.851 478.566 185.752C478.665 185.653 478.764 185.603 478.913 185.603C479.062 185.603 479.161 185.653 479.26 185.752L485.907 192.77C486.006 192.87 486.055 192.994 486.055 193.118C486.055 193.242 486.006 193.366 485.907 193.465L485.51 193.638Z" fill="#F14146"/>
<path d="M148.056 446.177C147.932 446.177 147.833 446.152 147.733 446.078C147.634 446.003 147.585 445.904 147.56 445.805L144.286 433.008C144.261 432.934 144.261 432.884 144.286 432.81C144.286 432.735 144.311 432.686 144.361 432.636C144.385 432.586 144.435 432.537 144.509 432.487C144.559 432.462 144.633 432.438 144.683 432.413C144.981 432.314 145.154 432.512 145.253 432.785L148.527 445.582C148.552 445.656 148.552 445.706 148.527 445.78C148.527 445.854 148.502 445.904 148.453 445.954C148.428 446.003 148.378 446.053 148.304 446.102C148.254 446.127 148.18 446.152 148.13 446.177H148.056Z" fill="#02133B"/>
<path d="M252.216 400.917C252.191 400.917 252.166 400.917 252.142 400.892C252.117 400.867 252.117 400.842 252.117 400.818L237.956 396.106C237.658 396.006 237.485 395.734 237.559 395.535C237.584 395.461 237.609 395.411 237.658 395.362C237.708 395.312 237.758 395.262 237.832 395.238C237.906 395.213 237.956 395.188 238.03 395.188C238.105 395.188 238.179 395.213 238.229 395.238L252.39 399.95C252.464 399.95 252.514 399.974 252.563 400.024C252.613 400.074 252.662 400.098 252.687 400.173C252.712 400.222 252.737 400.297 252.737 400.346C252.737 400.421 252.712 400.47 252.687 400.52C252.638 400.619 252.588 400.694 252.489 400.768C252.414 400.842 252.34 400.892 252.216 400.917Z" fill="#F14146"/>
<path d="M329.245 257.077C329.17 257.077 329.096 257.052 329.022 257.027C328.947 257.002 328.898 256.953 328.848 256.878C328.749 256.779 328.699 256.68 328.699 256.531C328.699 256.382 328.749 256.283 328.848 256.184L338.272 247.033C338.371 246.958 338.47 246.934 338.594 246.934C338.718 246.934 338.818 246.983 338.892 247.082C338.966 247.157 339.016 247.281 339.041 247.38C339.041 247.504 339.016 247.603 338.942 247.702L329.493 256.854L329.245 257.077Z" fill="#02133B"/>
<path d="M338.669 257.077L338.272 256.878L328.848 247.727C328.774 247.628 328.749 247.529 328.749 247.405C328.749 247.281 328.799 247.182 328.898 247.107C328.972 247.033 329.096 246.983 329.195 246.958C329.319 246.958 329.419 246.983 329.518 247.058L338.967 256.209C339.041 256.308 339.091 256.407 339.091 256.556C339.091 256.705 339.041 256.804 338.967 256.903L338.669 257.077Z" fill="#02133B"/>
<path d="M320.962 246.686H311.042V256.606H320.962V246.686Z" fill="white"/>
<path d="M299.385 256.506C302.089 256.506 304.296 254.299 304.296 251.596C304.296 248.893 302.089 246.686 299.385 246.686C296.682 246.686 294.475 248.893 294.475 251.596C294.475 254.299 296.682 256.506 299.385 256.506Z" fill="#F14146"/>
<path d="M320.887 374.331C312.505 392.733 295.368 402.926 295.368 402.926C295.368 402.926 291.896 383.284 300.378 364.907C308.859 346.506 325.897 336.412 325.897 336.412C325.897 336.412 329.369 356.054 320.887 374.331Z" fill="white"/>
<path d="M295.368 403.422H295.169L294.872 403.124C294.872 402.826 291.499 383.086 299.881 364.808C308.264 346.506 325.5 336.214 325.599 336.114H326.07C326.169 336.114 326.269 336.313 326.368 336.412C326.467 336.511 329.741 356.351 321.358 374.629C312.976 392.931 295.839 403.223 295.665 403.322L295.368 403.422ZM325.5 337.181C322.425 339.214 308.165 349.11 300.749 365.106C293.334 381.077 295.269 398.412 295.74 402.082C298.815 400.049 313.075 390.228 320.49 374.158C327.905 358.062 325.996 340.926 325.5 337.181Z" fill="#02133B"/>
<path d="M283.042 366.073C294.029 383.011 293.434 402.95 293.434 402.95C293.434 402.95 275.032 395.337 264.07 378.398C253.084 361.46 253.58 341.62 253.58 341.62C253.58 341.62 272.081 349.11 283.042 366.073Z" fill="white"/>
<path d="M293.434 403.422H293.235C293.037 403.322 274.561 395.634 263.574 378.77C252.588 361.931 253.084 341.893 253.084 341.694C253.084 341.521 253.158 341.347 253.282 341.223H253.754C253.952 341.322 272.428 349.01 283.414 365.874C294.401 382.714 293.905 402.851 293.905 403.025C293.88 403.174 293.806 403.298 293.706 403.397H293.434V403.422ZM254.076 342.29C254.175 346.034 254.845 363.37 264.467 378.2C274.09 393.03 289.59 400.644 292.962 402.182C292.962 398.437 292.293 381.201 282.67 366.37C273.023 351.515 257.424 343.827 254.076 342.29Z" fill="#02133B"/>
<path d="M301.444 389.93H301.245C301.146 389.856 301.072 389.757 301.047 389.633C301.022 389.509 301.022 389.385 301.072 389.261L325.425 336.214C325.45 336.164 325.5 336.114 325.549 336.065C325.599 336.015 325.649 335.99 325.723 335.966C325.773 335.941 325.847 335.941 325.921 335.941C325.996 335.941 326.045 335.966 326.095 336.015C326.293 336.114 326.492 336.412 326.293 336.586L301.94 389.633C301.89 389.732 301.841 389.806 301.741 389.856C301.642 389.93 301.543 389.955 301.444 389.93Z" fill="#02133B"/>
<path d="M286.985 392.162L286.613 391.964L253.208 341.794C253.109 341.595 253.109 341.322 253.307 341.223C253.406 341.149 253.53 341.124 253.654 341.124C253.778 341.149 253.902 341.198 253.977 341.322L287.382 391.394C287.457 391.493 287.481 391.617 287.481 391.741C287.457 391.865 287.407 391.989 287.283 392.063L286.985 392.162Z" fill="#02133B"/>
<path d="M278.802 379.837C278.678 379.837 278.554 379.787 278.454 379.688C278.355 379.589 278.306 379.465 278.306 379.341V366.643C278.306 366.519 278.355 366.395 278.454 366.296C278.554 366.197 278.678 366.147 278.802 366.147C278.926 366.147 279.05 366.197 279.149 366.296C279.248 366.395 279.298 366.519 279.298 366.643V379.341C279.298 379.465 279.248 379.589 279.149 379.688C279.05 379.787 278.926 379.837 278.802 379.837Z" fill="#02133B"/>
<path d="M267.84 363.469H267.741L261.194 361.832C260.995 361.832 260.797 361.534 260.896 361.262C260.995 360.964 261.194 360.865 261.466 360.964L267.914 362.502C268.212 362.601 268.386 362.799 268.311 363.072C268.212 363.37 268.038 363.469 267.84 363.469Z" fill="#02133B"/>
<path d="M303.949 383.11C303.825 383.11 303.701 383.061 303.601 382.962C303.502 382.862 303.453 382.738 303.453 382.614V367.883C303.453 367.759 303.502 367.635 303.601 367.536C303.701 367.437 303.825 367.387 303.949 367.387C304.073 367.412 304.172 367.462 304.271 367.561C304.37 367.66 304.42 367.759 304.445 367.883V382.614C304.445 382.738 304.395 382.862 304.296 382.962C304.197 383.061 304.073 383.11 303.949 383.11Z" fill="#02133B"/>
<path d="M313.001 364.907C312.802 364.907 312.703 364.808 312.604 364.61C312.505 364.411 312.505 364.138 312.802 364.039L321.185 359.327C321.284 359.278 321.408 359.278 321.507 359.327C321.606 359.352 321.705 359.426 321.755 359.526C321.829 359.625 321.854 359.749 321.854 359.873C321.829 359.997 321.78 360.121 321.656 360.195L313.174 364.808L313.001 364.907Z" fill="#02133B"/>
<path d="M323.193 461.578H266.302L251.273 404.19H338.222L323.193 461.578Z" fill="white"/>
<path d="M323.194 462.049H266.302C266.005 462.049 265.906 461.85 265.831 461.652L250.802 404.364C250.778 404.19 250.802 404.017 250.902 403.893L251.298 403.694H338.247L338.644 403.893C338.743 404.042 338.768 404.215 338.743 404.364L323.714 461.652C323.665 461.751 323.59 461.826 323.516 461.9C323.392 461.974 323.293 462.024 323.194 462.049ZM266.674 461.082H322.797L337.528 404.662H251.844L266.674 461.082Z" fill="#02133B"/>
<path d="M342.637 397.445H248V410.936H342.637V397.445Z" fill="#F14146"/>
<path d="M290.085 410.936L334.75 417.384L336.486 410.936H290.085Z" fill="#02133B"/>
<path d="M92.6031 355.582C94.1407 355.582 95.6039 356.178 96.6951 357.269C97.7863 358.36 98.3815 359.823 98.3815 361.361V413.639H86.8247V361.262C86.8495 359.749 87.4695 358.31 88.5607 357.244C89.6271 356.178 91.0655 355.582 92.6031 355.582Z" fill="#F14146"/>
<path d="M97.3151 393.402C96.3231 393.378 95.3807 392.981 94.6863 392.286C93.9919 391.592 93.5951 390.65 93.5703 389.658V368.85C93.5951 367.858 93.9919 366.916 94.6863 366.222C95.3807 365.527 96.3231 365.13 97.3151 365.106C97.8111 365.106 98.3071 365.205 98.7535 365.378C99.1999 365.552 99.6215 365.85 99.9687 366.197C100.316 366.544 100.589 366.966 100.787 367.412C100.986 367.858 101.085 368.354 101.085 368.85V389.658C101.085 390.154 100.986 390.625 100.787 391.096C100.589 391.542 100.316 391.964 99.9687 392.311C99.6215 392.658 99.1999 392.931 98.7535 393.13C98.2823 393.303 97.8111 393.402 97.3151 393.402ZM97.3151 366.073C96.5711 366.073 95.8767 366.37 95.3311 366.891C94.8103 367.412 94.5127 368.131 94.5127 368.875V389.682C94.5127 390.426 94.8103 391.121 95.3311 391.666C95.8519 392.187 96.5711 392.485 97.3151 392.485C98.0591 392.485 98.7783 392.187 99.2991 391.666C99.8199 391.146 100.118 390.426 100.118 389.682V368.875C100.118 368.131 99.8199 367.437 99.2991 366.891C98.7535 366.346 98.0591 366.073 97.3151 366.073Z" fill="#02133B"/>
<path d="M93.7442 376.836H86.8002C86.6762 376.836 86.5522 376.786 86.453 376.687C86.3538 376.588 86.3042 376.464 86.3042 376.34C86.3042 376.216 86.3538 376.092 86.453 375.993C86.5522 375.894 86.6762 375.844 86.8002 375.844H93.7442C93.8682 375.844 93.9922 375.894 94.0914 375.993C94.1906 376.092 94.2402 376.216 94.2402 376.34C94.2402 376.464 94.1906 376.588 94.0914 376.687C93.9922 376.786 93.8682 376.836 93.7442 376.836Z" fill="#02133B"/>
<path d="M103.094 385.714L113.584 371.554L118.891 389.757L111.005 425.196L95.604 422.294L103.094 385.714Z" fill="white"/>
<path d="M110.98 425.667H110.881L95.4798 422.79L95.1822 422.592C95.1078 422.468 95.083 422.344 95.083 422.22L102.597 385.64V385.442L113.088 371.256C113.187 371.058 113.385 371.058 113.559 371.058C113.757 371.058 113.857 371.256 113.956 371.355L119.263 389.558V389.856L111.377 425.295C111.352 425.394 111.302 425.469 111.253 425.543C111.153 425.593 111.079 425.642 110.98 425.667ZM96.1494 421.898L110.583 424.601L118.37 389.757L113.361 372.62L103.441 385.913L96.1494 421.898Z" fill="#02133B"/>
<path d="M71.5977 397.172L81.2201 428.842L97.2904 423.931L88.8089 391.865L75.7145 379.242L71.5977 397.172Z" fill="white"/>
<path d="M81.22 429.313H80.9224C80.8232 429.313 80.724 429.214 80.724 429.015L71.1016 397.445V397.147L75.2432 379.242C75.3176 379.068 75.4664 378.944 75.64 378.845C75.7392 378.845 75.8136 378.845 75.9128 378.894C75.9872 378.919 76.0616 378.969 76.136 379.043L89.2304 391.666C89.2304 391.766 89.3296 391.766 89.3296 391.865L97.8112 423.931C97.9104 424.13 97.712 424.402 97.5136 424.502L81.344 429.313H81.22ZM72.0936 397.172L81.5176 428.271L96.72 423.658L88.4368 392.187L76.012 380.258L72.0936 397.172Z" fill="#02133B"/>
<path d="M106.367 424.799H106.268C106.069 424.799 105.871 424.502 105.871 424.229L113.857 388.517C113.857 388.442 113.857 388.368 113.881 388.318C113.906 388.244 113.956 388.194 114.03 388.145C114.08 388.095 114.154 388.095 114.229 388.07C114.303 388.07 114.377 388.095 114.427 388.12C114.501 388.12 114.551 388.145 114.601 388.194C114.65 388.244 114.7 388.269 114.749 388.343C114.774 388.393 114.799 388.467 114.824 388.517C114.849 388.566 114.824 388.641 114.824 388.715L106.838 424.427C106.838 424.7 106.64 424.799 106.367 424.799Z" fill="#02133B"/>
<path d="M99.9193 423.931H99.8201C99.6961 423.882 99.5969 423.807 99.5225 423.708C99.4481 423.609 99.4233 423.485 99.4233 423.361L106.739 387.153C106.839 386.855 107.037 386.682 107.31 386.781C107.607 386.88 107.707 387.078 107.707 387.351L100.391 423.559C100.391 423.733 100.093 423.931 99.9193 423.931Z" fill="#02133B"/>
<path d="M92.6033 425.866C92.3057 425.866 92.1321 425.766 92.1321 425.568L82.7081 393.799C82.6833 393.75 82.6833 393.675 82.7081 393.601C82.7081 393.526 82.7329 393.477 82.7825 393.427C82.8073 393.378 82.8569 393.328 82.9313 393.278C82.9809 393.254 83.0553 393.229 83.1049 393.204C83.1545 393.179 83.2289 393.154 83.2785 393.154C83.3281 393.154 83.4025 393.179 83.4521 393.204C83.5017 393.229 83.5513 393.278 83.6009 393.328C83.6257 393.378 83.6505 393.452 83.6753 393.502L93.0249 425.27C93.0497 425.32 93.0744 425.394 93.0744 425.444C93.0744 425.518 93.0745 425.568 93.0249 425.642C93.0001 425.692 92.9505 425.742 92.9009 425.791C92.8513 425.841 92.7769 425.841 92.7273 425.866H92.6033Z" fill="#02133B"/>
<path d="M86.8249 427.577C86.7257 427.577 86.6265 427.552 86.5273 427.502C86.4529 427.453 86.3785 427.378 86.3289 427.279L77.3761 396.205C77.2769 395.907 77.3761 395.634 77.6737 395.634C77.7233 395.61 77.7977 395.585 77.8473 395.585C77.9217 395.585 77.9713 395.585 78.0209 395.634C78.0705 395.659 78.1201 395.709 78.1697 395.758C78.1945 395.808 78.2193 395.882 78.2441 395.932L87.2961 427.031C87.3209 427.081 87.3209 427.155 87.2961 427.23C87.2961 427.304 87.2713 427.354 87.2217 427.403C87.1969 427.453 87.1473 427.502 87.0729 427.527C86.9985 427.552 86.9489 427.577 86.8993 427.602H86.8249V427.577Z" fill="#02133B"/>
<path d="M121.966 413.54H69.1919V456.568H121.942V413.54H121.966Z" fill="#F7AE38"/>
<path d="M108.872 377.902L115.816 379.242L113.609 371.529L108.872 377.902Z" fill="#02133B"/>
<path d="M73.8047 389.757L82.9559 386.88L76.0119 380.234L73.8047 389.757Z" fill="#3A81E1"/>
<path d="M71.5977 397.643C71.4985 397.643 71.3993 397.618 71.3001 397.569C71.2257 397.519 71.1513 397.445 71.1017 397.346C71.0769 397.222 71.0769 397.073 71.1265 396.949C71.1761 396.825 71.2753 396.726 71.3993 396.651L88.7345 391.443C88.7841 391.418 88.8585 391.394 88.9081 391.394C88.9825 391.394 89.0321 391.418 89.0817 391.443C89.1313 391.468 89.1809 391.518 89.2305 391.567C89.2553 391.617 89.2801 391.691 89.3049 391.741C89.3297 391.865 89.3297 391.989 89.2801 392.088C89.2305 392.187 89.1313 392.286 89.0321 392.311L71.6969 397.594H71.5977V397.643Z" fill="#02133B"/>
<path d="M118.866 390.228H118.767L102.87 386.186C102.771 386.136 102.672 386.062 102.622 385.962C102.573 385.863 102.548 385.739 102.597 385.615C102.597 385.318 102.895 385.218 103.168 385.218L118.965 389.261C119.04 389.286 119.089 389.31 119.139 389.335C119.189 389.36 119.238 389.41 119.288 389.459C119.313 389.509 119.337 389.583 119.362 389.633C119.362 389.682 119.362 389.757 119.362 389.831C119.313 389.93 119.263 390.005 119.164 390.079C119.089 390.154 118.99 390.203 118.866 390.228Z" fill="#02133B"/>
</svg>
