<svg width="22" height="27" viewBox="0 0 22 27" fill="none" xmlns="http://www.w3.org/2000/svg">
<path d="M4.36495 26.3423C4.31021 26.3423 4.25547 26.3423 4.20073 26.2908C4.14599 26.265 4.10949 26.1877 4.07299 26.1362C4.01825 26.0075 4 25.8787 4 25.7242L9.38299 0.334751C9.38299 0.257501 9.40124 0.18025 9.43773 0.12875C9.47423 0.07725 9.52898 0.0514992 9.58372 0.0514992C9.63847 -7.86595e-07 9.71145 0 9.7662 0C9.83919 0.02575 9.89392 0.07725 9.93042 0.12875L21.554 21.424C21.627 21.5785 21.6453 21.7588 21.627 21.9133C21.554 22.1193 21.481 22.2222 21.3351 22.2222L4.40145 26.3165H4.36495V26.3423ZM9.82094 1.545L4.85763 25.235L20.6599 21.424L9.82094 1.545Z" fill="#011826"/>
<path d="M0 24.6942L5.32825 0L16.9519 21.1922L0 24.6942Z" fill="#F7AE38"/>
</svg>
