<svg width="351" height="429" viewBox="0 0 351 429" fill="none" xmlns="http://www.w3.org/2000/svg">
<path d="M161.463 91.174C162.376 91.1525 163.236 90.7025 163.885 89.9097C164.517 89.1168 164.885 88.0454 164.885 86.9312V66.96C164.885 66.8528 164.85 66.7457 164.78 66.66C164.71 66.5743 164.622 66.5314 164.534 66.5314C164.447 66.5314 164.359 66.5743 164.289 66.66C164.218 66.7457 164.183 66.8528 164.183 66.96V86.9312C164.253 87.424 164.218 87.9169 164.113 88.3883C164.008 88.8597 163.815 89.3097 163.551 89.674C163.288 90.0383 162.972 90.3597 162.604 90.5525C162.235 90.7668 161.832 90.874 161.428 90.874C161.024 90.874 160.621 90.7668 160.252 90.5525C159.884 90.3383 159.55 90.0383 159.304 89.674C159.041 89.3097 158.848 88.8597 158.743 88.3883C158.637 87.9169 158.602 87.424 158.673 86.9312V69.8742C158.673 69.5314 158.725 69.21 158.831 68.91C158.936 68.61 159.094 68.3314 159.287 68.0957C159.48 67.86 159.726 67.6885 159.971 67.56C160.235 67.4314 160.498 67.3885 160.779 67.3885H161.182C161.621 67.3885 162.042 67.6028 162.358 67.9671C162.674 68.3314 162.867 68.8457 162.885 69.3814V81.0384C162.885 81.1455 162.92 81.2527 162.99 81.3384C163.06 81.4241 163.13 81.4669 163.236 81.4669C163.323 81.4455 163.394 81.4027 163.464 81.3169C163.516 81.2527 163.569 81.1455 163.587 81.0384V69.3814C163.569 68.6314 163.306 67.9028 162.867 67.3671C162.428 66.8314 161.832 66.5528 161.2 66.5528H160.796C160.428 66.5314 160.077 66.6171 159.726 66.7886C159.392 66.96 159.076 67.1957 158.813 67.4957C158.55 67.7957 158.339 68.1814 158.199 68.5885C158.058 68.9957 157.988 69.4457 157.988 69.8742V86.9312C157.988 87.4883 158.076 88.0454 158.251 88.5597C158.427 89.074 158.69 89.5454 159.006 89.9311C159.322 90.3168 159.708 90.6383 160.129 90.8525C160.55 91.0668 161.007 91.174 161.463 91.174Z" fill="#02133B"/>
<path d="M240.365 175.283V196.326H252.825L254.931 183.855L257.037 196.326H266.584L262.969 146.42L246.823 146.677L240.365 175.283Z" fill="#F14146"/>
<path d="M218.568 183.855H241.189V201.555H218.568V183.855Z" fill="white"/>
<path d="M218.568 201.983H241.19C241.277 201.983 241.365 201.94 241.435 201.855C241.505 201.769 241.541 201.662 241.541 201.555V183.855C241.541 183.748 241.505 183.641 241.435 183.555C241.365 183.469 241.277 183.426 241.19 183.426H218.568C218.48 183.426 218.392 183.469 218.322 183.555C218.252 183.641 218.217 183.748 218.217 183.855V201.576C218.217 201.683 218.252 201.79 218.322 201.876C218.392 201.962 218.48 201.983 218.568 201.983ZM240.856 201.169H218.919V184.283H240.856V201.169Z" fill="#02133B"/>
<path d="M230.555 111.234C225.061 111.234 220.604 105.792 220.604 99.0845C220.604 92.3774 225.061 86.9346 230.555 86.9346C236.048 86.9346 240.505 92.3774 240.505 99.0845C240.505 105.792 236.048 111.234 230.555 111.234Z" fill="#F14146"/>
<path d="M230.151 86.9346C226.5 86.9346 223.534 83.3132 223.534 78.8561C223.534 74.399 226.5 70.7777 230.151 70.7777C233.801 70.7777 236.767 74.399 236.767 78.8561C236.767 83.3346 233.801 86.9346 230.151 86.9346Z" fill="#F14146"/>
<path d="M257.072 162.405C253.457 162.405 250.526 158.827 250.526 154.412C250.526 149.998 253.457 146.42 257.072 146.42C260.688 146.42 263.601 149.998 263.601 154.412C263.601 158.827 260.67 162.405 257.072 162.405Z" fill="white"/>
<path d="M255.633 154.498H255.774L261.232 151.262C261.284 151.262 261.337 151.219 261.372 151.177C261.407 151.134 261.442 151.069 261.46 151.027C261.478 150.962 261.478 150.898 261.46 150.834C261.442 150.769 261.407 150.727 261.372 150.684C261.337 150.598 261.267 150.534 261.197 150.512C261.127 150.491 261.039 150.491 260.969 150.512L255.458 153.834C255.388 153.877 255.335 153.962 255.317 154.048C255.3 154.134 255.3 154.241 255.317 154.327C255.353 154.391 255.405 154.434 255.475 154.477C255.511 154.498 255.563 154.498 255.633 154.498Z" fill="#02133B"/>
<path d="M225.307 191.355H236.223C241.19 191.355 245.963 188.955 249.473 184.648C252.983 180.362 254.966 174.534 254.966 168.469V137.763C254.966 131.698 253.001 125.87 249.473 121.584C245.963 117.299 241.19 114.877 236.223 114.877H225.324C220.358 114.877 215.584 117.277 212.074 121.584C208.564 125.87 206.581 131.698 206.581 137.763V168.469C206.581 181.112 212.162 191.355 225.307 191.355Z" fill="white"/>
<path d="M225.324 191.762H236.223C241.277 191.762 246.139 189.298 249.719 184.948C253.299 180.576 255.3 174.662 255.3 168.469V137.763C255.282 131.591 253.264 125.677 249.684 121.306C246.104 116.934 241.26 114.491 236.205 114.449H225.307C220.252 114.449 215.391 116.913 211.811 121.263C208.231 125.634 206.23 131.548 206.23 137.741V168.448C206.23 183.019 213.32 191.762 225.324 191.762ZM236.223 115.306C241.102 115.306 245.788 117.663 249.227 121.884C252.685 126.106 254.615 131.805 254.615 137.763V168.469C254.615 174.426 252.685 180.148 249.227 184.348C245.77 188.569 241.102 190.926 236.223 190.926H225.324C213.812 190.926 206.932 182.526 206.932 168.469V137.763C206.932 131.805 208.863 126.084 212.32 121.884C215.777 117.663 220.446 115.306 225.324 115.306H236.223Z" fill="#02133B"/>
<path d="M251.544 137.527C251.632 137.527 251.72 137.484 251.79 137.398C251.86 137.313 251.895 137.205 251.895 137.098C251.895 136.991 251.86 136.884 251.79 136.798C251.72 136.713 251.632 136.67 251.544 136.67C238.803 136.498 232.748 122.356 232.678 122.206C232.643 122.12 232.572 122.056 232.502 122.034C232.432 122.013 232.344 122.013 232.274 122.034C232.221 122.056 232.186 122.077 232.151 122.12C232.116 122.163 232.081 122.206 232.064 122.27C232.046 122.334 232.028 122.377 232.028 122.441C232.028 122.506 232.046 122.57 232.064 122.613C232.134 122.806 238.329 137.355 251.544 137.527Z" fill="#F14146"/>
<path d="M225.307 114.899C225.307 114.899 233.081 135.941 252.895 135.363L254.598 146.762L262.987 146.42C262.987 146.42 263.39 109.563 233.766 111.641C233.766 111.641 205.089 105.491 202.018 145.091C198.947 184.69 197.314 195.34 197.314 195.34H205.423L208.283 179.783L209.652 195.34H217.269L225.307 114.899Z" fill="#F14146"/>
<path d="M244.805 155.827C243.26 155.827 242.014 154.305 242.014 152.419C242.014 150.534 243.26 149.012 244.805 149.012C246.349 149.012 247.595 150.534 247.595 152.419C247.595 154.305 246.349 155.827 244.805 155.827Z" fill="#02133B"/>
<path d="M241.19 197.012C268.656 198.34 303.668 208.24 320.761 246.018C337.855 283.775 365.181 420.059 314.215 410.159C263.25 400.259 244.103 301.432 244.103 301.432L136.802 279.146L137.89 223.411L203.106 199.905L241.19 197.012Z" fill="white"/>
<path d="M319.27 411.038C326.764 411.038 332.625 407.373 336.714 400.216C347.473 381.574 343.945 343.474 340.874 322.517C336.785 293.975 328.606 262.454 321.113 245.825C303.738 207.554 268.112 197.912 241.26 196.583C241.049 196.497 240.927 196.755 240.856 196.926C240.856 197.055 240.891 197.162 240.944 197.247C241.014 197.333 241.102 197.397 241.19 197.419C267.901 198.747 303.334 208.326 320.498 246.254C333.713 275.375 354.3 368.202 336.17 399.745C331.327 408.231 323.903 411.552 314.303 409.73C299.789 406.902 278.729 394.581 260.407 351.917C253.58 335.824 248.227 318.875 244.472 301.346C244.472 301.26 244.437 301.175 244.384 301.11C244.331 301.046 244.261 301.003 244.191 301.003L137.224 278.782L138.242 223.711L203.247 200.333C203.387 200.247 203.528 199.99 203.457 199.84C203.422 199.733 203.37 199.647 203.299 199.583C203.229 199.519 203.141 199.497 203.054 199.497L137.785 222.961C137.715 223.004 137.662 223.047 137.627 223.133C137.592 223.197 137.575 223.304 137.575 223.39L136.487 279.125C136.487 279.232 136.522 279.339 136.592 279.425C136.662 279.511 136.75 279.554 136.838 279.554L243.875 301.775C247.666 319.26 253.019 336.189 259.81 352.281C269.954 376.002 287.68 405.445 314.18 410.609C315.848 410.866 317.567 411.038 319.27 411.038Z" fill="#02133B"/>
<path d="M203.106 199.905C203.106 199.905 209.108 198.49 218.427 197.569L203.106 199.905Z" fill="white"/>
<path d="M203.106 200.333H203.176C203.247 200.333 209.249 198.919 218.515 197.997C218.726 197.912 218.849 197.74 218.796 197.505C218.726 197.247 218.656 197.097 218.462 197.162C209.196 198.083 203.124 199.497 203.071 199.497C203.001 199.54 202.931 199.605 202.878 199.69C202.825 199.776 202.808 199.883 202.79 199.99C202.825 200.076 202.861 200.14 202.931 200.205C202.966 200.269 203.036 200.312 203.106 200.333Z" fill="#02133B"/>
<path d="M230.432 204.233C230.432 204.233 196.367 184.926 194.121 190.926C191.874 196.926 212.373 214.562 212.373 214.562L230.432 204.233Z" fill="white"/>
<path d="M212.373 214.969C212.443 214.969 212.513 214.969 212.513 214.883L230.572 204.662C230.642 204.619 230.695 204.576 230.73 204.49C230.765 204.426 230.783 204.319 230.783 204.233C230.783 204.062 230.713 203.976 230.572 203.89C230.432 203.805 221.92 198.983 213.268 194.912C195.349 186.683 194.191 189.748 193.787 190.755C191.471 196.905 210.074 213.04 212.18 214.883L212.373 214.969ZM229.607 204.233L212.443 214.047C206.651 209.054 192.611 195.747 194.384 191.098C194.788 190.09 197.385 188.526 212.987 195.747C220.27 199.09 227.431 203.076 229.607 204.233Z" fill="#02133B"/>
<path d="M209.547 182.291L209.617 182.269C212.513 181.455 215.409 183.662 216.076 187.198L233.801 280.904C234.468 284.439 232.66 287.975 229.765 288.789L229.694 288.811C226.799 289.625 223.903 287.418 223.236 283.882L205.51 190.176C204.844 186.64 206.651 183.105 209.547 182.291Z" fill="#F7AE38"/>
<path d="M309.6 319.367C309.6 319.367 282.695 189.748 230.432 204.233C203.176 211.797 191.997 225.854 190.979 232.518C189.961 239.183 202.018 232.518 202.018 232.518C202.018 232.518 185.328 244.411 206.985 243.661C206.985 243.661 190.769 260.204 229.466 247.411C229.466 247.411 211.758 262.304 212.162 267.704C212.566 273.104 236.153 260.804 236.153 260.804C236.153 260.804 244.805 298.646 246.244 304.732L309.6 319.367Z" fill="white"/>
<path d="M309.6 319.796H309.67C309.88 319.796 309.951 319.539 309.951 319.303C309.951 319.046 303.071 286.518 289.926 256.24C282.222 238.433 273.85 224.783 265.058 215.804C254.089 204.576 242.366 200.505 230.379 203.826C215.11 208.069 205.844 214.069 200.667 218.376C195.49 222.704 191.26 228.361 190.646 232.518C190.523 232.968 190.523 233.44 190.628 233.89C190.734 234.34 190.962 234.726 191.26 235.026C192.752 236.526 196.648 235.347 199.368 234.276C197.385 236.033 195.139 238.69 195.612 240.854C196.086 243.018 199.561 244.261 206.107 244.09C204.809 245.504 202.562 248.59 203.51 250.754C204.458 252.918 212.776 253.261 227.694 248.418C223.341 252.254 211.478 263.054 211.811 267.725C211.811 268.004 211.881 268.261 212.004 268.497C212.127 268.732 212.285 268.925 212.496 269.054C215.83 271.539 233.134 262.818 235.925 261.318C236.872 265.647 244.577 299.246 245.876 304.903C245.893 304.968 245.911 305.01 245.946 305.053C245.981 305.096 246.016 305.139 246.069 305.16C246.121 305.182 246.156 305.203 246.209 305.203C246.262 305.203 246.314 305.182 246.349 305.16C246.42 305.118 246.49 305.053 246.525 304.968C246.56 304.882 246.578 304.775 246.543 304.668C245.103 298.689 236.521 261.082 236.451 260.654L236.311 260.397H235.977C230.467 263.311 215.532 270.297 212.811 268.304C212.706 268.239 212.618 268.154 212.566 268.025C212.513 267.897 212.478 267.768 212.478 267.639C212.145 263.397 224.745 251.825 229.642 247.754C229.782 247.668 229.782 247.411 229.712 247.261C229.642 247.09 229.501 246.94 229.379 247.004C209.003 253.732 204.791 251.997 204.036 250.325C203.282 248.654 206.072 245.097 207.178 244.004C207.231 243.94 207.266 243.854 207.301 243.768C207.318 243.683 207.336 243.597 207.318 243.49C207.283 243.404 207.248 243.34 207.178 243.297C207.125 243.254 207.037 243.233 206.967 243.233C198.649 243.49 196.613 241.99 196.262 240.576C195.928 239.161 200.351 234.254 202.194 232.926C202.281 232.861 202.334 232.776 202.369 232.668C202.404 232.561 202.387 232.433 202.334 232.347C202.281 232.24 202.211 232.176 202.123 232.154C202.036 232.111 201.93 232.133 201.86 232.197C199.614 233.354 193.348 236.033 191.646 234.361C191.242 234.018 191.172 233.44 191.313 232.604C192.331 225.704 203.914 212.054 230.484 204.662C242.278 201.426 253.791 205.412 264.619 216.469C273.271 225.361 281.59 238.84 289.277 256.561C302.352 286.754 309.178 319.196 309.231 319.539C309.266 319.625 309.301 319.689 309.372 319.732C309.459 319.775 309.529 319.796 309.6 319.796Z" fill="#02133B"/>
<path d="M203.106 241.09H203.317C204.545 240.018 205.159 238.754 205.089 237.426C205.019 236.097 203.527 233.526 202.702 232.69L227.36 218.547C227.413 218.526 227.448 218.504 227.483 218.462C227.518 218.419 227.553 218.376 227.571 218.312C227.588 218.247 227.606 218.204 227.606 218.14C227.606 218.076 227.588 218.033 227.571 217.969C227.518 217.883 227.43 217.84 227.36 217.797C227.273 217.776 227.185 217.776 227.097 217.797L201.895 232.197C201.755 232.283 201.685 232.368 201.685 232.54C201.685 232.69 201.737 232.84 201.825 232.947C201.895 232.947 204.422 235.026 204.422 237.361C204.422 239.697 203.949 239.44 202.931 240.361C201.913 241.283 202.79 240.704 202.86 240.94L203.106 241.09Z" fill="#02133B"/>
<path d="M206.985 244.09H207.125L233.081 233.033C233.134 233.033 233.169 233.011 233.204 232.968C233.239 232.947 233.274 232.904 233.292 232.84C233.31 232.797 233.327 232.733 233.327 232.668C233.327 232.604 233.31 232.561 233.292 232.518C233.292 232.476 233.274 232.411 233.239 232.368C233.222 232.326 233.187 232.283 233.134 232.261C233.099 232.24 233.046 232.218 233.011 232.218C232.959 232.218 232.923 232.24 232.888 232.261L206.862 243.318C206.721 243.404 206.581 243.661 206.651 243.811C206.686 243.875 206.739 243.94 206.792 243.983C206.862 244.047 206.914 244.068 206.985 244.09Z" fill="#02133B"/>
<path d="M229.467 247.84H229.607L236.153 245.011C236.206 244.968 236.258 244.883 236.276 244.797C236.293 244.711 236.293 244.625 236.276 244.54C236.258 244.454 236.206 244.39 236.153 244.325C236.1 244.283 236.03 244.24 235.96 244.24L229.344 246.983C229.256 247.025 229.186 247.133 229.151 247.218C229.116 247.325 229.115 247.454 229.133 247.561C229.168 247.647 229.203 247.711 229.273 247.754C229.326 247.818 229.396 247.84 229.467 247.84Z" fill="#02133B"/>
<path d="M205.142 189.34C185.311 189.34 169.235 169.712 169.235 145.498C169.235 121.284 185.311 101.656 205.142 101.656C224.974 101.656 241.049 121.284 241.049 145.498C241.049 169.712 224.974 189.34 205.142 189.34Z" fill="#F7AE38"/>
<path d="M205.142 181.776C188.926 181.776 175.781 165.726 175.781 145.927C175.781 126.127 188.926 110.077 205.142 110.077C221.358 110.077 234.503 126.127 234.503 145.927C234.503 165.726 221.358 181.776 205.142 181.776Z" fill="white"/>
<path d="M205.142 182.269C211.039 182.291 216.795 180.169 221.709 176.183C226.623 172.198 230.449 166.519 232.713 159.877C234.977 153.234 235.574 145.927 234.433 138.855C233.292 131.784 230.467 125.313 226.307 120.213C222.148 115.113 216.848 111.641 211.056 110.249C205.282 108.834 199.28 109.563 193.84 112.306C188.399 115.049 183.748 119.72 180.467 125.698C177.185 131.677 175.447 138.705 175.447 145.905C175.447 155.527 178.571 164.762 184.152 171.576C189.733 178.391 197.262 182.248 205.142 182.269ZM205.142 110.484C210.898 110.463 216.532 112.541 221.323 116.441C226.114 120.341 229.852 125.891 232.064 132.384C234.275 138.877 234.854 146.034 233.731 152.934C232.608 159.834 229.835 166.176 225.763 171.148C221.692 176.119 216.497 179.505 210.846 180.876C205.195 182.248 199.333 181.541 194.015 178.841C188.698 176.141 184.152 171.576 180.958 165.726C177.764 159.877 176.062 152.998 176.079 145.97C176.097 136.584 179.168 127.584 184.608 120.941C190.084 114.256 197.455 110.506 205.142 110.484Z" fill="#02133B"/>
<path d="M205.142 153.319C219.112 153.319 230.624 145.905 230.765 145.841C230.8 145.798 230.835 145.755 230.87 145.691C230.888 145.627 230.905 145.562 230.905 145.498C230.905 145.348 230.853 145.198 230.765 145.091C230.624 145.091 219.112 137.677 205.142 137.677C191.172 137.677 179.729 145.091 179.589 145.091C179.501 145.198 179.449 145.348 179.449 145.498C179.449 145.562 179.466 145.627 179.484 145.691C179.501 145.755 179.536 145.798 179.589 145.841C179.729 145.927 191.242 153.319 205.142 153.319ZM229.817 145.498C227.29 146.998 217.146 152.484 205.159 152.484C193.173 152.484 183.082 146.998 180.554 145.498C183.082 143.998 193.225 138.513 205.142 138.513C217.058 138.513 227.29 144.02 229.817 145.498Z" fill="#02133B"/>
<path d="M204.334 152.912C200.982 152.912 198.262 149.591 198.262 145.498C198.262 141.405 200.982 138.084 204.334 138.084C207.686 138.084 210.407 141.405 210.407 145.498C210.389 149.591 207.686 152.912 204.334 152.912Z" fill="#02133B"/>
<path d="M182.66 135.277C182.73 135.277 182.801 135.255 182.871 135.213C182.923 135.17 182.976 135.105 183.011 135.02C185.293 127.841 189.821 122.056 195.595 118.927C201.368 115.799 207.915 115.606 213.811 118.37C213.847 118.413 213.899 118.434 213.952 118.456C214.004 118.477 214.057 118.456 214.11 118.434C214.162 118.413 214.215 118.37 214.25 118.327C214.285 118.284 214.32 118.22 214.338 118.156C214.355 118.091 214.355 118.027 214.355 117.963C214.355 117.899 214.32 117.834 214.303 117.791C214.268 117.749 214.233 117.684 214.18 117.663C214.127 117.641 214.075 117.62 214.022 117.62C211.021 116.184 207.827 115.477 204.615 115.563C201.404 115.649 198.227 116.527 195.296 118.113C189.364 121.327 184.696 127.284 182.344 134.677C182.309 134.784 182.327 134.913 182.362 135.02C182.397 135.127 182.467 135.213 182.555 135.277H182.66Z" fill="#02133B"/>
<path d="M195.331 224.204C195.331 224.204 199.894 228.704 195.331 232.518V224.204Z" fill="white"/>
<path d="M195.331 232.947H195.542C196.911 231.704 197.648 230.376 197.648 228.876C197.648 227.376 195.612 223.969 195.542 223.883C195.472 223.819 195.384 223.797 195.296 223.797C195.208 223.819 195.121 223.861 195.068 223.969C195.033 224.011 194.998 224.054 194.98 224.119C194.963 224.183 194.963 224.226 194.963 224.29C194.963 224.354 194.998 224.419 195.015 224.461C195.051 224.504 195.086 224.547 195.138 224.569C195.138 224.569 197.051 226.561 196.981 228.811C196.911 231.061 196.367 231.233 195.138 232.218C195.068 232.283 195.015 232.39 194.998 232.497C194.98 232.604 195.015 232.711 195.068 232.797C195.138 232.947 195.208 232.947 195.331 232.947Z" fill="#02133B"/>
<path d="M207.74 251.247H207.95C209.354 250.09 210.039 248.847 209.986 247.497C209.846 245.161 207.266 243.683 207.125 243.597C207.038 243.575 206.95 243.575 206.862 243.597C206.774 243.618 206.704 243.683 206.651 243.768C206.634 243.833 206.616 243.875 206.616 243.94C206.616 244.004 206.616 244.068 206.651 244.111C206.687 244.154 206.704 244.218 206.739 244.261C206.774 244.304 206.827 244.325 206.862 244.347C206.862 244.347 209.179 245.761 209.319 247.583C209.459 249.404 208.775 249.49 207.546 250.497C207.476 250.561 207.424 250.668 207.406 250.775C207.389 250.883 207.424 250.99 207.476 251.075C207.529 251.247 207.599 251.247 207.74 251.247Z" fill="#02133B"/>
<path d="M218.498 266.204C218.568 266.182 218.638 266.139 218.708 266.097C218.761 266.032 218.814 265.968 218.849 265.882C218.849 265.475 219.323 261.982 217.971 260.89C216.602 259.797 216.339 260.482 215.111 261.382C215.075 261.425 215.04 261.447 215.023 261.511C215.005 261.575 214.988 261.618 214.97 261.661C214.97 261.725 214.97 261.768 214.97 261.832C214.988 261.875 215.005 261.94 215.023 261.982C215.075 262.068 215.146 262.132 215.233 262.154C215.321 262.175 215.409 262.175 215.497 262.132C216.111 261.64 217.059 261.125 217.603 261.554C218.147 261.961 218.287 264.789 218.147 265.711C218.129 265.775 218.112 265.818 218.112 265.882C218.112 265.947 218.129 266.011 218.164 266.054C218.199 266.097 218.234 266.139 218.287 266.161C218.34 266.182 218.392 266.204 218.445 266.182H218.498V266.204Z" fill="#02133B"/>
<path d="M319.55 293.739C333.38 293.739 334.608 289.925 334.679 289.668C334.749 289.411 334.608 289.261 334.398 289.175C334.363 289.153 334.31 289.132 334.275 289.132C334.24 289.132 334.187 289.132 334.152 289.175C334.117 289.196 334.082 289.239 334.047 289.282C334.029 289.325 334.012 289.389 333.994 289.432C333.994 289.518 331.467 295.582 302.457 291.511C302.369 291.511 302.281 291.553 302.211 291.639C302.141 291.725 302.106 291.832 302.106 291.939C302.036 292.196 302.176 292.346 302.387 292.346C308.073 293.182 313.812 293.675 319.55 293.739Z" fill="#02133B"/>
<path d="M320.902 302.16C330.239 302.16 333.854 300.253 335.346 298.839C335.837 298.432 336.188 297.811 336.293 297.082C336.363 296.911 336.223 296.675 336.012 296.675C335.802 296.675 335.679 296.761 335.609 297.018C335.539 297.275 334.24 304.089 305.23 300.018C305.124 300.018 305.037 300.06 304.967 300.125C304.896 300.21 304.844 300.296 304.826 300.425C304.826 300.532 304.861 300.639 304.931 300.725C305.002 300.81 305.089 300.853 305.177 300.853C310.389 301.625 315.637 302.075 320.902 302.16Z" fill="#02133B"/>
<path d="M230.432 204.233L218.989 202.476L219.867 207.469L230.432 204.233Z" fill="#02133B"/>
<path d="M233.485 191.355L218.568 196.347L218.427 190.198C218.427 190.176 230.765 192.255 233.485 191.355Z" fill="#02133B"/>
<path d="M251.544 197.912C251.544 197.912 250.386 203.226 245.823 204.062L251.544 197.912Z" fill="white"/>
<path d="M245.823 204.49C247.227 204.19 248.543 203.44 249.614 202.283C250.684 201.147 251.474 199.647 251.895 197.997C251.966 197.74 251.825 197.59 251.615 197.505C251.404 197.419 251.281 197.59 251.211 197.762C250.86 199.283 250.158 200.655 249.193 201.683C248.227 202.733 247.034 203.419 245.753 203.655C245.542 203.74 245.419 203.912 245.472 204.147C245.49 204.233 245.525 204.319 245.595 204.383C245.665 204.469 245.735 204.49 245.823 204.49Z" fill="#02133B"/>
<path d="M256.528 162.812C258.424 162.941 260.302 162.191 261.776 160.734C262.495 159.941 263.057 158.955 263.425 157.862C263.794 156.769 263.987 155.591 263.952 154.412C263.97 153.255 263.759 152.098 263.373 151.027C262.987 149.955 262.408 149.012 261.706 148.241C260.547 146.998 258.441 145.67 254.896 146.334C254.826 146.377 254.756 146.441 254.703 146.527C254.65 146.612 254.633 146.72 254.615 146.827C254.615 147.084 254.826 147.17 255.019 147.17C257.616 146.677 259.793 147.255 261.284 148.841C261.899 149.57 262.408 150.427 262.741 151.391C263.074 152.355 263.268 153.384 263.268 154.434C263.268 155.484 263.11 156.512 262.776 157.477C262.443 158.441 261.969 159.319 261.355 160.048C259.863 161.634 257.669 162.298 255.019 161.869C254.808 161.869 254.615 162.041 254.615 162.212C254.615 162.384 254.756 162.705 254.896 162.705L256.528 162.812Z" fill="#02133B"/>
<path d="M258.634 157.648C258.722 157.627 258.792 157.584 258.862 157.498C258.915 157.434 258.968 157.327 258.985 157.219V152.569C258.985 152.462 258.95 152.355 258.88 152.269C258.81 152.184 258.722 152.141 258.634 152.141C258.547 152.141 258.459 152.184 258.389 152.269C258.318 152.355 258.283 152.462 258.283 152.569V157.219C258.283 157.327 258.318 157.434 258.389 157.519C258.459 157.605 258.547 157.648 258.634 157.648Z" fill="#02133B"/>
<path d="M244.805 177.212C244.805 177.212 240.716 184.691 234.591 181.862L244.805 177.212Z" fill="white"/>
<path d="M237.381 182.869C242.085 182.869 245.016 177.555 245.086 177.469C245.156 177.383 245.156 176.976 244.946 176.891C244.875 176.826 244.788 176.805 244.7 176.805C244.612 176.826 244.524 176.869 244.472 176.976C244.331 177.319 240.523 184.219 234.731 181.476C234.679 181.455 234.644 181.433 234.591 181.433C234.538 181.433 234.486 181.433 234.451 181.476C234.398 181.498 234.363 181.541 234.328 181.583C234.293 181.626 234.275 181.691 234.258 181.733C234.24 181.776 234.222 181.841 234.222 181.883C234.222 181.948 234.222 181.991 234.258 182.033C234.275 182.076 234.31 182.119 234.345 182.162C234.38 182.183 234.433 182.205 234.468 182.226C235.381 182.655 236.364 182.869 237.381 182.869Z" fill="#02133B"/>
<path d="M301.088 115.306L301.421 115.134C301.439 115.07 301.457 115.027 301.457 114.963C301.457 114.899 301.457 114.834 301.421 114.791C301.404 114.727 301.369 114.684 301.334 114.641C301.299 114.599 301.246 114.577 301.211 114.556L294.665 110.313C294.524 110.141 294.331 110.227 294.191 110.484C294.173 110.591 294.173 110.699 294.191 110.806C294.208 110.913 294.261 110.999 294.331 111.063L300.948 115.306H301.088Z" fill="#02133B"/>
<path d="M121.481 329.031H146.963C160.582 329.031 171.691 318.874 171.691 306.403V283.775H121.481V329.031Z" fill="#02133B"/>
<path d="M67.2516 295.496H89.663C101.72 295.496 111.53 285.339 111.53 272.868V250.24H67.2516V295.496Z" fill="#02133B"/>
<path d="M56.827 210.726V278.182C56.827 279.425 56.8972 280.689 57.0376 281.932C57.2131 283.346 57.4588 284.718 57.7923 286.089C61.4778 300.982 79.4665 297.896 79.6596 282.339V274.689C79.6596 270.211 81.1162 265.925 83.7136 262.754C86.311 259.582 89.821 257.804 93.489 257.804C97.1569 257.804 100.667 259.582 103.264 262.754C105.862 265.925 107.318 270.211 107.318 274.689V282.339L107.652 312.125C107.652 316.603 109.108 320.889 111.706 324.06C114.303 327.232 117.813 329.01 121.481 329.01C125.325 329.01 129.028 327.146 131.748 323.824C134.468 320.503 135.995 316.003 135.995 311.289V302.889C135.942 299.053 137.048 295.325 139.101 292.411C141.155 289.496 143.998 287.611 147.104 287.075H150.72C154.159 287.075 157.441 288.746 159.881 291.703C162.303 294.661 163.671 298.689 163.671 302.889C163.671 307.11 164.356 311.289 165.672 315.167C166.988 319.067 168.936 322.603 171.376 325.582C173.815 328.56 176.711 330.939 179.905 332.546C183.099 334.153 186.522 334.989 189.961 334.989H261.214L242.471 297.232C240.962 294.125 238.821 291.575 236.241 289.796C233.678 288.018 230.765 287.075 227.817 287.096H195.683V276.039C195.665 271.197 194.086 266.568 191.26 263.161C188.452 259.754 184.644 257.825 180.677 257.825H143.963V210.726H56.827Z" fill="#A8BBBF"/>
<path d="M147.227 288.018L224.219 287.761C224.307 287.761 224.394 287.718 224.465 287.632C224.535 287.546 224.57 287.439 224.57 287.332C224.57 287.225 224.535 287.118 224.465 287.032C224.394 286.946 224.307 286.904 224.219 286.904L147.227 287.161C147.139 287.161 147.051 287.203 146.981 287.289C146.911 287.375 146.876 287.461 146.876 287.589C146.894 287.696 146.929 287.782 146.999 287.868C147.069 287.953 147.157 287.996 147.227 288.018Z" fill="#02133B"/>
<path d="M93.4714 258.64L154.458 258.232C154.545 258.232 154.633 258.19 154.703 258.104C154.773 258.018 154.809 257.911 154.809 257.804C154.809 257.697 154.773 257.59 154.703 257.504C154.633 257.418 154.563 257.375 154.458 257.375L93.4714 257.782C93.3836 257.782 93.2958 257.825 93.2256 257.911C93.1554 257.997 93.1204 258.104 93.1204 258.211C93.1204 258.318 93.1554 258.425 93.2256 258.511C93.2958 258.597 93.3836 258.64 93.4714 258.64Z" fill="#02133B"/>
<path d="M57.5113 225.704H143.155C143.243 225.704 143.331 225.661 143.401 225.576C143.471 225.49 143.506 225.383 143.506 225.276C143.506 225.169 143.471 225.061 143.401 224.976C143.331 224.89 143.243 224.847 143.155 224.847H57.5113C57.4236 224.847 57.3359 224.89 57.2657 224.976C57.1955 225.061 57.1603 225.147 57.1603 225.276C57.1603 225.383 57.1955 225.49 57.2657 225.576C57.3359 225.661 57.406 225.704 57.5113 225.704Z" fill="#02133B"/>
<path d="M72.6923 238.026H138.715C138.803 238.026 138.891 237.983 138.961 237.897C139.031 237.811 139.066 237.704 139.066 237.597C139.066 237.49 139.031 237.383 138.961 237.297C138.891 237.211 138.803 237.168 138.715 237.168H72.6923C72.6045 237.168 72.5168 237.211 72.4466 237.297C72.3764 237.383 72.3413 237.49 72.3413 237.597C72.3413 237.704 72.3764 237.811 72.4466 237.897C72.5168 237.961 72.6045 238.026 72.6923 238.026Z" fill="#02133B"/>
<path d="M102.808 247.668H118.884C118.972 247.668 119.059 247.625 119.13 247.54C119.2 247.454 119.235 247.347 119.235 247.24C119.235 247.133 119.2 247.025 119.13 246.94C119.059 246.854 118.972 246.811 118.884 246.811H102.808C102.72 246.811 102.633 246.854 102.562 246.94C102.492 247.025 102.457 247.111 102.457 247.24C102.457 247.347 102.492 247.454 102.562 247.54C102.633 247.625 102.72 247.668 102.808 247.668Z" fill="#02133B"/>
<path d="M116.848 271.539H184.837C184.924 271.539 185.012 271.497 185.082 271.411C185.152 271.325 185.188 271.218 185.188 271.111C185.188 271.004 185.152 270.897 185.082 270.811C185.012 270.725 184.924 270.682 184.837 270.682H116.848C116.76 270.704 116.69 270.747 116.62 270.832C116.567 270.897 116.514 271.004 116.497 271.111C116.497 271.218 116.532 271.325 116.602 271.411C116.672 271.497 116.76 271.539 116.848 271.539Z" fill="#02133B"/>
<path d="M205.142 307.818H240.716C240.804 307.818 240.891 307.775 240.962 307.689C241.032 307.603 241.067 307.496 241.067 307.389C241.067 307.282 241.032 307.175 240.962 307.089C240.891 307.003 240.804 306.96 240.716 306.96H205.142C205.054 306.96 204.967 307.003 204.896 307.089C204.826 307.175 204.791 307.282 204.791 307.389C204.791 307.496 204.826 307.603 204.896 307.689C204.967 307.775 205.054 307.818 205.142 307.818Z" fill="#02133B"/>
<path d="M206.581 318.296H243.032C243.12 318.296 243.208 318.253 243.278 318.167C243.348 318.082 243.383 317.974 243.383 317.867C243.383 317.76 243.348 317.653 243.278 317.567C243.208 317.482 243.12 317.439 243.032 317.439H206.581C206.493 317.439 206.405 317.482 206.335 317.567C206.265 317.653 206.23 317.76 206.23 317.867C206.23 317.974 206.265 318.082 206.335 318.167C206.405 318.253 206.493 318.296 206.581 318.296Z" fill="#02133B"/>
<path d="M188.592 306.81H198.473V318.832H188.592V306.81Z" fill="white"/>
<path d="M188.662 319.282H198.473C198.56 319.282 198.648 319.239 198.718 319.153C198.789 319.067 198.824 318.96 198.824 318.853V306.789C198.824 306.682 198.789 306.575 198.718 306.489C198.648 306.403 198.56 306.36 198.473 306.36H188.662C188.575 306.36 188.487 306.403 188.417 306.489C188.346 306.575 188.311 306.682 188.311 306.789V318.853C188.311 318.96 188.346 319.067 188.417 319.153C188.487 319.239 188.575 319.282 188.662 319.282ZM198.122 318.467H188.996V307.239H198.122V318.467Z" fill="#02133B"/>
<path d="M193.559 266.225C193.647 266.225 193.735 266.182 193.805 266.097C193.875 266.011 193.91 265.904 193.91 265.797V257.804C193.91 257.697 193.875 257.59 193.805 257.504C193.735 257.418 193.647 257.375 193.559 257.375C193.471 257.375 193.384 257.418 193.313 257.504C193.243 257.59 193.208 257.697 193.208 257.804V265.797C193.208 265.904 193.243 266.011 193.313 266.097C193.384 266.182 193.471 266.225 193.559 266.225Z" fill="#02133B"/>
<path d="M165.497 195.748C165.707 195.748 165.83 195.662 165.83 195.405L168.831 183.019C168.849 182.891 168.814 182.783 168.779 182.676C168.726 182.569 168.656 182.483 168.568 182.441C168.48 182.441 168.393 182.462 168.322 182.526C168.252 182.591 168.199 182.676 168.164 182.783L165.234 195.255C165.216 195.298 165.198 195.362 165.198 195.405C165.198 195.469 165.216 195.512 165.234 195.555C165.251 195.598 165.286 195.64 165.321 195.683C165.356 195.726 165.409 195.726 165.444 195.748H165.497Z" fill="#02133B"/>
<path d="M7.42357 167.312L7.63416 167.141L12.3376 161.077C12.478 160.905 12.478 160.584 12.3376 160.498C12.2674 160.412 12.1972 160.369 12.0919 160.369C11.9866 160.369 11.9164 160.412 11.8462 160.498L7.14275 166.562C7.07255 166.648 7.03746 166.755 7.03746 166.862C7.03746 166.969 7.07255 167.076 7.14275 167.162L7.42357 167.312Z" fill="#F14146"/>
<path d="M246.226 385.517C246.314 385.517 246.384 385.495 246.455 385.431C246.525 385.366 246.56 385.281 246.577 385.195L248.894 374.138C248.912 374.074 248.912 374.031 248.894 373.967C248.894 373.902 248.877 373.86 248.841 373.817C248.824 373.774 248.789 373.731 248.736 373.688C248.701 373.667 248.648 373.645 248.613 373.624C248.403 373.538 248.28 373.71 248.21 373.945L245.893 385.002C245.875 385.067 245.875 385.109 245.893 385.174C245.893 385.238 245.911 385.281 245.946 385.324C245.963 385.366 245.998 385.409 246.051 385.452C246.086 385.474 246.139 385.495 246.174 385.517H246.226Z" fill="#02133B"/>
<path d="M172.517 346.41C172.534 346.41 172.552 346.41 172.569 346.388C172.587 346.367 172.587 346.346 172.587 346.324L182.608 342.253C182.819 342.167 182.941 341.931 182.889 341.76C182.871 341.696 182.854 341.653 182.819 341.61C182.783 341.567 182.748 341.524 182.696 341.503C182.643 341.481 182.608 341.46 182.555 341.46C182.503 341.46 182.45 341.481 182.415 341.503L172.394 345.574C172.341 345.574 172.306 345.596 172.271 345.638C172.236 345.681 172.201 345.703 172.183 345.767C172.166 345.81 172.148 345.874 172.148 345.917C172.148 345.981 172.166 346.024 172.183 346.067C172.218 346.153 172.253 346.217 172.324 346.281C172.376 346.346 172.429 346.388 172.517 346.41Z" fill="#F14146"/>
<path d="M118.006 222.126C118.059 222.126 118.111 222.104 118.164 222.083C118.217 222.061 118.252 222.019 118.287 221.954C118.357 221.869 118.392 221.783 118.392 221.654C118.392 221.526 118.357 221.44 118.287 221.354L111.618 213.447C111.548 213.383 111.477 213.362 111.39 213.362C111.302 213.362 111.232 213.404 111.179 213.49C111.126 213.554 111.091 213.662 111.074 213.747C111.074 213.854 111.091 213.94 111.144 214.026L117.83 221.933L118.006 222.126Z" fill="#02133B"/>
<path d="M111.337 222.126L111.618 221.954L118.287 214.047C118.34 213.962 118.357 213.876 118.357 213.769C118.357 213.662 118.322 213.576 118.252 213.512C118.199 213.447 118.112 213.404 118.042 213.383C117.954 213.383 117.884 213.404 117.813 213.469L111.127 221.376C111.074 221.461 111.039 221.547 111.039 221.676C111.039 221.804 111.074 221.89 111.127 221.976L111.337 222.126Z" fill="#02133B"/>
<path d="M123.868 213.147H130.888V221.719H123.868V213.147Z" fill="white"/>
<path d="M139.136 221.633C137.223 221.633 135.662 219.726 135.662 217.39C135.662 215.054 137.223 213.147 139.136 213.147C141.049 213.147 142.611 215.054 142.611 217.39C142.611 219.726 141.049 221.633 139.136 221.633Z" fill="#F14146"/>
</svg>
