<svg width="69" height="47" viewBox="0 0 69 47" fill="none" xmlns="http://www.w3.org/2000/svg">
<path d="M67.4126 16.6188L54.947 22.0788V42.5465C54.947 43.2007 54.5386 43.7805 53.9312 43.9854C48.0341 45.9952 41.837 47 35.6413 47C29.4442 47 23.2485 45.9952 17.3514 43.9854C16.744 43.7805 16.3356 43.2007 16.3356 42.5465V27.1502C16.3356 26.3108 16.9994 25.6322 17.8207 25.6322C18.6419 25.6322 19.3057 26.3108 19.3057 27.1502V41.4399C29.8808 44.8082 41.4003 44.8082 51.9769 41.4399V23.3812L36.2264 30.2801C36.0393 30.3621 35.8403 30.4031 35.6413 30.4031C35.4423 30.4031 35.2433 30.3621 35.0562 30.2801L5.94022 17.525V26.1286C7.66437 26.757 8.91033 28.4267 8.91033 30.4031C8.91033 32.9137 6.91145 34.9568 4.45517 34.9568C1.99889 34.9568 0 32.9137 0 30.4031C0 28.4267 1.24596 26.757 2.97011 26.1286V15.2239C2.97011 14.6167 3.32355 14.0672 3.87005 13.8289L35.0562 0.16759C35.4304 0.00517196 35.8522 0.00517196 36.2264 0.16759L48.8583 5.70193C49.6112 6.03284 49.9617 6.92538 49.6379 7.69496C49.3157 8.46759 48.4425 8.82733 47.6881 8.49187L35.6413 3.21406L8.22572 15.2239L35.6413 27.2337L63.0569 15.2239L52.8768 10.7642C52.1239 10.4333 51.7734 9.54076 52.0972 8.77117C52.418 8.00007 53.2927 7.6388 54.0471 7.97426L67.4126 13.8289C67.9591 14.0672 68.3125 14.6167 68.3125 15.2239C68.3125 15.831 67.9591 16.3805 67.4126 16.6188ZM4.45517 31.921C5.27491 31.921 5.94022 31.241 5.94022 30.4031C5.94022 29.5652 5.27491 28.8852 4.45517 28.8852C3.63541 28.8852 2.97011 29.5652 2.97011 30.4031C2.97011 31.241 3.63541 31.921 4.45517 31.921Z" fill="white"/>
</svg>
