<svg width="156" height="132" viewBox="0 0 156 132" fill="none" xmlns="http://www.w3.org/2000/svg">
<path fill-rule="evenodd" clip-rule="evenodd" d="M0.45462 20.8911C23.7382 32.2751 35.3799 45.6511 35.3799 61.0196C25.4557 62.158 17.2493 66.1897 10.7604 73.115C4.27155 80.0403 1.02718 88.0564 1.02718 97.1636C1.02718 106.84 4.17613 114.998 10.4742 121.639C16.7722 128.28 24.6923 131.6 34.2348 131.6C44.9223 131.6 54.1784 127.284 62.0032 118.651C69.828 110.018 73.7403 99.5353 73.7403 87.2026C73.7403 50.2046 52.9381 21.2707 11.333 0.400024L0.45462 20.8911ZM82.6235 20.8911C106.098 32.2751 117.835 45.6511 117.835 61.0196C107.72 62.158 99.4181 66.1897 92.9293 73.115C86.4404 80.0403 83.196 88.0564 83.196 97.1636C83.196 106.84 86.3927 114.998 92.7861 121.639C99.1796 128.28 107.147 131.6 116.69 131.6C127.377 131.6 136.586 127.284 144.315 118.651C152.045 110.018 155.909 99.5353 155.909 87.2026C155.909 50.2046 135.202 21.2707 93.7881 0.400024L82.6235 20.8911Z" fill="white"/>
</svg>
