<svg width="166" height="236" viewBox="0 0 166 236" fill="none" xmlns="http://www.w3.org/2000/svg">
<path fill-rule="evenodd" clip-rule="evenodd" d="M23.6117 154.977C23.6117 154.977 -2.32183 195.38 1.3575 216.042C5.03682 236.704 34.4714 237.412 62.251 231.669C90.0178 225.925 149.982 198.799 149.982 198.799C154.82 196.872 167.462 185.683 157.901 168.44C148.327 151.198 93.8881 148.86 93.8881 148.86L23.6117 154.977Z" fill="#011826" stroke="#011826" stroke-width="0.755906" stroke-linecap="round" stroke-linejoin="round"/>
<path d="M36.9414 197.518L101.132 190.432" stroke="white" stroke-width="1.88976" stroke-linecap="round" stroke-linejoin="round"/>
<path fill-rule="evenodd" clip-rule="evenodd" d="M114.207 190.755C114.207 190.755 116.511 193.764 116.779 199.42C117.059 205.089 116.129 213.245 116.129 213.245C116.129 213.245 133.571 215.457 147.27 220.306C160.982 225.154 169.066 217.882 162.904 208.098C156.742 198.301 142.75 191.688 136.143 189.773C129.535 187.859 126.302 186.901 126.302 186.901L114.207 190.755Z" fill="white" stroke="#011826" stroke-width="1.88976" stroke-linecap="round" stroke-linejoin="round"/>
<path fill-rule="evenodd" clip-rule="evenodd" d="M38.125 180.996L75.7076 201.186L140.624 185.111L157.786 151.148L162.675 140.929L159.479 138.169L154.221 139.263C141.413 141.824 98.1782 150.936 98.1782 150.936L95.4919 151.608C94.4225 154.206 93.1239 156.518 91.7871 158.793L87.624 167.844L86.7074 168.08L38.125 180.996Z" fill="#DE7773"/>
<path d="M76.9551 198.575L98.4836 153.995L160.103 141.401" stroke="white" stroke-width="1.88976" stroke-linecap="round" stroke-linejoin="round"/>
<path fill-rule="evenodd" clip-rule="evenodd" d="M52.9951 174.52C54.8921 176.297 59.3862 180.574 61.4868 183.023C64.1859 186.181 65.0516 187.747 66.8722 187.846C68.68 187.946 69.0237 187.511 69.3802 187.287C69.3802 187.287 70.5897 188.518 72.1684 188.319C73.747 188.108 74.1544 187.312 74.1544 187.312C74.1544 187.312 75.1602 187.585 76.115 187.25C77.0699 186.914 77.1081 186.143 77.1081 186.143C77.1081 186.143 78.9668 185.696 79.527 183.794C80.0872 181.904 79.3742 179.206 79.3742 179.206C79.3742 179.206 81.1057 176.857 79.7562 173.736C78.534 170.914 73.5179 163.406 68.8073 159.949L52.9951 174.52Z" fill="white"/>
<path d="M61.8687 177.18C63.651 179.181 68.5398 184.975 69.3801 187.287" stroke="black" stroke-width="1.88976" stroke-linecap="round" stroke-linejoin="round"/>
<path d="M66.312 175.091C66.312 175.091 68.0944 176.757 70.5897 180.263C73.0978 183.769 73.5179 185.895 74.0653 187.449" stroke="black" stroke-width="1.88976" stroke-linecap="round" stroke-linejoin="round"/>
<path d="M70.3604 172.63C73.4668 175.825 76.395 181.792 77.1079 186.143" stroke="black" stroke-width="1.88976" stroke-linecap="round" stroke-linejoin="round"/>
<path d="M73.6196 170.293C75.7076 172.456 78.0883 176.509 79.3741 179.206" stroke="black" stroke-width="1.88976" stroke-linecap="round" stroke-linejoin="round"/>
<path d="M52.9951 174.52C54.8921 176.297 59.3862 180.574 61.4868 183.023C64.1859 186.181 65.0516 187.747 66.8722 187.846C68.68 187.946 69.0237 187.511 69.3802 187.287C69.3802 187.287 70.5897 188.518 72.1683 188.319C73.747 188.108 74.1544 187.312 74.1544 187.312C74.1544 187.312 75.1602 187.585 76.115 187.25C77.0699 186.914 77.1081 186.143 77.1081 186.143C77.1081 186.143 78.9668 185.696 79.527 183.794C80.0872 181.904 79.3742 179.206 79.3742 179.206C79.3742 179.206 81.1057 176.857 79.7562 173.736C78.534 170.914 73.5179 163.406 68.8073 159.949" stroke="black" stroke-width="1.88976" stroke-linecap="round" stroke-linejoin="round"/>
<path fill-rule="evenodd" clip-rule="evenodd" d="M33.0453 67.5809C33.0453 67.5809 44.2361 57.9338 67.4069 54.975C90.5777 52.0163 113.621 56.8274 122.444 78.3717C131.267 99.9285 129.255 127.067 128.224 144.633L103.755 149.755L101.667 116.774C101.667 116.774 98.0892 143.95 97.9618 147.542C97.8218 151.148 92.8184 153.709 87.0257 155.897C81.233 158.085 70.7679 158.147 70.7679 158.147L52.7278 174.768C52.7278 174.768 7.30277 158.918 2.43944 138.741C-2.43662 118.551 18.6972 76.0594 33.0453 67.5809Z" fill="#D7F0F7"/>
<path d="M40.8495 101.383L30.8428 130.697C30.8428 130.697 49.4049 142.98 55.8596 147.418C62.3016 151.856 70.7679 158.147 70.7679 158.147" stroke="#011826" stroke-width="1.88976" stroke-linecap="round" stroke-linejoin="round"/>
<path d="M107.141 83.7795L103.411 104.441L100.33 126.334" stroke="#011826" stroke-width="1.88976" stroke-linecap="round" stroke-linejoin="round"/>
<path d="M54.4595 57.5483C58.8263 74.6794 86.6313 79.1051 84.6325 53.769" stroke="#6CA3B7" stroke-width="1.88976" stroke-linecap="round" stroke-linejoin="round"/>
<path fill-rule="evenodd" clip-rule="evenodd" d="M82.0482 11.4885C99.2227 12.6447 99.0954 19.2336 98.6243 27.911C98.1532 36.576 95.8489 46.3474 91.0492 53.1103C87.5227 58.0955 82.6084 58.6549 80.2659 58.6052C80.9406 61.9493 79.9094 68.1155 70.7556 67.5934C61.6146 67.0712 58.3809 56.5663 58.3809 56.5663C58.3809 56.5663 59.6922 56.2804 60.4815 56.0566C60.838 52.6379 61.9329 41.9341 61.882 41.8098C61.8183 41.6606 57.1587 40.2185 57.1587 35.1339C57.1587 30.0493 61.2454 30.6833 61.2454 30.6833C62.9132 18.9228 66.6307 10.4567 82.0482 11.4885Z" fill="white"/>
<path fill-rule="evenodd" clip-rule="evenodd" d="M98.6881 22.3291C95.5944 22.5031 91.8896 22.3664 88.0702 22.068C88.3121 22.6647 88.4522 23.4604 88.0066 24.2436C87.1154 25.7727 80.5715 22.8263 80.5715 22.8263C80.5715 22.8263 79.9477 25.2008 76.6631 24.7657C74.1168 24.43 72.2199 23.1371 71.5069 22.5777L71.3669 22.6026C71.3669 22.6026 68.0822 33.3561 67.8785 34.6614C67.6621 35.9544 65.1795 31.5038 61.2455 30.6833C61.2455 30.6833 57.1588 30.0492 57.1588 35.1339C57.1588 40.2185 61.8184 41.6606 61.8821 41.8097C61.8948 41.8719 61.6784 44.234 61.3856 47.0933C61.3856 47.0933 58.903 45.8501 56.1149 40.1812C53.3394 34.5123 51.2643 20.3151 57.7826 13.2663C64.2883 6.21742 77.4906 5.40935 80.9917 4.42723C84.48 3.44512 100.254 -0.657384 102.597 1.74196C104.939 4.12887 100.611 7.34871 100.611 7.34871C100.611 7.34871 105.55 7.31142 106.505 9.33781C107.447 11.3642 102.482 13.0922 102.418 13.7262C102.355 14.3727 105.767 16.0759 106.085 19.0844C106.416 22.0804 98.7008 22.3291 98.6881 22.3291Z" fill="#011826" stroke="#011826" stroke-width="1.88976" stroke-linecap="round" stroke-linejoin="round"/>
<path d="M59.6538 33.0081C59.6538 33.0081 61.4871 34.015 62.7348 35.6685C63.9697 37.3219 64.4535 39.5472 64.4535 39.5472" stroke="#011826" stroke-width="1.88976" stroke-linecap="round" stroke-linejoin="round"/>
<path d="M60.5063 38.0055L62.7343 35.6683" stroke="#011826" stroke-width="1.88976" stroke-linecap="round" stroke-linejoin="round"/>
<path d="M66.4775 47.516C68.9856 53.8065 73.3397 58.3814 80.2655 58.6052" stroke="#011826" stroke-width="1.88976" stroke-linecap="round" stroke-linejoin="round"/>
<path d="M46.5918 172.394C46.5918 172.394 52.6391 165.32 58.0372 160.82C63.4352 156.319 66.096 154.716 66.096 154.716" stroke="#6CA3B7" stroke-width="1.88976" stroke-linecap="round" stroke-linejoin="round"/>
<path d="M68.4889 160.248L63.7783 156.307" stroke="#6CA3B7" stroke-width="1.88976" stroke-linecap="round" stroke-linejoin="round"/>
<path d="M57.3878 170.467L51.9771 166.526" stroke="#6CA3B7" stroke-width="1.88976" stroke-linecap="round" stroke-linejoin="round"/>
<path d="M60.2648 167.831L54.6631 163.865" stroke="#6CA3B7" stroke-width="1.88976" stroke-linecap="round" stroke-linejoin="round"/>
<path d="M63.0405 165.27L57.8462 160.981" stroke="#6CA3B7" stroke-width="1.88976" stroke-linecap="round" stroke-linejoin="round"/>
<path d="M65.8665 162.66L60.9268 158.482" stroke="#6CA3B7" stroke-width="1.88976" stroke-linecap="round" stroke-linejoin="round"/>
<path d="M60.4815 56.0565C60.838 52.6378 61.9329 41.934 61.882 41.8096C61.8183 41.6605 57.1587 40.2184 57.1587 35.1338C57.1587 30.0491 61.2454 30.6832 61.2454 30.6832M98.5988 21.3842C98.8535 23.3608 98.7516 25.5612 98.6243 27.9109C98.1532 36.5758 95.8489 46.3473 91.0492 53.1102C87.5227 58.0953 82.6084 58.6548 80.2659 58.605" stroke="#011826" stroke-width="1.88976" stroke-linecap="round" stroke-linejoin="round"/>
<path d="M86.6821 169.683L74.7656 195.206" stroke="black" stroke-width="1.88976" stroke-linecap="round" stroke-linejoin="round"/>
<path d="M98.6875 14.1489C95.4538 12.9305 90.7177 11.8987 84.6704 12.11" stroke="white" stroke-width="1.88976" stroke-linecap="round" stroke-linejoin="round"/>
<path d="M96.4218 6.80166C92.9843 6.7768 90.8073 6.80166 86.7715 7.52271" stroke="white" stroke-width="1.88976" stroke-linecap="round" stroke-linejoin="round"/>
<path d="M88.1843 17.9655C86.2618 17.2196 83.8175 16.5483 80.8511 16.1877" stroke="white" stroke-width="1.88976" stroke-linecap="round" stroke-linejoin="round"/>
<path d="M63.9185 29.1913C64.0076 27.6995 64.1985 25.9964 64.555 24.3181C64.7205 23.51 64.9242 22.7144 65.1661 21.9312" stroke="white" stroke-width="1.88976" stroke-linecap="round" stroke-linejoin="round"/>
<path d="M61.1689 26.357C61.3472 24.1442 61.7546 21.5086 62.5566 19.1217" stroke="white" stroke-width="1.88976" stroke-linecap="round" stroke-linejoin="round"/>
<path d="M58.1265 28.0975C58.1265 26.8667 58.1774 25.4744 58.3302 24.0696" stroke="white" stroke-width="1.88976" stroke-linecap="round" stroke-linejoin="round"/>
<path fill-rule="evenodd" clip-rule="evenodd" d="M85.2308 110.235L75.415 145.479L103.564 139.623L114.156 104.926L85.2308 110.235Z" fill="white" stroke="#011826" stroke-width="1.88976" stroke-linecap="round" stroke-linejoin="round"/>
<path d="M88.146 116.6L106.772 113.044" stroke="#1C1B1F" stroke-width="1.88976" stroke-linecap="round" stroke-linejoin="round"/>
<path d="M86.3257 122.977L104.951 119.422" stroke="#1C1B1F" stroke-width="1.88976" stroke-linecap="round" stroke-linejoin="round"/>
<path d="M84.9756 129.268L100.329 126.334" stroke="#1C1B1F" stroke-width="1.88976" stroke-linecap="round" stroke-linejoin="round"/>
<path d="M82.8115 135.421L94.0659 133.271" stroke="#1C1B1F" stroke-width="1.88976" stroke-linecap="round" stroke-linejoin="round"/>
<path fill-rule="evenodd" clip-rule="evenodd" d="M116.333 85.7437L106.518 120.988L134.654 115.133L145.246 80.4353L116.333 85.7437Z" fill="white" stroke="#011826" stroke-width="1.88976" stroke-linecap="round" stroke-linejoin="round"/>
<path d="M119.235 92.1213L137.874 88.5533" stroke="#011826" stroke-width="1.88976" stroke-linecap="round" stroke-linejoin="round"/>
<path d="M117.427 98.4864L136.053 94.9309" stroke="#011826" stroke-width="1.88976" stroke-linecap="round" stroke-linejoin="round"/>
<path d="M116.078 104.777L131.431 101.843" stroke="#011826" stroke-width="1.88976" stroke-linecap="round" stroke-linejoin="round"/>
<path d="M113.901 110.943L125.169 108.792" stroke="#011826" stroke-width="1.88976" stroke-linecap="round" stroke-linejoin="round"/>
<path d="M87.0386 36.576C87.1277 40.2807 87.306 42.8168 87.9552 46.4594C86.7458 46.8323 84.9634 47.0437 83.7412 46.7453" stroke="#011826" stroke-width="1.88976" stroke-linecap="round" stroke-linejoin="round"/>
<path d="M78.8784 39.4159C79.7046 39.4874 80.4436 38.7822 80.5289 37.841C80.6142 36.8997 80.0136 36.0788 79.1874 36.0074C78.3612 35.9359 77.6222 36.6411 77.5369 37.5823C77.4516 38.5236 78.0522 39.3445 78.8784 39.4159Z" fill="#011826"/>
<path d="M77.083 32.6478C78.2925 32.6103 80.6096 32.4853 82.4938 32.8603" stroke="#011826" stroke-width="1.88976" stroke-linecap="round" stroke-linejoin="round"/>
<path d="M90.998 31.7524C91.8638 31.3422 93.9262 30.9443 95.4794 31.0314" stroke="#011826" stroke-width="1.88976" stroke-linecap="round" stroke-linejoin="round"/>
<path d="M92.6059 38.1217C93.4322 38.1932 94.1711 37.488 94.2564 36.5468C94.3418 35.6055 93.7412 34.7846 92.9149 34.7132C92.0887 34.6418 91.3498 35.3469 91.2644 36.2881C91.1791 37.2294 91.7797 38.0503 92.6059 38.1217Z" fill="#011826"/>
<path fill-rule="evenodd" clip-rule="evenodd" d="M78.7886 51.059L86.6819 50.1639C86.6819 50.1639 86.0963 52.6503 82.9771 52.9362C79.8453 53.2097 78.7886 51.059 78.7886 51.059Z" stroke="#011826" stroke-width="1.88976" stroke-linecap="round" stroke-linejoin="round"/>
<path d="M42.543 192.222C47.5081 192.832 50.831 193.553 57.1712 195.281" stroke="white" stroke-width="1.88976" stroke-linecap="round" stroke-linejoin="round"/>
<path fill-rule="evenodd" clip-rule="evenodd" d="M126.072 96.9947L116.256 132.239L144.405 126.384L154.997 91.6863L126.072 96.9947Z" fill="white" stroke="#011826" stroke-width="1.88976" stroke-linecap="round" stroke-linejoin="round"/>
<path d="M128.988 103.372L147.614 99.8041" stroke="#011826" stroke-width="1.88976" stroke-linecap="round" stroke-linejoin="round"/>
<path d="M127.167 109.737L145.806 106.182" stroke="#011826" stroke-width="1.88976" stroke-linecap="round" stroke-linejoin="round"/>
<path d="M125.817 116.028L141.171 113.094" stroke="#011826" stroke-width="1.88976" stroke-linecap="round" stroke-linejoin="round"/>
<path d="M123.653 122.194L134.907 120.043" stroke="#011826" stroke-width="1.88976" stroke-linecap="round" stroke-linejoin="round"/>
</svg>
