<svg width="339" height="175" viewBox="0 0 339 175" fill="none" xmlns="http://www.w3.org/2000/svg">
<path d="M134.24 14.36C116.24 0.679987 25.04 0.679987 7.04 14.36C0.0799999 19.4 0.0799999 49.16 7.04 54.44C13.04 59 30.56 52.52 36.56 57.08C65.12 78.68 28.64 144.92 53.84 168.92C59.84 174.44 86.24 174.44 92.24 168.92C117.44 144.92 80.96 78.68 109.28 57.08C114.56 53 128.96 58.28 134.24 54.44C140.96 49.16 140.96 19.4 134.24 14.36ZM207.328 51.6C193.728 44 174.928 46.4 161.728 55.2C141.928 68.6 139.928 100 141.128 120.8C142.128 138.4 150.528 163.4 168.728 171C178.328 175 189.528 175 199.728 172C237.528 161.2 238.528 69.6 207.328 51.6ZM196.128 142.4C174.928 142.2 171.728 78.2 196.528 77.4C218.528 76.8 217.728 142.6 196.128 142.4ZM312.866 43.8C297.466 37.2 263.666 35 252.466 45.4C227.666 68.8 226.666 147 251.666 170.2C256.466 174.8 281.066 174.8 285.866 170.2C289.466 166.8 287.466 159.8 286.466 154.2C285.266 146 277.866 141.6 293.266 138.8C303.066 137 310.866 134.8 323.266 118.8C338.666 98.6 337.866 54.8 312.866 43.8ZM306.666 104.6C302.466 111 296.466 121.6 284.266 118C273.866 115 277.666 77.6 287.466 68.4C292.466 63.6 300.866 63.6 306.066 68.4C313.666 75.4 312.266 96 306.666 104.6Z" fill="white"/>
</svg>
